<svg xmlns="http://www.w3.org/2000/svg" viewBox="0 0 770.4 830.8"><path d="M575.2,1428.2h-3.3v-29.6h3.3v.8c0,3.6.7,6,2,7.1s4.1,1.7,8.4,1.7h36c11,0,18.7-1.9,23.1-5.8s6.6-9.1,6.6-15.8c0-6-2.1-10.8-6.3-14.1s-11.2-5.1-20.9-5.2H585.7c-4.3,0-7.1.6-8.4,1.7s-2,3.5-2,7.1v.8H572v-25.6h3.3v.7c0,3.6.7,6.1,2,7.2s4.1,1.7,8.4,1.7h34.2c8.4,0,14.3.5,17.8,1.4a19.94,19.94,0,0,1,9.6,6c4.9,5.1,7.3,12.5,7.3,22.2,0,8.3-1.9,14.8-5.8,19.7a19.15,19.15,0,0,1-9.4,6.7c-3.7,1.1-9.6,1.7-17.7,1.7h-36c-4.3,0-7.1.6-8.4,1.7s-2,3.5-2,7.1v.8Z" transform="translate(-567.1 -762.2)" fill="#1d1d1b"/><path d="M589.9,1329.3h48.6c4.3,0,7.1-.6,8.5-1.6s2-3.4,2-7v-.9h3.2v24.8H649v-.6c0-3.5-.7-5.8-2-6.9s-4.2-1.6-8.5-1.6H583.4l-2.1,1.5c-4,3-6,5.8-6,8.3v.9H572v-15.3l58.9-47.9H585.7c-4.3,0-7.1.6-8.4,1.7s-2,3.5-2,7.1v.8H572v-24.8h3.3v.9c0,3.5.7,5.9,2,7s4.1,1.7,8.4,1.7h68.9l-64.7,51.9Z" transform="translate(-567.1 -762.2)" fill="#1d1d1b"/><path d="M652,1233.2v29.6h-3.2v-.8c0-3.6-.7-6-2-7.1s-4.2-1.7-8.5-1.7H585.5c-4.3,0-7.1.6-8.4,1.7s-2,3.5-2,7.1v.8h-3.3v-29.6h3.3v.8c0,3.6.7,6,2,7.1s4.1,1.7,8.4,1.7h52.8c4.3,0,7.1-.6,8.4-1.7s2-3.5,2-7.1v-.8Z" transform="translate(-567.1 -762.2)" fill="#1d1d1b"/><path d="M638.8,1188.1l-53.5-21.7c-3.4-1.4-5.6-2.1-6.4-2.1-2.1,0-3.3,1.8-3.6,5.3l-.1.9h-3.3v-19.7h3.3v.9a6.67,6.67,0,0,0,2.2,5.1c1.4,1.3,4.2,2.9,8.2,4.5l68.8,28.3v3.2l-68.8,29.3c-7,3-10.4,5.7-10.4,8.2v.7h-3.3v-23.6h3.3v.9a9.67,9.67,0,0,0,.6,4.2,2.55,2.55,0,0,0,2.4,1.1c1.1,0,3.6-.8,7.4-2.5l53.2-23Z" transform="translate(-567.1 -762.2)" fill="#1d1d1b"/><path d="M611.6,1128.3h27.2c3.4,0,5.8-1.4,7.2-4.3s2-8,2-15.4v-2.2c0-3.2-.8-5.6-2.4-7.1s-4.5-2.7-8.6-3.3l-1-.2v-4l17.4,1.6c-.4,6.6-.7,11.5-.7,14.7,0,3.4-.1,7.4-.4,12s-.4,7.2-.4,8.2v20h-3.2v-.9q0-5.1-2.1-6.9t-8.4-1.8H585.5c-4.4,0-7.3.5-8.6,1.6s-2,3.4-2,7v.9h-3.3v-52.8l14.9-1.6v4l-1.1.2c-4.5.7-7.3,2-8.3,3.9s-1.5,7-1.5,15.2v11.1H608v-12c0-5.5-.5-9-1.4-10.5s-3.1-2.3-6.5-2.3h-.9v-4H620v4h-.8c-3,0-5.2.6-6.5,1.9-1,1-1.5,4.7-1.5,10.9v12.1Z" transform="translate(-567.1 -762.2)" fill="#1d1d1b"/><path d="M614,1065.8h24.4c4.3,0,7.1-.6,8.4-1.7s2-3.5,2-7.1v-.5H652v29.2h-3.2v-.8c0-3.7-.7-6-2-7.1s-4.2-1.7-8.5-1.7H585.5c-4.3,0-7.1.6-8.4,1.7s-2,3.5-2,7.1v.8h-3.3v-30.3c0-9.6,1.2-16.3,3.7-20.2s6.6-5.9,12.6-5.9a22.08,22.08,0,0,1,14.2,4.7c3.9,3.1,7,7.9,9.2,14.2a24.28,24.28,0,0,1,4.4-5.3,119.22,119.22,0,0,1,10.7-7.3l8.4-5.2a99.14,99.14,0,0,0,11.1-7.8,6.93,6.93,0,0,0,2.5-5.1v-.6h3.2v15.5l-38,23.1v10.3Zm-3.2,0v-11.6a18.23,18.23,0,0,0-7.4-10.3,23,23,0,0,0-13.1-3.7c-5.3,0-9.1,1.7-11.6,5s-3.6,8.7-3.6,16.1v4.4h35.7Z" transform="translate(-567.1 -762.2)" fill="#1d1d1b" fill-rule="evenodd"/><path d="M651.2,1012.7l-17.6,1.1v-4l.8-.2c5.4-1,9.5-3.2,12.4-6.5a18,18,0,0,0,4.3-12.4,16.47,16.47,0,0,0-4.6-11.7,14.66,14.66,0,0,0-11.1-4.9c-5.5,0-11.1,4.2-16.8,12.5l-5.5,7.9c-5.3,7.7-9.4,12.8-12.3,15.2a16.48,16.48,0,0,1-10.7,3.6,18,18,0,0,1-15-7.5q-5.7-7.5-5.7-19.8a59.93,59.93,0,0,1,3.4-19.6l15-1.7v4.1l-.8.3c-9.6,2.8-14.4,9-14.4,18.9a15.12,15.12,0,0,0,4,10.9,12.94,12.94,0,0,0,10.1,4.3c5.1,0,10.1-3.6,15.1-10.7l7.8-11.5c4.9-7.2,8.8-11.8,11.8-14.1a17.5,17.5,0,0,1,10.9-3.4,19.49,19.49,0,0,1,16.1,7.7q6,7.65,6,20.7a61.29,61.29,0,0,1-3.2,20.8Z" transform="translate(-567.1 -762.2)" fill="#1d1d1b"/><path d="M652,925.7v29.6h-3.2v-.8c0-3.6-.7-6-2-7.1s-4.2-1.7-8.5-1.7H585.5c-4.3,0-7.1.6-8.4,1.7s-2,3.5-2,7.1v.8h-3.3V925.7h3.3v.8c0,3.6.7,6,2,7.1s4.1,1.7,8.4,1.7h52.8c4.3,0,7.1-.6,8.4-1.7s2-3.5,2-7.1v-.8Z" transform="translate(-567.1 -762.2)" fill="#1d1d1b"/><path d="M576,891.5v8.1c0,6.1.8,10.4,2.5,12.7s4.9,3.9,9.7,4.6l1,.2v4.2l-18.6-2a277.1,277.1,0,0,0,1.4-27.9V880.6a278.61,278.61,0,0,0-1.4-27.9l18.6-2v4.2l-1,.2c-4.8.7-8,2.3-9.7,4.6s-2.5,6.6-2.5,12.7v8.2h62.5c4.3,0,7.1-.7,8.4-2s2-4.2,2-8.5v-.8h3.2v33.2h-3.2v-.8c0-4.3-.7-7.2-2-8.5s-4.1-2-8.4-2H576Z" transform="translate(-567.1 -762.2)" fill="#1d1d1b"/><path d="M626.8,834.2l11.9,4.9c3.4,1.4,5.5,2.1,6.4,2.1,2.1,0,3.3-1.8,3.6-5.3l.1-.8H652v19.7h-3.2V854a6.39,6.39,0,0,0-2.2-5.1c-1.5-1.3-4.2-2.8-8.3-4.5L569.6,816v-3.2l68.8-29.3a48.2,48.2,0,0,0,8.5-4.3,5,5,0,0,0,2-3.9v-.7h3.2v23.6h-3.2v-.9a9.67,9.67,0,0,0-.6-4.2,2.55,2.55,0,0,0-2.4-1.1c-1,0-3.5.8-7.4,2.5l-11.6,4.9v34.8Zm-4-1.5V801.4l-37.8,16,37.8,15.3Z" transform="translate(-567.1 -762.2)" fill="#1d1d1b" fill-rule="evenodd"/><path d="M600,778.8h-3.5q-5.1-8.1-16.2-8.7l-4.4,8.7c-5.8-.8-8.8-3.7-8.8-8.7a7.32,7.32,0,0,1,2.6-5.7,10.11,10.11,0,0,1,6.8-2.2c9-.1,16.8,5.5,23.5,16.6Z" transform="translate(-567.1 -762.2)" fill="#1d1d1b" fill-rule="evenodd"/><path d="M680.3,851.2v-3h1c3.3,0,5.4-.6,6.5-1.8s1.5-3.9,1.5-7.9V789c0-4.1-.5-6.7-1.5-7.9s-3.2-1.9-6.5-1.9h-1v-3h27.9c9.5.2,16.3.8,20.2,1.8a40.65,40.65,0,0,1,12.6,6.2c7.5,5.8,11.3,14.7,11.3,26.6,0,11.4-3.4,21.2-10.2,29.3a27.94,27.94,0,0,1-12.7,8.8c-4.8,1.6-11.9,2.4-21.2,2.4H680.3Zm18.8-72v59.3c0,6.2,5.4,9.3,16.1,9.3,8,0,14.4-3,19.2-9.1s7.2-14.2,7.2-24.4c0-10-2.9-18.3-8.6-24.9a26.81,26.81,0,0,0-11.3-8c-4.1-1.5-9.9-2.2-17.4-2.2Z" transform="translate(-567.1 -762.2)" fill="#1d1d1b" fill-rule="evenodd"/><path d="M778.4,813.3v25.5a7,7,0,0,0,4.1,6.8c2.7,1.3,7.5,1.9,14.4,1.9h2c3,0,5.2-.8,6.6-2.3s2.5-4.2,3.1-8l.1-.9h3.8L811,852.7c-6.2-.4-10.7-.6-13.7-.6-3.2,0-7-.1-11.3-.4s-6.8-.3-7.6-.3H759.6v-3h.9c3.2,0,5.4-.6,6.5-1.9s1.6-3.9,1.6-7.8V789c0-4.1-.5-6.8-1.5-8s-3.2-1.8-6.6-1.8h-.9v-3h49.5l1.5,13.9h-3.8l-.1-1c-.6-4.2-1.8-6.8-3.7-7.7s-6.6-1.4-14.3-1.4H778.3v30.4h11.2c5.2,0,8.4-.4,9.9-1.3s2.2-2.9,2.2-6.1v-.8h3.7v19.5h-3.7V821c0-2.8-.6-4.9-1.8-6.1-1-1-4.4-1.5-10.3-1.5H778.4Z" transform="translate(-567.1 -762.2)" fill="#1d1d1b"/><path d="M879.8,849.3a71,71,0,0,1-22.9,4.2c-13.1,0-22.9-4.3-29.3-12.8-5.5-7.4-8.3-16.4-8.3-27q0-17.85,9.9-28.8c6.6-7.3,15.3-10.9,26.1-10.9a81.64,81.64,0,0,1,23,3l1.5,14.9H876l-.1-.8q-.15-3.6-3.3-8.1c-3.7-4-9.2-6-16.3-6.1-7.8,0-14.1,3.4-18.9,10.3s-7.2,15.8-7.2,27,2.7,19.6,8,25.5,13,8.9,22.9,8.9a60.75,60.75,0,0,0,9.9-1V830.5c0-4-.5-6.6-1.6-7.8s-3.2-1.9-6.5-1.9H862v-3h27v3h-.7c-3.4,0-5.7.6-6.7,1.9s-1.6,3.8-1.6,7.8v18.8Z" transform="translate(-567.1 -762.2)" fill="#1d1d1b"/><path d="M944.1,834.3h3.8l-1.7,17.9c-11.1-.7-21.9-1-32.4-1H895v-3h.9c3.4,0,5.5-.6,6.6-1.9s1.5-3.9,1.5-8V788.9c0-4-.5-6.6-1.6-7.8s-3.2-1.9-6.5-1.9H895v-3h27.8v3H922c-3.4,0-5.6.6-6.6,1.9s-1.5,3.8-1.5,7.8v49.4c0,3.3,1.2,5.5,3.5,6.6s6.8,1.7,13.4,1.7h2.4c4,0,6.5-.8,7.6-2.3a20.38,20.38,0,0,0,3.2-9l.1-1Z" transform="translate(-567.1 -762.2)" fill="#1d1d1b"/><path d="M979.9,851.2H952.1v-3h.8q5.1,0,6.6-1.8c1.1-1.3,1.6-3.9,1.6-7.9V789c0-4-.5-6.6-1.6-7.8s-3.2-1.9-6.6-1.9h-.8v-3h27.8v3h-.7c-3.4,0-5.6.6-6.7,1.9s-1.6,3.8-1.6,7.8v49.5c0,4,.5,6.6,1.6,7.9s3.3,1.9,6.7,1.9h.7v2.9Z" transform="translate(-567.1 -762.2)" fill="#1d1d1b"/><path d="M1020.6,850.4l-1.1-16.5h3.8l.1.8q1.5,7.5,6,11.7a17,17,0,0,0,11.7,4.1,15,15,0,0,0,10.9-4.3,13.75,13.75,0,0,0,4.6-10.4c0-5.1-3.9-10.4-11.8-15.7l-7.5-5.1c-7.2-5-12-8.8-14.2-11.6a15.63,15.63,0,0,1-3.3-10,16.59,16.59,0,0,1,7-14c4.7-3.5,10.9-5.3,18.6-5.3a56.91,56.91,0,0,1,18.3,3.2l1.6,14.1h-3.9l-.2-.8q-3.9-13.5-17.7-13.5a14.64,14.64,0,0,0-10.3,3.7,12.27,12.27,0,0,0-4.1,9.4c0,4.8,3.4,9.5,10.1,14.1l10.7,7.4c6.7,4.6,11.1,8.3,13.2,11a16.09,16.09,0,0,1,3.1,10.2,18,18,0,0,1-7.3,15.1c-4.8,3.7-11.3,5.6-19.4,5.6a60,60,0,0,1-18.9-3.2Z" transform="translate(-567.1 -762.2)" fill="#1d1d1b"/><path d="M1101.2,779.9h-7.6c-5.7,0-9.7.8-11.9,2.3s-3.6,4.6-4.3,9.1l-.1,1h-4l1.8-17.5a243.88,243.88,0,0,0,26.1,1.3h10.1a242.57,242.57,0,0,0,26.1-1.3l1.8,17.5h-3.9l-.2-1c-.7-4.5-2.1-7.5-4.3-9.1s-6.2-2.3-11.9-2.3h-7.6v58.6c0,4,.6,6.7,1.8,7.9s3.9,1.8,7.9,1.8h.7v3h-31.1v-3h.7c4.1,0,6.7-.6,7.9-1.8s1.8-3.9,1.8-7.9V779.9Z" transform="translate(-567.1 -762.2)" fill="#1d1d1b"/><path d="M1143.1,779.2v-3h27.7v3h-.8c-3.4,0-5.6.6-6.7,1.9s-1.6,3.8-1.6,7.8v33.7q0,15.45,5.4,21.6c3.6,4.1,8.6,6.2,14.9,6.2,5.7,0,10.1-2,13.2-5.9s4.8-10.5,4.8-19.6v-36c0-4-.5-6.6-1.6-7.8s-3.3-1.9-6.7-1.9h-.7v-3h24v3h-.6c-3.4,0-5.7.6-6.8,1.9s-1.6,3.8-1.6,7.8V821c0,7.8-.5,13.4-1.4,16.7a18.94,18.94,0,0,1-5.6,9c-4.8,4.5-11.8,6.8-20.8,6.8-7.7,0-13.9-1.8-18.4-5.4a18.34,18.34,0,0,1-6.3-8.9c-1-3.4-1.5-9-1.5-16.6V788.9c0-4-.5-6.6-1.6-7.8s-3.3-1.9-6.7-1.9Z" transform="translate(-567.1 -762.2)" fill="#1d1d1b"/><path d="M1221.3,851.2v-3h1c3.3,0,5.5-.6,6.5-1.8s1.5-3.9,1.5-7.9V789c0-4.1-.5-6.7-1.5-7.9s-3.2-1.9-6.5-1.9h-1v-3h27.9c9.5.2,16.3.8,20.2,1.8a40.65,40.65,0,0,1,12.6,6.2c7.5,5.8,11.3,14.7,11.3,26.6,0,11.4-3.4,21.2-10.2,29.3a27.43,27.43,0,0,1-12.7,8.8c-4.8,1.6-11.9,2.4-21.2,2.4h-27.9Zm18.8-72v59.3c0,6.2,5.4,9.3,16.1,9.3,8,0,14.4-3,19.1-9.1s7.2-14.2,7.2-24.4c0-10-2.9-18.3-8.6-24.9a26.81,26.81,0,0,0-11.3-8c-4.1-1.5-9.9-2.2-17.4-2.2Z" transform="translate(-567.1 -762.2)" fill="#1d1d1b" fill-rule="evenodd"/><path d="M1328.4,851.2h-27.8v-3h.8q5.1,0,6.6-1.8c1.1-1.3,1.6-3.9,1.6-7.9V789c0-4-.5-6.6-1.6-7.8s-3.2-1.9-6.6-1.9h-.8v-3h27.8v3h-.7c-3.4,0-5.6.6-6.7,1.9s-1.6,3.8-1.6,7.8v49.5c0,4,.5,6.6,1.6,7.9s3.3,1.9,6.7,1.9h.7v2.9Z" transform="translate(-567.1 -762.2)" fill="#1d1d1b"/><path d="M1254.2,879.1h3v1c0,3.3.6,5.4,1.8,6.5s3.9,1.5,7.9,1.5h49.5c4.1,0,6.7-.5,7.9-1.5s1.9-3.2,1.9-6.5v-1h3.1V907c-.2,9.5-.8,16.3-1.8,20.2a40.65,40.65,0,0,1-6.2,12.6c-5.8,7.5-14.7,11.3-26.6,11.3-11.4,0-21.2-3.4-29.3-10.2a27.94,27.94,0,0,1-8.8-12.7c-1.6-4.8-2.4-11.9-2.4-21.2V879.1Zm72,18.8h-59.3c-6.2,0-9.3,5.4-9.3,16.1,0,8,3,14.4,9.1,19.2s14.2,7.2,24.4,7.2c10,0,18.3-2.9,24.9-8.6a26.81,26.81,0,0,0,8-11.3c1.5-4.1,2.2-9.9,2.2-17.4v-5.2Z" transform="translate(-567.1 -762.2)" fill="#1d1d1b" fill-rule="evenodd"/><path d="M1254.2,984.9V957.1h3v.8q0,5.1,1.8,6.6c1.3,1.1,3.9,1.6,7.9,1.6h49.5c4,0,6.6-.5,7.8-1.6s1.9-3.2,1.9-6.6v-.8h3.1v27.8h-3.1v-.7c0-3.4-.6-5.6-1.9-6.7s-3.8-1.6-7.8-1.6h-49.5c-4,0-6.6.5-7.9,1.6s-1.9,3.3-1.9,6.7v.7Z" transform="translate(-567.1 -762.2)" fill="#1d1d1b"/><path d="M1316.5,1035.3H1267c-4,0-6.6.5-7.9,1.6s-1.9,3.3-1.9,6.7v.7h-3v-22.9h3v.7c0,3.4.6,5.7,1.9,6.7s3.9,1.6,7.9,1.6h49.5c4,0,6.6-.5,7.8-1.6s1.9-3.3,1.9-6.7v-.7h3.1v17.5l-53.9,27.9,53.9,25.6v18h-3.1v-.8c0-3.4-.6-5.6-1.9-6.7s-3.8-1.6-7.8-1.6h-47.6c-5.3,0-8.6.5-9.8,1.6s-1.8,3.3-1.8,6.7v.8h-3v-27h3v.6c0,3.4.6,5.7,1.8,6.8s3.9,1.6,7.9,1.6h54.5l-59.9-28.6,54.9-28.5Z" transform="translate(-567.1 -762.2)" fill="#1d1d1b"/><path d="M1254.2,1143.7v-27.8h3v.8q0,5.1,1.8,6.6c1.3,1.1,3.9,1.6,7.9,1.6h49.5c4,0,6.6-.5,7.8-1.6s1.9-3.2,1.9-6.6v-.8h3.1v27.8h-3.1v-.7c0-3.4-.6-5.6-1.9-6.7s-3.8-1.6-7.8-1.6h-49.5c-4,0-6.6.5-7.9,1.6s-1.9,3.3-1.9,6.7v.7Z" transform="translate(-567.1 -762.2)" fill="#1d1d1b"/><path d="M1271,1198.3v3.8l-17.9-1.7c.7-11.1,1-21.9,1-32.4v-18.8h3v.9c0,3.3.6,5.5,1.9,6.6s3.9,1.5,8,1.5h49.4c4,0,6.6-.5,7.8-1.6s1.9-3.2,1.9-6.5v-.9h3.1V1177h-3.1v-.8c0-3.4-.6-5.6-1.9-6.6s-3.8-1.5-7.8-1.5H1267c-3.3,0-5.5,1.2-6.6,3.5s-1.7,6.8-1.7,13.4v2.4c0,4,.8,6.5,2.3,7.6a20.4,20.4,0,0,0,8.9,3.2l1.1.1Z" transform="translate(-567.1 -762.2)" fill="#1d1d1b"/><path d="M1277.8,1222l-11.2-4.6c-3.2-1.3-5.2-2-6-2-2,0-3.1,1.7-3.4,5l-.1.8h-3v-18.4h3v.8a6.57,6.57,0,0,0,2,4.8q2.1,1.95,7.8,4.2l64.5,26.5v3l-64.5,27.4a40.33,40.33,0,0,0-7.9,4.1,4.38,4.38,0,0,0-1.9,3.6v.6h-3v-22.2h3v.8a8.91,8.91,0,0,0,.6,4c.4.7,1.1,1,2.3,1,.9,0,3.3-.8,7-2.3l10.8-4.5V1222Zm3.7,1.4v29.3l35.4-15-35.4-14.3Z" transform="translate(-567.1 -762.2)" fill="#1d1d1b" fill-rule="evenodd"/><path d="M1312.4,1295.4h-45.5c-4,0-6.7.5-7.9,1.5s-1.8,3.2-1.8,6.6v.9h-3v-23.3h3v.6c0,3.3.6,5.5,1.8,6.5s3.9,1.6,7.9,1.6h51.7l2-1.5c3.7-2.8,5.6-5.4,5.6-7.8v-.9h3.1V1294l-55.2,44.9h42.4c4,0,6.6-.5,7.8-1.6s1.9-3.2,1.9-6.6v-.8h3.1v23.2h-3.1v-.9c0-3.3-.6-5.5-1.9-6.6s-3.8-1.5-7.8-1.5h-64.6l60.5-48.7Z" transform="translate(-567.1 -762.2)" fill="#1d1d1b"/><path d="M1251.9,1393.2c0-10.4,3.7-19,11.2-25.7s17-10,28.6-10,21.2,3.3,28.6,10,11.2,15.2,11.2,25.7c0,9.5-2.8,17.2-8.5,23.2a37.79,37.79,0,0,1-13.8,9.1,45.33,45.33,0,0,1-17.4,3.4c-11.6,0-21.2-3.3-28.6-10-7.6-6.7-11.3-15.3-11.3-25.7Zm3,0c0,7.1,3.4,12.9,10.3,17.5s15.7,6.9,26.5,6.9,19.5-2.3,26.4-6.9,10.3-10.4,10.4-17.5-3.5-12.9-10.4-17.5-15.7-6.9-26.4-6.9-19.6,2.3-26.5,6.8-10.3,10.4-10.3,17.6Z" transform="translate(-567.1 -762.2)" fill="#1d1d1b" fill-rule="evenodd"/><path d="M613.2,1498.8c0,6.7-2,8.9-6.5,8.9h-3.4v-38.4h3.4c4.6,0,6.5,2.2,6.5,8.9v20.6Zm-37.9,91.4h32.9c21.6,0,32.9-7.5,32.9-31.7v-12.3c0-22.6-6.5-29.3-21-30.7v-.6c17.8-3.6,21-13.1,21-26.6v-10.7c0-21.6-15.6-28.5-32.9-28.5H575.3v141.1Zm28-65h3.4c4.6,0,6.5,1.2,6.5,6.7v31.3c0,5.5-2,6.7-6.5,6.7h-3.4v-44.7Z" transform="translate(-567.1 -762.2)" fill="#1d1d1b" fill-rule="evenodd"/><polygon points="159.3 828 159.3 686.9 131.4 686.9 131.4 828 159.3 828" fill="#1d1d1b"/><path d="M821.8,1534.7v27.9c0,4-.6,9.3-5,9.3s-5-5.3-5-9.3v-86c0-4,.6-9.3,5-9.3s5,5.3,5,9.3v22.2h27.9V1472c0-18.8-15.6-25.8-32.9-25.8s-32.9,6.9-32.9,25.8v95.1c0,18.8,15.7,25.8,32.9,25.8s32.9-6.9,32.9-25.8v-32.5H821.8Z" transform="translate(-567.1 -762.2)" fill="#1d1d1b"/><path d="M904.7,1567.2c0,18.8,15.6,25.8,32.9,25.8s32.9-6.9,32.9-25.8v-95.1c0-18.8-15.6-25.8-32.9-25.8s-32.9,6.9-32.9,25.8v95.1Zm37.9-4.6c0,4-.6,9.3-5,9.3s-5-5.3-5-9.3v-86c0-4,.6-9.3,5-9.3s5,5.3,5,9.3v86Z" transform="translate(-567.1 -762.2)" fill="#1d1d1b" fill-rule="evenodd"/><path d="M1063.3,1534.7v27.9c0,4-.6,9.3-5,9.3s-5-5.3-5-9.3v-86c0-4,.6-9.3,5-9.3s5,5.3,5,9.3v22.2h27.9V1472c0-18.8-15.7-25.8-32.9-25.8s-32.9,6.9-32.9,25.8v95.1c0,18.8,15.6,25.8,32.9,25.8s32.9-6.9,32.9-25.8v-32.5h-27.9Z" transform="translate(-567.1 -762.2)" fill="#1d1d1b"/><path d="M1184.1,1534.7v27.9c0,4-.6,9.3-5,9.3s-4.9-5.3-4.9-9.3v-86c0-4,.6-9.3,4.9-9.3s5,5.3,5,9.3v22.2H1212V1472c0-18.8-15.7-25.8-32.9-25.8s-32.9,6.9-32.9,25.8v95.1c0,18.8,15.6,25.8,32.9,25.8s32.9-6.9,32.9-25.8v-32.5h-27.9Z" transform="translate(-567.1 -762.2)" fill="#1d1d1b"/><path d="M1294.2,1531.5l4.6-57.8h.8l3.8,57.8Zm-31.7,58.7h25l4.4-38.4h13.3l3.2,38.4h29.1l-16.8-141.1h-37.1l-21.1,141.1Z" transform="translate(-567.1 -762.2)" fill="#1d1d1b" fill-rule="evenodd"/><polygon points="165.2 524.8 265.2 375.9 165.2 256.1 165.2 166 307.4 338.5 592 159.1 637.9 197.7 333 389.4 602.2 559.3 611.7 630.5 295.1 432 168.1 619.2 165.2 524.8" fill="none" stroke="#bdbcbc" stroke-miterlimit="3.86" stroke-width="11.23"/><path d="M1110.2,1148.7l59.2,114.1V1040.3l-59.2,108.4Zm-27.9,67.6L830.1,1367.9h330.7l-78.5-151.6Zm87.1-278.9H803.1l254,205.9,112.3-205.9ZM738.8,1359.5,1021.7,1187,738.8,957.5v402ZM682.6,881.2h542.9v542.9H682.6V881.2Z" transform="translate(-567.1 -762.2)" fill="#bdbcbc" stroke="#bdbcbc" stroke-width="1.9"/><path d="M1110.2,1148.7l59.2,114.1V1040.3l-59.2,108.4Zm-27.9,67.6L830.1,1367.9h330.7l-78.5-151.6Zm87.1-278.9H803.1l254,205.9,112.3-205.9ZM738.8,1359.5,1021.7,1187,738.8,957.5v402ZM682.6,881.2h542.9v542.9H682.6V881.2Z" transform="translate(-567.1 -762.2)" fill="none" stroke="#bdbcbc" stroke-miterlimit="3.86" stroke-width="11.23"/></svg>