<svg xmlns="http://www.w3.org/2000/svg" viewBox="0 0 627.28 159.49"><title>UKRI_AHR_Council-Logo_Horiz-RGB</title><path d="M338.35,61.51h-5.79l-2-6.16H320.06l-2,6.16H312.3l9.49-28.15h7.07ZM329,50.37l-3.18-9.77h-1l-3.17,9.77Z" fill="#2e2d62"/><path d="M354.2,41.2v5.15a9.93,9.93,0,0,0-1.77-.16c-2.82,0-5.75,1.45-5.75,5.14V61.51h-5.35V41.4h4.1l.73,2.21h.64A8.52,8.52,0,0,1,353,41.2Z" fill="#2e2d62"/><path d="M372.41,60a7,7,0,0,1-4.78,1.69c-3.86,0-7.2-2.62-7.2-6.68V45.71h-4V41.77h2a2.2,2.2,0,0,0,2.29-2.38v-4h4.87v6h5.06v4.31h-5.06v9a2.45,2.45,0,0,0,2.57,2.41,5.13,5.13,0,0,0,2.33-.68Z" fill="#2e2d62"/><path d="M382,45.46c-1.69,0-2.42.85-2.42,1.69,0,1.37,1.81,1.77,3,2,3.58.77,7.2,1.85,7.2,6.11s-3.42,6.44-7.56,6.44c-4.63,0-8.21-2.82-8.45-7.08h5a3,3,0,0,0,3.38,2.78c2.05,0,2.53-1.09,2.53-1.93,0-1.49-1.41-1.93-2.77-2.26-2.38-.52-7.48-1.48-7.48-6.07,0-3.94,3.78-5.95,7.68-5.95,4.5,0,7.48,2.74,7.72,6.11h-5C384.68,46.63,384,45.46,382,45.46Z" fill="#2e2d62"/><path d="M423.4,57.65v3.86h-1.2c-2.34,0-4-.85-4.67-2.58-1.2,1.65-3.21,2.78-6.35,2.78-4.54,0-7.44-2.33-7.44-6,0-6.28,8.57-6.84,12.43-7-.09-2.33-1.37-3.18-3.42-3.18-2.86,0-3.06,1.73-3.06,1.73h-5c.36-3.57,3.29-6.07,8.2-6.07S421,43.57,421,49.4v5.35C421,57.08,421.87,57.65,423.4,57.65Zm-7.32-4.59v-.4c-3.65.4-7.27.85-7.27,2.94C408.81,58.65,415.76,58.41,416.08,53.06Z" fill="#2e2d62"/><path d="M445.68,50.61v10.9h-5.35V51.82c0-.69.48-5.75-3.38-6-1.89-.12-5.26.92-5.26,6.19v9.45h-5.31V41.4h4.1l.68,2.46h.69A7.67,7.67,0,0,1,438,41.2C443.15,41.2,445.68,45.06,445.68,50.61Z" fill="#2e2d62"/><path d="M468.72,33V61.51h-3.94l-.56-1.93h-.61a6.6,6.6,0,0,1-5.1,2.13c-5.11,0-9.37-4.18-9.37-10.26s4.26-10.25,9.37-10.25a6.71,6.71,0,0,1,5.18,2.17V33Zm-5,18.49c0-3.33-1.8-5.3-4.42-5.3-2.45,0-4.9,1.77-4.9,5.3s2.45,5.31,4.9,5.31C461.89,56.76,463.69,54.79,463.69,51.45Z" fill="#2e2d62"/><path d="M336.66,74.55V102.7h-5.42V91h-11.1v11.7h-5.43V74.55h5.43V85.89h11.1V74.55Z" fill="#2e2d62"/><path d="M360,82.6v20.1h-4l-.73-2.25h-.52a7.17,7.17,0,0,1-5.87,2.45c-5.35,0-8.08-3.78-8.08-9.41V82.6h5.47v9.69c0,2.49.2,5.95,3.66,5.95,1.77,0,4.66-.93,4.66-6.2V82.6Z" fill="#2e2d62"/><path d="M394.77,91.8v10.9h-5.35V93c0-2.77.28-6.27-3.42-6-1,.08-3.61.52-3.61,6.19v9.45h-5.31V93c0-2.77.28-6.27-3.42-6-1,.08-3.62.52-3.62,6.19v9.45h-5.31V82.6h4.11l.6,2.17h.64A6.21,6.21,0,0,1,375,82.39a6.63,6.63,0,0,1,5.51,2.78h.6a7.57,7.57,0,0,1,6.11-2.82C392.4,82.31,394.77,86.21,394.77,91.8Z" fill="#2e2d62"/><path d="M417.89,98.84v3.86h-1.2c-2.33,0-4-.85-4.67-2.57-1.2,1.64-3.21,2.77-6.35,2.77-4.54,0-7.44-2.33-7.44-6,0-6.27,8.57-6.84,12.43-7-.08-2.33-1.37-3.17-3.42-3.17-2.86,0-3.06,1.73-3.06,1.73h-5c.36-3.58,3.29-6.08,8.2-6.08s8.16,2.38,8.16,8.21v5.34C415.52,98.28,416.37,98.84,417.89,98.84Zm-7.31-4.58v-.41c-3.66.41-7.28.85-7.28,2.94C403.3,99.85,410.25,99.6,410.58,94.26Z" fill="#2e2d62"/><path d="M440.17,91.8v10.9h-5.35V93c0-.68.49-5.75-3.37-6-1.89-.12-5.27.92-5.27,6.19v9.45h-5.31V82.6H425l.69,2.45h.68a7.67,7.67,0,0,1,6.11-2.66C437.64,82.39,440.17,86.25,440.17,91.8Z" fill="#2e2d62"/><path d="M443.51,77A3.43,3.43,0,0,1,447,73.55,3.38,3.38,0,0,1,450.35,77,3.42,3.42,0,0,1,447,80.34,3.46,3.46,0,0,1,443.51,77Zm6,25.73H444.4V82.6h5.14Z" fill="#2e2d62"/><path d="M468.4,101.21a7.06,7.06,0,0,1-4.79,1.69c-3.86,0-7.19-2.61-7.19-6.67V86.9h-4V83h2a2.2,2.2,0,0,0,2.29-2.37v-4h4.86v6h5.07v4.3h-5.07v9a2.47,2.47,0,0,0,2.58,2.42,5.13,5.13,0,0,0,2.33-.69Z" fill="#2e2d62"/><path d="M469.73,77a3.43,3.43,0,0,1,3.46-3.42A3.38,3.38,0,0,1,476.56,77a3.41,3.41,0,0,1-3.37,3.37A3.46,3.46,0,0,1,469.73,77Zm6,25.73h-5.15V82.6h5.15Z" fill="#2e2d62"/><path d="M499.24,94.18H484.57a5.08,5.08,0,0,0,5.26,4.18,4.74,4.74,0,0,0,3.9-1.69h5.07a9.58,9.58,0,0,1-9.13,6.23A10.08,10.08,0,0,1,479.5,92.49a9.78,9.78,0,0,1,10-10.1C494.66,82.39,499.89,86,499.24,94.18Zm-14.35-4.07h9a4.07,4.07,0,0,0-4.26-3.33A5,5,0,0,0,484.89,90.11Z" fill="#2e2d62"/><path d="M510.22,86.66c-1.69,0-2.41.84-2.41,1.69,0,1.36,1.81,1.76,3,2,3.58.76,7.2,1.85,7.2,6.11s-3.42,6.43-7.56,6.43c-4.62,0-8.2-2.81-8.44-7.08H507a3,3,0,0,0,3.38,2.78c2.05,0,2.53-1.09,2.53-1.93,0-1.49-1.4-1.93-2.77-2.25-2.37-.53-7.48-1.49-7.48-6.07,0-3.94,3.78-6,7.68-6,4.5,0,7.48,2.74,7.72,6.12h-4.94C512.91,87.82,512.27,86.66,510.22,86.66Z" fill="#2e2d62"/><path d="M329.15,143.89l-6-10.33h-3.34v10.33h-5.11V115.75h9.93c4.63,0,8.73,3.09,8.73,8.64a8.93,8.93,0,0,1-5.07,8.2l6.8,11.3Zm-9.33-15.32h4.42a3.82,3.82,0,0,0,3.82-4.1,3.52,3.52,0,0,0-3.82-3.7h-4.42Z" fill="#2e2d62"/><path d="M355.65,135.37H341a5.09,5.09,0,0,0,5.27,4.18,4.76,4.76,0,0,0,3.9-1.69h5.06a9.56,9.56,0,0,1-9.12,6.23,10.09,10.09,0,0,1-10.18-10.41,9.78,9.78,0,0,1,10-10.09C351.06,123.59,356.29,127.17,355.65,135.37Zm-14.36-4.06h9a4.08,4.08,0,0,0-4.26-3.34A5,5,0,0,0,341.29,131.31Z" fill="#2e2d62"/><path d="M366.62,127.85c-1.68,0-2.41.84-2.41,1.69,0,1.36,1.81,1.77,3,2,3.58.76,7.19,1.85,7.19,6.11s-3.41,6.43-7.56,6.43c-4.62,0-8.2-2.81-8.44-7.07h4.95a3,3,0,0,0,3.37,2.77c2.06,0,2.54-1.08,2.54-1.93,0-1.49-1.41-1.93-2.78-2.25-2.37-.52-7.48-1.49-7.48-6.07,0-3.94,3.78-5.95,7.68-5.95,4.51,0,7.48,2.73,7.72,6.11h-4.94C369.32,129,368.67,127.85,366.62,127.85Z" fill="#2e2d62"/><path d="M396.66,135.37H382a5.08,5.08,0,0,0,5.26,4.18,4.74,4.74,0,0,0,3.9-1.69h5.07a9.58,9.58,0,0,1-9.13,6.23,10.08,10.08,0,0,1-10.17-10.41,9.78,9.78,0,0,1,10-10.09C392.08,123.59,397.31,127.17,396.66,135.37Zm-14.35-4.06h9a4.07,4.07,0,0,0-4.26-3.34A5,5,0,0,0,382.31,131.31Z" fill="#2e2d62"/><path d="M419,140v3.86h-1.21c-2.33,0-4-.84-4.66-2.57-1.21,1.65-3.22,2.77-6.35,2.77-4.55,0-7.44-2.33-7.44-6,0-6.27,8.56-6.83,12.42-7-.08-2.34-1.36-3.18-3.42-3.18-2.85,0-3.05,1.73-3.05,1.73h-5c.37-3.58,3.3-6.07,8.21-6.07s8.16,2.37,8.16,8.2v5.35C416.61,139.47,417.45,140,419,140Zm-7.32-4.58v-.4c-3.66.4-7.28.84-7.28,2.93C404.38,141,411.34,140.8,411.66,135.45Z" fill="#2e2d62"/><path d="M434.82,123.59v5.14a9.83,9.83,0,0,0-1.77-.16c-2.81,0-5.74,1.45-5.74,5.15v10.17H422v-20.1h4.1l.72,2.21h.65a8.48,8.48,0,0,1,6.15-2.41Z" fill="#2e2d62"/><path d="M446.2,144.09A10,10,0,0,1,436,133.88a10.2,10.2,0,0,1,10.37-10.29,9.62,9.62,0,0,1,9.61,7.56h-5.46a4.68,4.68,0,0,0-4.27-2.7,5.4,5.4,0,0,0,0,10.78,4.67,4.67,0,0,0,4.11-2.41h5.5A9.75,9.75,0,0,1,446.2,144.09Z" fill="#2e2d62"/><path d="M478.49,133v10.89h-5.38V134.2c0-2,.32-5.95-3.3-5.95-1.77,0-5.19.93-5.19,6.19v9.45h-5.39V115.35h5.11v10.53H465a7.8,7.8,0,0,1,5.79-2.29C476,123.59,478.49,127.45,478.49,133Z" fill="#2e2d62"/><path d="M515.57,135.45A11.73,11.73,0,0,1,504,144.09c-7.36,0-12.71-6-12.71-14.27s5.31-14.27,12.67-14.27a11.81,11.81,0,0,1,11.58,8.64H509.5a5.57,5.57,0,0,0-5.43-3.34c-4.59,0-7.2,3.74-7.2,9s2.66,9,7.28,9a5.46,5.46,0,0,0,5.35-3.34Z" fill="#2e2d62"/><path d="M517.78,133.88a10.07,10.07,0,0,1,10.37-10.29,9.9,9.9,0,0,1,10.18,10.21A10,10,0,0,1,528,144.09,9.91,9.91,0,0,1,517.78,133.88Zm15.28,0c0-3.14-1.85-5.59-4.91-5.59s-5.1,2.45-5.1,5.59,2.05,5.59,5.1,5.59S533.06,137,533.06,133.84Z" fill="#2e2d62"/><path d="M561,123.79v20.1h-4l-.73-2.25h-.52a7.14,7.14,0,0,1-5.87,2.45c-5.35,0-8.08-3.78-8.08-9.41V123.79h5.47v9.69c0,2.49.2,6,3.66,6,1.77,0,4.66-.93,4.66-6.19v-9.45Z" fill="#2e2d62"/><path d="M585.06,133v10.89h-5.35V134.2c0-.68.48-5.75-3.38-5.95-1.89-.12-5.27.93-5.27,6.19v9.45h-5.3v-20.1h4.1l.68,2.45h.68a7.74,7.74,0,0,1,6.12-2.65C582.52,123.59,585.06,127.45,585.06,133Z" fill="#2e2d62"/><path d="M598.69,144.09a10,10,0,0,1-10.17-10.21,10.2,10.2,0,0,1,10.37-10.29,9.63,9.63,0,0,1,9.61,7.56H603a4.66,4.66,0,0,0-4.26-2.7,5.4,5.4,0,0,0,0,10.78,4.65,4.65,0,0,0,4.1-2.41h5.51A9.77,9.77,0,0,1,598.69,144.09Z" fill="#2e2d62"/><path d="M611.6,118.16a3.42,3.42,0,1,1,3.45,3.38A3.46,3.46,0,0,1,611.6,118.16Zm6,25.73h-5.15v-20.1h5.15Z" fill="#2e2d62"/><path d="M627.28,115.35v28.54h-5.23V115.35Z" fill="#2e2d62"/><rect y="17.76" width="141.73" height="141.73" fill="#2e2d62"/><path d="M126.13,33.36H109.61L87.39,57V33.36H55.29v31.4c0,6.73-5,10.63-11.58,10.63s-11.59-3.9-11.59-10.63V33.36H15.6V65C15.6,79.18,27,87.31,40,88.63H15.6v55.26H32.12V123.41h7.22l15.27,20.48h71.52V132.73H106.76V99.79h19.37V85.21L102.45,61l23.68-24.17ZM70.87,71.72V97.36c-3.52-5.94-11.62-8.7-23.63-8.73C58,87.54,67.87,81.76,70.87,71.72ZM32.12,99.79H47.24c6.22,0,8.74,2.41,8.74,6.19s-2.52,6.27-8.74,6.27H32.12Zm58.12,32.94H70.87v7.75L57.23,122.61C67.61,120.7,73,115.33,73,106a18.57,18.57,0,0,0-1-6.19H90.24Zm19.37-44.1H87.39V64.9Z" fill="#fff"/><path d="M271.5,17.77A119.29,119.29,0,0,0,276.32,0H141.73V159.49h68.06l-48.86-64C219.34,84.7,256.55,59.36,271.5,17.77" fill="#fbbb10"/><path d="M283.46,17.77h-12C256.55,59.36,219.34,84.7,160.93,95.45l48.86,64h73.67Z" fill="#f08900"/></svg>