<svg xmlns="http://www.w3.org/2000/svg" viewBox="0 0 305 320">
<path d="M1,0v320h304V0H1z M257,120c0,6.6-5.4,12-12,12h-11.4c-6.9,23.6-21.7,47.4-42.7,69.9c8.4,6.4,17.1,12.5,26.1,18
	c5.5,3.4,7.3,10.5,4.1,16.2l-7.9,13.9c-3.4,5.9-10.9,7.8-16.7,4.3c-12.6-7.8-24.5-16.1-35.4-24.9c-10.9,8.7-22.7,17.1-35.4,24.9
	c-5.8,3.5-13.3,1.6-16.7-4.3l-7.9-13.9c-3.2-5.6-1.4-12.8,4.2-16.2c9.3-5.7,18-11.7,26.1-18c-7.9-8.4-14.9-17-21-25.7
	c-4-5.7-2.2-13.6,3.7-17.1l6.5-3.9l7.3-4.3c5.4-3.2,12.4-1.7,16,3.4c5,7,10.8,14,17.4,20.9c13.5-14.2,23.8-28.9,30-43.2H77
	c-6.6,0-12-5.4-12-12v-16c0-6.6,5.4-12,12-12h64V76c0-6.6,5.4-12,12-12h16c6.6,0,12,5.4,12,12v16h64c6.6,0,12,5.4,12,12V120z"/>
</svg>
