<svg xmlns="http://www.w3.org/2000/svg" viewBox="0 0 512 512">
<g>
	<path d="M345,160C330.5,70.7,296.3,8,256.5,8s-74,62.7-88.5,152H345z"/>
	<path d="M185.7,18.4C114.3,39.6,56.3,92.1,27.8,160h108C144.5,103.1,161.3,52.2,185.7,18.4z"/>
	<path d="M485.2,160c-28.6-67.9-86.5-120.4-158-141.6c24.4,33.8,41.2,84.7,50,141.6H485.2z"/>
	<path d="M160.5,256c0,22.2,1.2,43.5,3.3,64h185.3c2.1-20.5,3.3-41.8,3.3-64s-1.2-43.5-3.3-64H163.8
		C161.8,212.5,160.5,233.8,160.5,256z"/>
	<polygon points="185.8,18.4 185.7,18.4 185.8,18.4 	"/>
	<path d="M327.3,493.6c71.4-21.2,129.4-73.7,158-141.6h-108C368.5,408.9,351.8,459.8,327.3,493.6z"/>
	<path d="M496,192H381.2c2.1,21,3.3,42.5,3.3,64s-1.2,43-3.3,64h114.6c5.5-20.5,8.6-41.8,8.6-64S501.4,212.5,496,192z"/>
	<path d="M135.8,352h-108c8.1,19.2,18.5,37.1,30.9,53.5c-13.8,48.4-53,90.6-53.5,91c-2.2,2.3-2.8,5.7-1.5,8.7S7.8,510,11,510
		c53.1,0,95.5-20.4,122.9-38.6c16.2,9.3,33.6,16.7,51.9,22.2C161.5,459.8,144.7,408.9,135.8,352z"/>
	<path d="M168,352c14.5,89.3,48.7,152,88.5,152s74-62.7,88.5-152H168z"/>
	<path d="M131.8,320c-2-21-3.2-42.5-3.2-64s1.2-43,3.3-64H17.1c-5.4,20.5-8.6,41.8-8.6,64s3.2,43.5,8.6,64H131.8z"/>
</g>
</svg>
