<svg xmlns="http://www.w3.org/2000/svg" viewBox="0 0 128 128">
<path d="M114.7,64l11.5-11.2c1.7-1.7,2.2-3.6,1.5-5.9c-0.7-2.2-2.1-3.6-4.2-4.1l-15.7-4l4.5-15.5c0.7-2.3,0.2-4.3-1.5-6
	c-1.7-1.7-3.7-2.2-6-1.5l-15.5,4.5l-4-15.7c-0.5-2.2-1.9-3.6-4.1-4.2c-2.2-0.7-4.2-0.2-5.9,1.5L64,13.5L52.8,1.8
	c-1.5-1.7-3.4-2.2-5.7-1.6s-3.7,2-4.2,4.4l-4,15.7l-15.5-4.5c-2.3-0.7-4.3-0.2-6,1.5c-1.7,1.7-2.2,3.7-1.5,6l4.5,15.5l-15.7,4
	c-2.2,0.5-3.6,1.9-4.2,4.1s-0.2,4.2,1.5,5.9L13.3,64L1.8,75.2c-1.7,1.7-2.2,3.6-1.5,5.9s2.1,3.6,4.2,4.1l15.7,4l-4.5,15.5
	c-0.7,2.3-0.2,4.3,1.5,6c1.7,1.7,3.7,2.2,6,1.5l15.5-4.5l4,15.7c0.5,2.3,1.9,3.8,4.1,4.4c2.2,0.6,4.2,0,5.9-1.6L64,114.7l11.2,11.5
	c1.5,1.7,3.4,2.2,5.7,1.6c2.3-0.6,3.7-2,4.2-4.4l4-15.7l15.5,4.5c2.3,0.7,4.3,0.2,6-1.5c1.7-1.7,2.2-3.7,1.5-6l-4.5-15.5l15.7-4
	c2.2-0.5,3.6-1.9,4.2-4.1c0.7-2.2,0.2-4.2-1.5-5.9L114.7,64z M87.5,78.1c0.8,0.8,1.3,1.9,1.3,3.1c0,1.2-0.4,2.3-1.3,3.2l-3.1,3.1
	c-0.9,0.8-2,1.3-3.2,1.3c-1.2,0-2.2-0.4-3.1-1.3L64,73.4L49.9,87.5c-0.8,0.8-1.9,1.3-3.1,1.3c-1.2,0-2.3-0.4-3.2-1.3l-3.1-3.1
	c-0.8-0.9-1.3-2-1.3-3.2c0-1.2,0.4-2.2,1.3-3.1L54.6,64L40.5,49.9c-0.8-0.8-1.3-1.9-1.3-3.1c0-1.2,0.4-2.3,1.3-3.2l3.1-3.1
	c0.9-0.8,2-1.3,3.2-1.3c1.2,0,2.2,0.4,3.1,1.3L64,54.6l14.1-14.1c0.8-0.8,1.9-1.3,3.1-1.3c1.2,0,2.3,0.4,3.2,1.3l3.1,3.1
	c0.8,0.9,1.3,2,1.3,3.2c0,1.2-0.4,2.2-1.3,3.1L73.4,64L87.5,78.1z"/>
</svg>
