<svg xmlns="http://www.w3.org/2000/svg" viewBox="0 0 128 128">
<path d="M122,25.2c-1.3-2-3.2-3.4-5.5-4.2h0.2l-48-20c-3.2-1.3-6.2-1.3-9.2,0l-48,20c-2.3,0.8-4.2,2.2-5.5,4.2S4,29.5,4,32
	c0,15.7,2.8,30.4,8.5,44.2c5,12.3,11.9,23.1,20.8,32.2c8,8.5,16.8,14.7,26.3,18.5c3,1.3,6,1.3,9,0c8.3-3.3,16.3-8.8,24-16.3
	c9.2-9,16.5-19.5,22-31.5c6.3-14.3,9.5-30.1,9.5-47.2C124,29.5,123.3,27.2,122,25.2z M87.5,76.5c0.8,0.8,1.3,1.9,1.3,3.1
	s-0.4,2.3-1.3,3.2l-3.1,3.1c-0.9,0.8-2,1.3-3.2,1.3s-2.2-0.4-3.1-1.3L64,71.9L49.9,85.9c-0.8,0.8-1.9,1.3-3.1,1.3s-2.3-0.4-3.2-1.3
	l-3.1-3.1c-0.8-0.9-1.3-2-1.3-3.2s0.4-2.2,1.3-3.1l14.1-14.1L40.5,48.4c-0.8-0.8-1.3-1.9-1.3-3.1s0.4-2.3,1.3-3.2l3.1-3.1
	c0.9-0.8,2-1.3,3.2-1.3s2.2,0.4,3.1,1.3L64,53L78.1,39c0.8-0.8,1.9-1.3,3.1-1.3s2.3,0.4,3.2,1.3l3.1,3.1c0.8,0.9,1.3,2,1.3,3.2
	s-0.4,2.2-1.3,3.1L73.4,62.5L87.5,76.5z" fill="#9b2923"/>
</svg>
