<svg xmlns="http://www.w3.org/2000/svg" viewBox="0 0 100 100"><path d="M95.5 26.7C92.7 23.7 80 3.8 67.5 5 26-14.2-12.5 30.2 5.2 66.1c-3.1 23.2 48.8 46 63 25.2 12.6 2.4 27.5-14 26.8-27.9 1.1-.2 2.2-.8 3.2-2.4-2.1-.3-2-.3 0 0 4.1-10.9-7.2-32.1-2.7-34.3zM88 27.8c0-.1.1-.1.1-.2-.1 0-.1.1-.1.2z" fill="#9b2923"/><path d="M31.8 20.5c-.8 2.1-1.5 4.1-2.3 6-1.2-.2-2.6-.4-4.1-.6-1.8 1.6-3.7 3.1-5.5 4.7-.2 1.1-.1 1.9.1 2.7-1.6 3.1-1.2 8-5.2 8.9 3.2 3.9 2.6 8.5 2.3 13.2 1 1.2 13.5 18.2 15.3 18.9 19.7 7.9 33.4 4.8 31.8-5-.1-.2 15.3-1.1 14.6-14.5-.5-10 .4-20.1-14.9-34-8.8-4.5-25.6-7.3-32.1-.3z" fill="#568eae"/><path d="M81.3 36.1c-1.1-.9-3.1-4.2-3.4-2.8-3-6.4-10.8-7.1-12.1-13.7-3.3-.6-6.7-1.2-10-1.8l6.6 2.4c-.6 2.3-1.4 4.8-2.1 7.3-.1.1-.9-2.7-1.3-3.5-3.4 3.2-8.1 4.6-12.5 3.9-3.1 1.2-6.3 2.5-9.4 3.7.1.4-3.5-1.4-6.5-3.4 5.5 7.8-.1 12.6-4.2 18.9.3 0 .8 1.2.9 1.7 1.2.6 2.3 1.2 3.5 1.8.3-1.5 4 8.3 3.2 8.4-.2.7-.7 2.6-1.2 4.4-.5-2-.8-2.7-1-3.5-.5.1-2.1-.5-2.6-.4-.4.1-.7.5-.8.9-.1 1.4-.3 4.1.2 7.1-2.6-2.9-5.3-5.8-7.9-8.6-.3 0-.5-.1-.8-.1-1-1.2-1.9-2.4-2.9-3.6-1 6.6 1.5 12.2 6.4 16.5.7 6.3 6.9 3.3 9.6 5.4-.3 2-.5 3.5-.7 5.1l1.2.3c.5-.6 1-1.3 1.5-1.9-.1.4-.1.8-.2 1.2 3.9.6 7.7 1.1 11.6 1.7-.1 0-.1-.1-.2-.1.7.2 1.4.3 2.1.2 5.6.6 11.5-3.5 16.3 1 1.3-4.4 2.4-7.8 2.3-12.4 10 3.3 11.8-6.9 16.3-13.4-3.3-7.9 1.2-15.1-1.9-22.7zm-13.8-9.6c7 2.7 5.2 9-.4 12.7-2-10-2-10 .4-12.7zm7.2 13.1c-1.9 2.5-4.4 4.5-6.7 5.9.6-3.8 3.2-5.8 6.7-5.9zM37.5 75.8c3.2-9.8 17.1 3.4 19.3-9v-.1c.4 2.2 1.4 4.1 2.5 6.1-4.9 6.8-13.6 1.3-21.8 3zM70.2 65c.1.4.3.8.4 1.2-13.8 1.4-.9-17.3 6-12.9 1.6 4-3.7 8.9-6.4 11.7z" fill="#497c9b"/><path d="M66.7 46.2c-.3 0-.6-.1-.9-.1-.4-1.9-.8-3.6-1.2-5.8-.7 1.1-1.2 1.9-1.7 2.7-1.6-2.8-3-5.3-4.4-7.9-1.1.2-2.2.3-3.3.5-.1-.3-.2-.5-.3-.8-6.9-.6-12.3-5-15.1 5.8 0 0-1.8 1.7-2.7 2.5 0 0-5.3 3.2-5.4 3.2-1.4 4.6-3 13.8 1.9 13.8 1.1 0 2.1.4 2.9 1 .8.8 2.7 3 2.7 3s.9.7 1.7 1c.1 0 .2-.1.3-.1 3.1 2.8 12.2 3.3 15.9-.1 2.9-3.5 8.9-5.2 8-10.6.4-2.6 1-5.3 1.6-8.1z" fill="#d7cfbf"/></svg>