<svg xmlns="http://www.w3.org/2000/svg" viewBox="0 0 100 100">
<style type="text/css">
	.st0{fill:#9B2923;}
	.st1{fill:#568EAE;}
	.st2{fill:#497C9B;}
	.st3{fill:#D7CFBF;}
</style>
<path class="st0" d="M95.5,26.7C92.7,23.7,80,3.8,67.5,5C26-14.2-12.5,30.2,5.2,66.1c-3.1,23.2,48.8,46,63,25.2
	c12.6,2.4,27.5-14,26.8-27.9c1.1-0.2,2.2-0.8,3.2-2.4c-2.1-0.3-2-0.3,0,0C102.3,50.1,91,28.9,95.5,26.7z M88,27.8
	c0-0.1,0.1-0.1,0.1-0.2C88,27.6,88,27.7,88,27.8z"/>
<g>
	<path class="st1" d="M31.8,20.5c-0.8,2.1-1.5,4.1-2.3,6c-1.2-0.2-2.6-0.4-4.1-0.6c-1.8,1.6-3.7,3.1-5.5,4.7
		c-0.2,1.1-0.1,1.9,0.1,2.7c-1.6,3.1-1.2,8-5.2,8.9c3.2,3.9,2.6,8.5,2.3,13.2c1,1.2,13.5,18.2,15.3,18.9c19.7,7.9,33.4,4.8,31.8-5
		c-0.1-0.2,15.3-1.1,14.6-14.5c-0.5-10,0.4-20.1-14.9-34C55.1,16.3,38.3,13.5,31.8,20.5z"/>
</g>
<path class="st2" d="M81.3,36.1c-1.1-0.9-3.1-4.2-3.4-2.8l0,0c-3-6.4-10.8-7.1-12.1-13.7c-3.3-0.6-6.7-1.2-10-1.8
	c2.2,0.8,4.4,1.6,6.6,2.4c-0.6,2.3-1.4,4.8-2.1,7.3c-0.1,0.1-0.9-2.7-1.3-3.5c-3.4,3.2-8.1,4.6-12.5,3.9l0,0
	c-3.1,1.2-6.3,2.5-9.4,3.7c0.1,0.4-3.5-1.4-6.5-3.4c5.5,7.8-0.1,12.6-4.2,18.9c0.3,0,0.8,1.2,0.9,1.7c1.2,0.6,2.3,1.2,3.5,1.8
	c0.3-1.5,4,8.3,3.2,8.4c-0.2,0.7-0.7,2.6-1.2,4.4c-0.5-2-0.8-2.7-1-3.5c-0.5,0.1-2.1-0.5-2.6-0.4c-0.4,0.1-0.7,0.5-0.8,0.9
	c-0.1,1.4-0.3,4.1,0.2,7.1c-2.6-2.9-5.3-5.8-7.9-8.6c-0.3,0-0.5-0.1-0.8-0.1c-1-1.2-1.9-2.4-2.9-3.6c-1,6.6,1.5,12.2,6.4,16.5
	c0.7,6.3,6.9,3.3,9.6,5.4c-0.3,2-0.5,3.5-0.7,5.1c0.4,0.1,0.8,0.2,1.2,0.3c0.5-0.6,1-1.3,1.5-1.9c-0.1,0.4-0.1,0.8-0.2,1.2
	c3.9,0.6,7.7,1.1,11.6,1.7c-0.1,0-0.1-0.1-0.2-0.1c0.7,0.2,1.4,0.3,2.1,0.2l0,0l0,0c5.6,0.6,11.5-3.5,16.3,1
	c1.3-4.4,2.4-7.8,2.3-12.4c10,3.3,11.8-6.9,16.3-13.4C79.9,50.9,84.4,43.7,81.3,36.1z M67.5,26.5c7,2.7,5.2,9-0.4,12.7
	C65.1,29.2,65.1,29.2,67.5,26.5z M74.7,39.6c-1.9,2.5-4.4,4.5-6.7,5.9C68.6,41.7,71.2,39.7,74.7,39.6z M37.5,75.8
	c3.2-9.8,17.1,3.4,19.3-9v-0.1c0.4,2.2,1.4,4.1,2.5,6.1C54.4,79.6,45.7,74.1,37.5,75.8z M70.2,65c0.1,0.4,0.3,0.8,0.4,1.2
	c-13.8,1.4-0.9-17.3,6-12.9C78.2,57.3,72.9,62.2,70.2,65z"/>
<path class="st3" d="M66.7,46.2c-0.3,0-0.6-0.1-0.9-0.1c0,0,0,0,0,0c-0.4-1.9-0.8-3.6-1.2-5.8c-0.7,1.1-1.2,1.9-1.7,2.7
	c-1.6-2.8-3-5.3-4.4-7.9c-1.1,0.2-2.2,0.3-3.3,0.5c-0.1-0.3-0.2-0.5-0.3-0.8c-6.9-0.6-12.3-5-15.1,5.8c0,0-1.8,1.7-2.7,2.5
	c0,0-5.3,3.2-5.4,3.2c-1.4,4.6-3,13.8,1.9,13.8c1.1,0,2.1,0.4,2.9,1c0.8,0.8,2.7,3,2.7,3s0.9,0.7,1.7,1c0.1,0,0.2-0.1,0.3-0.1
	c3.1,2.8,12.2,3.3,15.9-0.1c2.9-3.5,8.9-5.2,8-10.6C65.5,51.7,66.1,49,66.7,46.2z"/>
</svg>
