<svg xmlns="http://www.w3.org/2000/svg" viewBox="0 0 600 300"><path d="M600,314.24,0,198V0H600Z" fill="#c3c1a8"/><path d="M0,317V109.35L190.31,305.92Z" fill="#dad8c7"/><path d="M420.31,307.3,600,128.75V0L0,300.4Z" fill="#dad8c7"/><path d="M600,317V109.35L409.69,305.92Z" fill="#d2d0c1"/><path d="M179.69,307.3,0,128.75V0L600,300.4Z" fill="#eae9da"/><g opacity="0.7"><path d="M241.9,214.73a29.36,29.36,0,0,1,58.71,0v.61H433s-15.1-83.08-91.34-141.9c-67.3-51.91-113.06-34.54-135.48-22-17.38,9.73-34.08,41.82-22.4,58,9.34,13,36.85-7.71,39.46,5.38,1.82,9-21.83,27.29-41.26,63.69s-14.48,36.86-14.48,36.86h74.38C241.91,215.14,241.9,214.94,241.9,214.73Z" fill="#96947e"/><path d="M286.6,215.35v-.61a15.37,15.37,0,0,0-30.73,0v.61Z" fill="#96947e"/><rect x="157.75" y="224.58" width="284.5" height="37.18" rx="3.41" fill="#96947e"/></g></svg>