<?xml version="1.0" encoding="utf-8"?>
<!-- Generator: Adobe Illustrator 25.0.0, SVG Export Plug-In . SVG Version: 6.00 Build 0)  -->
<svg version="1.1" id="Layer_1" xmlns="http://www.w3.org/2000/svg" xmlns:xlink="http://www.w3.org/1999/xlink" x="0px" y="0px"
	 viewBox="0 0 1000 715" style="enable-background:new 0 0 1000 715;" xml:space="preserve">
<style type="text/css">
	.st0{opacity:0.2;}
	.st1{fill:#A3A295;}
</style>
<g class="st0">
	<path class="st1" d="M464.7,324.9c1.1,2.1,1.1,4.9,3.5,6.6c2.1-2,4.2-4.1,6.6-6.4c-24.6,47.9-49.7-60.6-40.7-82.8
		c-17.1,46.3,12.9,98.4,16.8,142.5c-10.4-6.6-3.8-23.1-14.8-28.7c-3.6,13.2,9.5,27.5,1.7,39.9c-10.1-8.7-0.6-24.7-12.9-33.1
		c-7.1-15.3-0.6-37.2-2.5-54.5c1.9-32.4,12.9-58-18.3-78.8c-7.8,2.9-15.1,1.3-22.7-1.1c1.2-3.2,2.9-3.1,5-1.9c0.9-1.5-2.5-2.3,0-4.2
		c1.4,1.7,2.9,3.5,4.9,5.9c-1.1-3.2-2-5.7-3-8.5c3.1,0.5,2.7,3.4,4.5,5c1.1-1.8,0.9-4,2.8-5.4c2,0.1,2.1,2.9,3.8,3.9
		c1.2-2.2-2.2-3.4-0.7-5.8c4.1,2.9,10.3,3.9,7.1,11.7c2.7-0.5,4.1-1.2,5.3-2.5l-0.1,0.1c21.2,2.5,2.1-28.9-11-24.1
		c-3,0.2-3,0.2-4.8-1.8c-7.9,10.7-12.5-9.6-1.9-11c-0.5,2.8-3.8,3.8-3.1,6.7c20-11.9,23.5,20.7,39.6,19.3c-5.6-5-8.9-10.8-12.3-16.8
		c3-2.1,5.3,1.3,8.2,0.2c-3.6-2.4-5.2-7.5-11.2-5.7c4.3-3.4,8.1-4.4,12.1-0.9c0.7-1.9,0.5-4.9,5.1-3c-3.4-4.6-4.1-9.5-9.4-10.4
		c1.2-2.9,3.1-0.3,4.6-1.3c1.7-5,3.4-10.3,5.3-16c4.7,8.2-8.3,17.5,1.4,26.2c1.4-2.1-0.3-5.4,2.7-6.6l-0.1-0.1
		c4.5,15.4-8,35,5.6,47.6c-0.6,2.5-3.2,3-4.8,4.7c12.2,2,30-5,44.7-3.6c7.2-3.2,20.2,5.7,23.6-2c-5.4,2.7-7.5-3-11.4-4
		c-7.5,0.5-18,2.7-23.3-3c-0.2-0.8-0.3-1.6-0.5-2.5c8.3,7.5,5.8-12.7,15.6-2.2c3.4-6.6,4.6-6.3,11,2.2c6.6-0.8,2.2-6.9,4.8-11.2
		c0.8,5.6,2.9,9.1,5.5,12.8c1.5-8.3-4.3-14.6,0.2-22.6c2.7,1.6,0.6,2.8,0.9,4.4c3.7-0.5,4.5,3.1,7.2,4.9c-1.2-2.5-2.5-5-3.7-7.4
		c1.1-1,1.7,0.2,2.5,0.1c0.3-1.9-2-2.6-2-4.6c5.9-1.1-0.5-4,0.7-6.2c2.6,0.5,2.9,3,4.7,4.5c6.9-2-3.5-9,2.6-8.6
		c-0.6-5.3-6.6-8.2-6.8-14.2c3.5,0.2,4.4,2.6,5.6,6.6c2.4-6.4-2.8-11.5-0.2-16.8c8,10.9,8.3,25.4,7.8,36.9
		c-0.8,6.7-2.8,11.8-1.5,18.4c9.3-3.3,18.4-8,28.4-0.7c-0.3-3.9-3.1-4.9-3.6-7.5c-2.7,4.4-4.9,0-7.7,0.4c5.1-2.4,4.2-7.5,6.1-11.3
		c-2.2,0.7-2.9,3.3-5.5,3.8c-0.9-6.6,1.5-11.9-2.9-18c0.8-1.1,1.8-2.3,2.9-3.7c-7-0.3-2.8-1.3-2.5-5.2c-8.9-9.2-11.3-25.5-17.6-37.1
		c-5.9-3.1-7,6.8-11.8,2.4c3.4-5.2-0.2-9.6-2.3-14.4c2,12.5-4.2,45.4-20.9,41.3c5.3-0.6,3.4-4.9,5.4-7.3c4.6,2.4,10.2-10.3,7.7-15.1
		c-0.3-4,6.8-5.2-1.5-6c1.9-2.9-1.8-4-2.7-6.5c4.8,3.9,9.6,0.1,4.5-5.4c-2.6-3.3-6.8-4.3-7.4-7.8c-3.8,3.6-14.4,2.2-19.5-2.5
		c20.6-3.9,23.7-9.1,25.5-29.2c-4.8,6.7-4.8,6.7-9.3,4.7c-1.7,0.2-0.9,2.8-2.7,3c-0.5-7,2-10.4,8.6-11.6c-2.7-4.1-19.5-6.6-26.2-3.9
		c4.2-9,32.5-4.9,32.6,9.1c5.5-7.7-9.5-17.4-16-15.7c0.8-8.4-7.9,0.6-13.5-0.1c6.5-7.2,17.7-3.4,11.4-16.8c0.9-1.7,2.8,0.6,3.7-2.2
		c-4.5-1.8-9.2-3.6-14.5-5.6c1.5-6.7,14.7,0.6,5.6-10.8c2.5-3.3,4.5,5.2,7.1,0c-7.2-4.8,7-4.9,5.4,2.1c1.7-0.4,3-1.3,4.6-0.5
		C492.6,31.4,491,24,484.5,20c4.6-4.2,10.8,5.2,15.6,1c-0.5-5.1-5.9-3-9.2-6.5c18.8-2.8,20.1,13.4,30.6,23.2c4.3,1.6,2.7,5.8-1.5,4
		c-5.9-1.1-7.2-9.6-13.6-11.9c-2.8,5.3,5.4,7.8,3.1,12.8c3.7,2.7,7,6.2,11.9,4.8c-1.7,8.4,0.5,2.3,5.5,7.5
		c-3.7-0.2-7.1-1.6-10.7,0.6c2.8,3.3,8.2,4.3,7.6,10.5c-2.5-4.8-11.2-6.4-14.1-3c8.6,2.7,11.4,10.3,17.2,16.2
		c-5,0.2-7.2-4.1-10.8-6.7c-1.9,4.4,1.8,4.8,4.2,6.4c-4.4,5.1,4.7,7.2,2.8,11.9c-2.1,1.1-2.2-2-4.3-1.2c1.1,6.8,8.4,8.5,11.6,13.3
		c-7.1,1.2-9.7-5.8-15.1-8.5c5.9,9,6.2,13.9,17.4,18.1c-6.5,4.5-15.3-6.2-23.5-4.9c0.7,3.8,5.2-0.3,6.3,3.3
		c-4.4,1.2-8.1-0.3-11.9-3.2c2,5.8,2.2,9.1-4.1,6c-0.9,2.7,2.8,3.9,2.1,6.7c34.3,1.9,37.1,44.4,55.4,63.5c-1.8,2.6-3.5,4.9-5.4,7.6
		c14.2-13.5,13,11.6,9.9,21.6c-14.1,17.5,14.7,34.4,4.2,49.7l0.2-0.2c-1.9,0.8-2.8,3.2-5,3.6c-0.2-3.4,4.7-4.3-0.9-5.2
		c-0.3-2.7,3.3-3.2,3.7-5.9c-3.4,1.9-2-0.2-1.5-2.9c-1.4,1.1-2.6,2.1-3.8,3.1c1.1-2.7-3.5-4.5-0.3-7.2c-2.5-0.1-2.7,2.2-4.8,2.3
		c-1-4.1-2.1-8.1,2.1-11.3c-1.4-1.2-2.1,1.5-3.5-0.2c-0.1-2.2,2.9-2.1,3.5-4c-1.3-0.2-2,1.9-3.9,0.9c0.7-2.3-1.7-5.5,2.5-6.9
		c-2.9-1.1-6.2,1.2-2.5-3.3c-1.2,0.4-2.1,0.6-4.4,1.3c2.6-2.5-0.6-5.4,3.9-7c-8.7-2.4-16.4-2.8-24.4-2.5
		c-5.6,39.8,29.8,78.9,29.9,121c-8.5,13.1-0.8,30.1-7,45.4c0.2,8.4-10.6,20.2-2.3,26.1c-12.2-1.9-6.4,22.6-1.1,28.4
		c4-5.6,7-12.3-1.6-13.5c1.4-2.1,2.5-4.5,6-0.8c0.2-12.6,4-24.8,5-38.1c4.8-7.1,7-12.5,6.8-20.9c-3,4.4,0,11.4-7,15.1
		c8.9-28.3,7.6-57.6-1-83.8c4.7,8.5,8.1,17.4,9.4,27.1c9.5-0.3,15.7,7.5,24.6,7.7c-7.5-2.4-14.7-10.7-1.7-8.6
		c2.9-6.8-3.9-6.8-6.6-9.8c3.6-4.8,5.1,1.5,8.2,1.3c1.2-3.1,1.2-6.5,1.5-10.4c-23.7,11.7,8-44.1,13.8-53.4
		c1.4,21.7,2.9,43.3,4.3,65.1c-7.1,0.4-6-7.3-11.1-8.6c-0.4,3-0.8,6.2-1.1,8.8c21.5,11.1,17.1,26.9,12.5,46.7c2.5-5,9-4.2,6,1.9
		c2.5-0.5,2-2.6,3.2-3.5c4.9,1.7,5.3,1.2,5.3-5.3c-1.7,0.3-1.9,2.9-4.3,2.6c0.5-13.8,11-1.2,11.3,6.3c1.9-4.1-3.5-8,1-10.8
		c2.3,0.2,3.1,5.6,6.2,1.7c-0.4-2-2.6-0.3-3.2-1.7c2.8-3.9,6.8-2.6,11,3.7c-1.7,2.8-4.9,4.5-5.9,8.5c7.1,2.4,3.9,12.5-2.6,7.8
		c-1.7-0.8-3.3-3-4.4,0.9c7.7-1.8,2.8,4.1,3.9,6.3c9.2,1.4,10,2.8,7.4,12.7c6.5-0.9,6.1,4.7,7,8.2c1.4,5.5-5.5,0.9-5.9,4.6
		c-3-1.5-4.2-4.8-8.5-5.2c3.4,3.9,8.6,8-1.2,10c5.8-0.5,10.5-4.9,16.5-1.9c-2.6-5.4,5.6-12.2,7.9-7c1,6.2,12.2,8.2,4.2,14.1
		c-11.6,8.8,4.7,8.5,3.8,16.5c-1.7,0.9-4.3,0.2-5.6,2.4c1.3,3.8,1.3,3.8-2,5.4c4.5,3.7,10.7,1.9,15.3,4.2c1.1,2.2-0.9,2.9-1.4,4.5
		c3.3-0.9,4.6,2.5,7.9,3.4c1.8-14.4-10.8-12.8-9.6-26.1c-7.5-48.5,29.8-12.5,52.4-68.8c11.4-5,18.3,25.1,26.1,33.1
		c8.7,9.6,32.5,5.1,32.4,23.2c-1.9-8.1-12.2-1.2-11.5-7.7c-2.4-0.1-3.5,4.5-6.3,0.1c-0.2,0.6-0.3,1.1-0.5,1.7
		c2.9,2.7,5.8,5.3,8.9,8.1c-39.8,11.5-10.5-21.4-44.9-15.5c1.8,2.2,0.1,4.6,0.5,6.9c4.7,1.8,10.1-0.6,15.9,2.4
		c-4.9,1.4-8.9,0.1-12.8,0.8c-1.2,1.6,0.6,3.5-0.5,5.6c-3.1,1.1-6.5,0.5-9.7,0c-1.2-2.2-0.4-4,0.3-5.9c-4.7-1.2-5-4.8-6.7-3.4
		c-0.6,5.3-4.2,1.7-6.4,2.1c-7.9-1.5-7.3,5.3-1.2,7.9c-34.3,6-25.1,1.8-9.3-20.2c-2.7-0.8-4.9-0.3-6,1.2c-4.3,6.9-15.3,0-18.3,6.8
		c-5.3,10.9,10.9,16.9,5.5,28.9c1.7,0.5,1.3-1.4,2.7-1.5c-0.1,7.5,6.5,5.5,10.4,7.5c2-2-0.5-4.8,1.8-6.8c2,13.8,17.8,7.2,28,9.4
		c7.7,1.3,4.5-4.5,7.1-8.5c2.8,2.2,0.2,5.6,1.9,8.7c7.2-0.3,14.7-0.7,22.4-2.3c0.9-3.9-3.5-6.7-1.7-11.1
		c-12.4-0.6-24.3,0.8-36.1-0.8c21.9-5.2,48.2,4,65.9-14.3c1,8.5,6.2,22.7-5.4,24.4c0.5,19.4,1,38.3,1.6,57.8
		c13.9-6.7,19.6-22.6,36.3-23.5c-12.9,18.6-20.1,39.3-24.8,61.8c7,2.7,12.3-2.4,19.9-3.4c-4.7-1.1-8.5,0.4-11.9-1.6
		c10-2,21.3-2.2,27.3-13.3c-0.9,7.8,5.7,7.6,8.4,14.9c3.1,5.6,13.7-2,18.5-1.7c-1.2,3.8-3.6,5.1-9.7,5.6c2,7.9,1.6,8.8-4,7.6
		c1.5,11.8,23,11.2,2.5,18.9c-2.1-2.1,1-3.7,0.2-5.9c-9.5-1.2-18.4,3.5-27.7-1c-3.1,11.1-16.8,7-24.2,4.5c7.2,4.4-3.8,8.5-8.7,6.3
		c-0.3-1.6-1.2-3.2,0-5c1.8-0.2,3.7-0.4,5.5-0.6c-4.2-3.8,0.2-2.3,2.6-4.2c1.3-2.4-2.3-2.3-2.3-3.8c3.4-2.5,4.8,1.1,2.3-4
		c6.6-0.9,13.6,0.9,20.2-0.8c0.4-2.3-2.1-4,0-5.7c-1.3-1.1-3.5,0.6-3.9-1.8c2.6-3.1,6.1,0.6,9.4-0.9c-11.4-3.2-14.1-1.8-15.5,7.8
		c-4.7-1.2-5.1-6.8-9.5-8.9c-4.5,9.4-6.7,20.2-15.1,27.8h6.4c-8.1,7.7-27.2,2.2-33,11.9c6.5,7.7,17.5-5.4,25.8-5.1
		c0.9,2.3-1.7,2.2-1.5,4.5c7.3-2.3,14.5-6.4,23-1.3c-2.2-8.2,3.7-8.1,6.6-3.3c15.1-1.2,30.1-5.1,45.1-3.3c19.9-6.2,9-36.4,20-51.2
		c11.1-15.8,34.4-61.6,54.3-35.5c-6.5-2.8-14.4-2.3-15.5,6.4c7.3,2.4,10.6-0.9,15.4-6.5c4.6,2.2,1.4,8.1,5.4,10.7
		c1.8-0.1-0.1-2.7,1.9-2.7c6.3,6.6-8.6,17.9,0.2,22.5c-8.2,6.2,3.3,3.6,2.2,6.4c-12.1,4.4-5.7-6.8-9.2-11
		c-15.8,17.1-31.5,34.1-47.5,51.4c5.1,2.7,10.5,4.1,17.4,5.8c-2.7-3.5-6.7-4.9-6-9.7c4.5-4.4,6.1,2,9.4,3.8
		c3.1-4.1-5.6-7.3-2.7-11.8c2.6-3.3,6.1,1,5.8,4.1c4.7-1.6-0.9-8.6,2.5-12.4c2.6-7.7,5.8,0.1,7.2,3.7c2.9-2.3,5.7-18,8.2-5.8
		c3.3-3.9,6-0.5,9.4-0.5c-2.1,4.5-4.4,7.1-9.7,4.2c6.7,6.5-0.2,9.8-5.1,3.4c4.2,5.8,0.6,13.1-7.2,9.4c-1.2,1.6-1.3,3.7-3.4,4.4
		c13.8-3.6,5.3,14.7-2.7,3.5c-0.4,8.2,14.1,8.2,18.7,2.9c1.7-2.2,4.3,1.6,6.5,1.5c-2.4,4.2,1.9,8.1-5.9,9.2c0.6,1,1.2,2.1,2.1,3.6
		c1.9-1.1,3.8-2.8,5.7-0.4c1.7-2-2.5-3.5,0.2-5.1c6.1,2.2,11.1,7.2,18.1,8.4c-4.3-3.9-1.8-6.5,1.3-9c-2.5-4.5-3.6,2.5-6.2-0.1
		c-1.3-1.6,3.1-1.9,1.8-4.1c-3-0.9-2.4,3-5.6,4.2c2.4-4.7,3.5-8.8,3.3-13.2c6.6,6.6,10.4,5.5,10.7,14.3c-3.2-25.3,19.4-6.8,4.5,0.4
		c4.2,3.1,14.8-1.5,5,6.9c1.3,5.3,9.9,3.7,8.7,11.1c10.2-5.8,11.4,2.2,17.5,5.9c7.1,0.6,9.6,5.5,15.6,10.8
		c-3.9,1.1-8.1,0.2-11.2,2.4c-2.6-1.7-4-7.1-7-2.5c-2.7,5.1-4.8-1.4-1.3-3.7c-3.3-0.3-2.9,2.3-3.5,3.8c-2.2-0.1-0.9-2-2.1-2.9
		c-6,12.2-17.1-4.3-22.7,7.2c-4.6-9.8-18.9,1.1-25.8-4.1c1.9-2.9,5.4,1,7.2-2.3c-1.3-1.4-3.6,0.5-4.7-1.2c0.2-1.9,2.7-1.1,3.4-3.2
		c-4.4,1.9-5.3-2.9-8.8-3.4c2.5-4.1,7.6,0.9,9.7-3.5c-4.5-2.3-9.2,1.9-14.9-0.6c5-1.1,8.8-1.9,13.3-2.9c-9.7-6,5.1-8.8,9.5-4
		c1.5-0.9,0.7-2.4,0.9-4.1c-4.9,1.3-9.7-2-14.3,1.1c-6.4-7-14.4-1.5-22.2-0.2c-0.9-1.4,0.5-4.7-3.2-4.7c3.3-0.8,4.8-2.4,4.3-4.5
		c-8.6,2.4-17.6,3.3-26.6,5c1.2,3,5.6-1.2,6.1,2.7l0.1-0.1c-3.3,0.7-1,3.1-1.4,5c-4-0.3-7.9,0.8-11.7-0.9c1.3,4.9,0,5.1-5.7,3.8
		c1-1.3,1.6-2.2,2.3-3.1c-5.2-1.4-8.4,0.7-10.6,5.1c1.5,2.5,3.7-0.3,6,0.9c-1.6,2.1-3.1,4.1-4.7,6.1c0.1-3.8-1.5-5-4.7-3.9
		c0.6-10.4-10.1,5.3-16.6,3.3c-7.3,2.3-16.6,15.2-11.2,23c7.3,54.3-103.1-16.3-129.5,18.3c0.7,2.2,4.2,1.7,4.2,4.6
		c-16.7-3.7-32.6,12.5-47.7,20.3c13.5,10.5,34.5,7.1,50,16c4.6,1.5,2.9,9.1,11.9,4.3c8,20,25.7,19.4,38.6,3.4
		c11.7,1.4-5,17.2-12.4,16.8c-16,2-34.6-2.2-49-2.5c-7,5.4-11.4-0.6-16.3-3.7c1.8,8.8-5,2.6-7.3-1.6c1.1,5.6-4.5,5.3-6.9,5.4
		c-4.1,7.2-5-1.7-6.4-4.9c-0.6,2.9-1.1,5.1-1.6,7.6c-5-1.8-10.8,3.1-15.1-3.1c-3,2.8-5.6,2.4-7.7-1.4c-2.3,3-4.8,2.5-7.3,0.3
		c-4.2,4.9-21.4,8.1-23.1-0.4c-0.5,2.7-0.9,6-5.1,3.1c-1.5-2.6,0.8-7.3-3-8.9c0.2,3.1,2.2,6,0,8.6c-2.9,0.2-4-2.2-5.8-3.5
		c-3.6,3.6-40,5.6-46.8,1.1c-4.3,6.9-20.3,11.7-22.7,2.9c0.3,6-5.2,0.8-6.2,3.9c-1.5-0.8-0.5-2.6-2-3.1c-1.3,5.4-7.5,3.2-7.8-2.1
		c5.2,2,6.8,1.1,6.6-3.7c-2.9,3.7-4.4,3.4-12.7-2.7c2.5-1.3,2.5-1.3,5.9,1.1c-3.3-6.3-13.1-6.6-9.3-16.9l-0.2,0.2
		c2.8,1.4,3.5,5.8,7.8,6c-6.6-7.4,42.8-11.5,43.4-4.9c15.7-5.8,32.4-0.6,48.5-1.5c14.9-1.9,33.3-4.8,45.1,6.4
		c1.8-0.4-0.1-2.3,0.5-2.5c5.2,0.5,10.2-1.4,16.2-2.2c-13.1-5.4-26.9-7.9-40.9-13.6c17.7-14.7,43.5-19.1,57-34.6
		c7.2-0.3,9.3-1.7,11-7.5c2.6,2.4,7,1.2,11.3-3.6c-5.1,1.7-10-3.5-14.2,1.3c2.3-0.6,8.3,1.6,2.9,2.4c-6.8,0.5-11.4,7.5-20.3,2.2
		c1.8-0.2,3.6-0.4,5.7-0.7c-1.7-1.9-4.4,0.6-5.1-1.1c-0.8-3.5,0.4-5,1.6-7.7c-4.1,0.1-8.2-1.4-12.3-0.2c2.6,2.4,6.2-0.1,9.2,2.6
		c-3.4,2.6-6.5,1.5-9.7,0.9c-0.7,4.4-1.9,4.9-8.1,3.2c1.2-1.7,3.2-0.8,4.5-1.7c0.8-6,0.8-6-0.9-7.7c-2.2,1,0.4,2.7-0.8,4.2
		c-2.6,0.1-4.8,3-8.2,1.8c-0.2-2.8,4.1-4.6,1.6-7.7c-1.7,5-5.8,6.6-12.6,4.6c-1.1-1.2,0.8-2.4,0-3.6c-2.8,0.2-2.6,6.2-6.8,3.6
		c-0.7-2.5,2.3-1.5,2.7-3.5c-3,0.9-5.8,1.5-8.3-0.1c-2,0.9,0.4,3.3-2.4,3.8c-2.5-1.2-2.1-3.4,0.1-5.7c-1.1-2.3-4-2.1-4.3-4.7
		c-7.2,5.6-7.2,5.6-11.7,4.7c-0.4-4.1,5.8,0.8,5-4.1c-6-0.5-12.5,4.9-18.9,6.7c-10.6-3.7-21.5,3.3-31.9-1.2
		c-2.3-1.8-3.9,0.1-5.4,1.8c1.2,0.7,3.2-0.3,3.8,2.2c-3.8,1.2-7.7,0.9-11.3,1.1c-1.2-4.2,5.9-0.7,4.5-5.5c-5.8,6.2-14.4-1-18.6,6.5
		c-5-8.7-13.7,4.3-17.4-5.5c-3.8,8.8-12.5-1.3-19.7-0.3c0.1-2.6,3.6-0.8,3.3-3.5c-4,0.4-7.9,0.8-12,1.2c1.9,3.2,5.7-0.8,7.5,2.3
		c-0.6,2.3-3.8,0.3-4.2,2.8c1.7,1,3.7-0.9,5.6,0.4c-6.9,10.7-10.5-12.4-22.3-4.1c1.8,2.1,5-2,6.7,2.4c-11.4,1.4-22.7,1.2-33.9,3.5
		c-1-3.2,2.5-2.7,3.5-4.2c-1.2-6.3-1.6-6.5-6.2-4.2c1.1,1.5,2.8,0.1,4.4,1c-0.7,4-4.1,1.7-6,2c5,10.2-7-2.7-11.7,1.9
		c0.1-3,2.6-2.4,3-3.9c-2-2.3-4.1-1-6.4-0.1c0.7,1.1,1.3,2.1,1.9,3.1c-1.3,2.1-9.5,3.3-13,2.1c1.8-2.7,5.5-0.7,7.7-3.8
		c-16.6,3.7-33.5,4.8-50.1,8.2c5.4,0,5.4,0,2.4,8.6c-0.6-7.2-7.9-6.2-11.4-11.3c2.7,8-6.6,14.1-7.5,6.7c-7.7,8.1-16.8,1-25.7,2.2
		c5.9,6.7,16-0.4,21.2,7.3c-3,2.3-11,7.4-3.8,10.8c2.5-1,2.7-4.6,5.8-5.3c1.5,3.8-2.8,6.1-2.5,10.1c5.8-6.7,2.4,3.1,6.2,3.8
		c3.3,0.3,1.7-3.1,3.3-4.6c2.8,1.9,4.3,0,5.7-2.4l-0.1,0.1c7.4-7.4-3.9-16.8-11.7-12.5c-1.3-1.4-1.2-2.7-0.6-4.5
		c35.7-5.6,8,46.2-7.6,19.5c-8.9,0.6-23.6,1.9-29.9-2.3c-5.4-0.1-11.2-1.1-14.5,5.4c3.1,26.7-37.8-1.5-5.9-4.1
		c-13.4-4.2-27.7-2.2-38.4-12.4c12.8,2.5,25.5,6.3,39.1,3.7c0.1-3.3-1.1-8,5.3-8c-8.2-2.9-7,5.6-13.3,7.3c-1.4-4,4.1-5.2,4.3-10.2
		c-4,3.8-7,6.6-10,9.4c0.3-3.9,4-5.2,5.2-8.6c-12.8-6.4-17.8,4.1-26.2,2.1c0.3-2.5,3.4-3.2,4.2-6.3c-2.1,1.8-3.8,3.2-5.5,4.7
		c-1.1-2.2,1.5-2.6,1.4-4.1c-6-1.1-10.3,4.2-17.1,3.5c-3.3-4.8-7.7,0.2-12.9,1.2c7.9,2.9,15.6,2.2,22.8,4.1
		c-19.3,9.3-48.6-13.4-68.8-9.3c-1.2-2.4,1-2.1,1.8-2.9c-0.8-1.1-1.5-2.1-2.2-3.2c1.3-1.3,16,2.9,18.3,5.2c1.5-2.9,3.9-1.1,6.1-1.1
		c0.9-1.3,1.8-2.4,2.4-3.2c-0.3-5.4-7.5-4.4-6.9-9.8c-3.8,0.3-4.6,4.5-8,4.5c0.2-1.9,2.2-2.5,2.9-4.4c-0.2-1.2-3.5-1.6-1.7-4
		c-5.3,1.5-9.3,0.7-15.1-3c0.1-1.6,1.9-1.7,2.7-3.2c-5.2-1.2-4.9,6-9.5,2.7c-5.1-5.5-8.4,1.3-13.3,1c-0.1-2.1,2.3-2.2,2.9-3.8
		c-1.5-1-1.6-1-9.2,1.4c-0.4-2.3,1.5-2.9,3.1-3.7c-3.8-3.9-6.5,0.1-9.7,1c-0.3-1.9,2.1-2.2,2.1-3.6c-2.8-0.2-7.2,3.1-3.7-1.9
		c-2.3-2.9-4.7-2.2-6.8,0.1c-1.4-1.8,1-2.2,0.1-3.6c-1.4,1-2.7,1.9-4,2.9c-1.4-1.6,1-2.4,0.4-3.7c-2.3-0.8-3.4,1.6-5.4,2.1
		c-1.1-2.5-4.1-2.1-5.8-3.8c0.3-2,3.2-1.6,3-4.2c-4.8-3.4-7.7,4.6-12.2,7c0.4-5.9,4.9-7.4,8-10.1c-3.3-5-8.2-7.2-13.7-8.4
		c9.3,2.9,13.4,11.2,1.1,9.7c1.3,3.4,2.2,5.2-2.7,4.6c-0.6-2.8-4.3-3.1-4.8-6.1c2.6-2.2,7,1.3,9.4-3.1c-4.7,1.9-7.9-0.9-11.7-1.6
		c0.9-3.2,4.1-2.5,5-4.7c-14.6-4.6-6.5,13.4,2.3,15.4c15.5,10.6,37.2,18.1,53.1,24c5.3-0.2,16.2,3.9,18.7,7.8
		c-3.9,1.9-9-4.2-13.9,0.8c-1.4-4.1-9.3-6.1-11-2c-0.6,5.8-6.3,5.1-10.4,6.6c-3.9-7.9,11.3,0.1,8.5-10.9c-1.3,7-10.3-0.3-11.6,8.2
		c-1.5-3.7-2.5-6-3.7-8.9c4.1,0.2,8,3.8,11.6-0.1c-2.5-1.2-2.5-1.2-5.2,0.2c-4.7-6.8-15.7-0.1-24-0.7c2.7-5.2,8.8-2.4,12-6.8
		c-7.2,3.4-18.8-1.7-21,5.7c2.2,0.8,4.4-2,6.8-0.2c-0.3,2.3-5.3,1.7-3,5.4c-2.9,0.2-3.3-2.6-4.9-3.1c-2.6,3.8-1.5,5.2-5.5,0.7
		c-1.5,2.7-5.4,0.2-7.2,3c3.7,2.7,1,2.4-1.8,3.8c1.2,1.3,4.1-0.6,4.1,3.4c-3.9-2.5-7.4,0.1-11.7,1.3c1.2-4.1,4.6-4.4,4.9-7.3
		c-2.8-3.3-3.4,1.3-5.2,1.6c-1-6.1,5.1-11.4,14.4-12.7c0.7,2.1-2.9,3.8-0.8,6.3c6.5-3.7,4.9-16.5,15.4-11.7c0.7,1-1.5,2.1,0.2,3
		c3.6-0.8,7.6,0.1,11.8-2.9c-4.2,0.4-7.3,0.1-10.4,1.2c-0.3-2.5,2.1-2.8,2.7-4.4C107,599,101,601,95,603c-0.1,1.7,5.2,4-0.5,5.4
		c-3.2-5.2-7.2,2.2-11.1-0.1c-0.2-1.8,1.6-2.2,2.9-3.7c-8.5-2.9-3.5,7.8-11.6,6.2c-1.2-2.7,2.2-1.7,2.2-4.9c-5,2-21.4-0.6-14.7,8.6
		c-4.2,0-4.2,0-2.4-11.1c-5.7,7.1-12.9,5.4-19.5,6.7c2.4-2.5,4.6-5,6.1-8.4c-5.8-2.7-4.8,6.3-9.6,5c-4-1-7.7,3.2-12.6,0.3
		c0.1,8.3-6.3,5.9-10.8,6.7c1.4,3.7,3.6,2.3,5.9,1.8c0.6,1.7,1.1,3.4,1.9,5.6C13,621,12,614.6,9.8,609.3c0.7-1.5,2-2,3.9-1.9
		c-0.8-1.3-2.8,0.1-3-1.8c1.5-2.7,4.7-0.3,6.7-2c-1.2-2.2-4.1-0.2-5.2-2.2c4.9-4.6,13.9-1.2,16.5-10.3c1.6-4.4,7.4-3.6,8.9-8
		c-6.8-2.1-13.8-7.7-8.7-14.5c2.4-0.1,3,2.1,4.7,2.6c3.8-1,2.7-4.3,3.1-6.9c6.7,3.4,3.9-4.4,5.3-8.8c1.8,1,2.9,2.6,4.6,2.8
		c0.4,3.9-4.8,5.4-2.8,9.7c2.5-1.5,1.5-7,6.3-6c-3.7,2-2.4,6.8-5.6,9c3.5,1.5,3.8-4.9,8-0.4c-2.6,2.6-6.3,9.3-2.6,11.6
		c4.1-3,4.9-9.4,12.5-5.1c-0.2-2.5-3.1-2.2-2.6-4.6c3,0.1,6-0.2,6.6-4.2c7.1,5.9,13.8,4.2,15.7-3.8c-1.9-1.2-3.4,3.3-4.8,0.4
		c-1.1-3.7,5.7-1.6,6.1-5.2c-1-2.4-2.8-3.6-5.7-3.4c2.2-5.5,6.9-1.7,10.1-3.2c-1.1-2.1-3.8-7.4,0.7-7c4.3,1.8,2.2,7.8,7.2,9.6
		c1.6-1.8-1.3-3.1-0.2-4.7c5.1,1.5-1.1,7.6,6.5,2.9c0.6,1.9-1.9,3.2-0.6,6.1c9.5-2.1,19.1-5,29.4-5.9c-1.4-5.3-4.7-8.5-4.7-13
		c4.5,3,4.6,12.9,11.1,8.8c-1.5-1.8-3.6-2.1-3.3-4.6c2.4,1.7,4.2-1.5,7-0.6c-5-0.9-1.3-6.2-4.7-7.9c3.4,0.4,6.3,1.8,8.5,3.5
		c1.9-0.1,1-2.4,3.7-2.1c-1.6,4.2-4.3,8.7,0.7,12.1c-1.2,2-2.1,0.8-3,0.3c-2.2,7.8,9.9,7.2,8.3,12.6c-2.3,5.7,9.1,8.8-0.2,15.1
		c4.6-0.8,10.7,0.1,10.7,6.1c1.9-0.2,3.5-0.3,5.2-0.4c1.4-1.5-0.2-3.8,0.8-5.5c5.2,2.1-0.7,7.7,3.1,9.5c0.8-1.9,1.9-3.8,5-2.4
		c-0.4-2.9-0.7-4.8-0.9-6.6c-1.3-1.6-2.4,1.2-3.8-0.1c5-7.3-9.1-7.1-3.1-15.8c-3.6-1.3-8.4,4-11.1-1.9c17.9,7.2,11.9-29.2,6.8-36.5
		c4.7-9.1,2.9-14,0-18.1c5.2-13.7,5-33.7,14.4-49.3c16.5,5.3,33.1,13.1,51.4,19.5c-8.8,3.9-11.6,13-18,18.5
		c5.1-0.8,12.6-2.6,17.7-5.2c-1.5-2.2-2.7-4.8-6.2-4.9c7.3-1.8,14.5-0.4,21.8-0.7c-0.5-2.2-1.3-4-3.7-4.5c0.1,3.2,1.5,3.4-3.4,3.2
		c-1-1.6,1.2-3.2-0.5-4.6c12.6,2.5,18.7-1.7,30.9,0c-1.7,5.3-7.6,3.3-9.8,6.7c-2.3,0.1-2.3-2.1-3.8-2.9c-1.2,1.9,2.2,3.4,0.2,5.5
		c-5.6-4.5-7.4,1.2-10.1,4.1c-2.1-0.3-0.1-1.8-1.4-2.6c-5.4,5.8-12.3,9.6-20.2,12.8c-3.4-1.4-9.3-1.3-12.7,1.8c4.2-0.4,7.5-0.7,11-1
		c0.9,6.8-5.1,5.1-8.1,7.4c-0.4-2.3,2-2.5,2.1-4.5c-9.2-2.2-4,8.9-13.9,8.7c0.8,1.6,2.5-0.4,3,1.8c-4.6,2.8-16.2-3.9-18.3,7.6
		c11.8-5.7,25-2.3,37.3-7.4c-0.5,3.3-2.2,5.8,1.2,6.9c-1.5,6-6.4,1-9.3,2.9c20.7,21.7,26.8,55,28.9,83.7c2.3-7.8-0.7-15.7,1.2-23.5
		c2,10.1,3.7,20.1,0.3,30.2c5.6-10.5,1.5-21.7,2.6-32.5c1.7,3.8,2.4,7.6,2.6,12.8c1.1-4.7-0.4-8.2,1.2-11.4
		c2.6,8.1,1.7,16.4,2.2,24.7c2.2-28-2.9-74.8-29.7-86.6c1.6-1.3,1.4-3,1.1-4.5c5.9-2.3,12.5,0.3,18.3-2.8c6.2,5.9,18.7-0.8,25.8,3.3
		c2.2,1.9,3.5,0.3,5.1-0.4c1.8,6.8,5.3,7.6,12.5,3.3c0-1.2-1.5-0.7-2.3-0.9c-0.1-2.5,2.7-2.4,3.6-4.4c-2.7,0.6-5,2.5-7.8,1.4
		c3.3,0.1,2.8-6,7.2-4c0.8-5,14.1-4.1,12-10.6c5.3,2.9,7.2,2.3,10.6-3.2c1.9,9.8,9.8-5.9,13,4.7c1.9-2.1,3.9-2.8,5.4,0.6
		c1.4-1.1,2.6-1.9,4-2.9c1.2,3,4,3.9,5.8,6.1c1.2-1.4,2.1-2.8,4-2.5c1,1.8,3.3,2.4,11.9,2.9c-1-16.2,17.6-1.8,25.2,1.5
		c-3.7,3.5-7.7,1.4-11.8,2.2c4.4,1.9,9.5-1,12.6,5.1c2.5-5,3.5-6.6,6.3-11.8c-12.6,1.8-4-13.2,4-8c-35.8-5.4-3.1-20.1,15.2-14.6
		c-0.9-9.1-21.3-2.6-27.8-11.8c-8.9-2.8-1.6,14.7-13.2,8.1c-1-1.2,1.2-2.4-0.3-4.2c-10.8,9.9-23.7,10.5-38.1,8.4
		c4-5.2,6.9-10.4,13.5-13.6c-5.6-2.7-10.3-5-15-7.2c11.1-13,32.8-6.4,47.1,0.9c-2.1-2.7-3.4-4.3-4.7-5.9c18.2-16.2-4.6,17.2,32.2,2
		c-0.8-2.9-1.6-5.3-2.4-8.2c-15.9,5.6-41.9-9.6-13.3-14c-1.1-1.6-2.1-3-3.2-4.5c-10.7,3.2-19.6-0.9-29-5.9c4.3-4.5,8.3-7.6,14.5-7.3
		c-2.3-3.1-7.3-4.4-4.7-8.9c7.9-0.4,16.1-2.8,23.7,2.6c0.2-0.4,0.3-0.8,0.5-1.2c-1.8-30.9-18.6-18.8-33.9-37.3
		c3.2-14.9,2.1-21.7,20.2-11c-15-48.6-29.2-97.4-43.3-146.3c-0.5-1.9-0.1-3.9-3.2-3.7c-3-1.2,0.4-5.2-4.7-2.3
		c-3.5-6.6-10.4-8.7-6.5-17c3,1.9,5.7,3,7.5,5.6c-2.7,1-9.2-2.6-5.3,3.3c1.7-2.8,6.9,1.3,7.3-4.5c-5-2.5-9-5.9-4.8-12
		c-1-2.1-2.9,0.4-3.6-1.4c-4.3-25.8-22.9-115.3-43.5-126c-11.3,1.3-17.6-4.2-18.2-18.1c6.7,3.1,0.4,11.3,7.9,13.7
		c2.8-20.9,38.7,1.2,50-2.3c-4.5-5.9-17.5-4.1-11.1-15.3c0.9,3,9.3,5.1,6.3,0.1c-11.3-10.5-34.6-2.4-42.9-15.5
		c4.3-2.5,6.7,4.9,11,1.1c-2.1-1.3-3.2-3,0.1-4.7c-4.2-2.6-11.9-3.2-7.3-9.5c4.3,1.9,6.8,0,8-5.4c2.2,4.2,6.2,4.6,7.2,8.2
		c2.5-0.6-0.1-2.8,2.1-3.4c0.9,4.9,12.3,2.8,6.9,12c2.7-0.7,1.2-3.2,3.7-3.9c0.2,10.5,12.4,10,16.8,17.4
		c14.5,15.6,3.1,47.4-19.3,30.8c17.7,48.2,17.8,111.6,63.5,141.1c-12.9,2.3-14.9-15.4-26.2-15.7c-0.3,3.4,3.7,0.7,4.3,3.7
		c-4.8,2.2-8.8-2.6-13.5-1.8c4.1,5.3,12.6,4.2,14.3,12.5c0.5,5.4,11.2,4.8,4.5,9.6c4.1-0.3,9.9-4.6,11,3.3c1.8-1.2-0.4-2.3,0.9-3.6
		c2.8-0.1,5.7,0.1,6.5,4.8c0.6-2.7,2.4-3.3,3.7-5.1c1.2,4.4,7.1,0.9,7.8,5.6c0.1-0.6,0.2-1.3,0.5-2.8c1.5,3.8,6.7,0.3,6.9,5.3
		c2.1-1.3-0.7-2.6,0.6-3.8c1.6,0.3,2.4,1.5,3.2,3.2c-6.9,9.8-19.8,4.9-27.7-0.6c-2.7,2.9-4.4-2.4-6.4-1.1c-2.1,1.4-3.9,2.8-7.1,2.6
		c20.6,53.5,25.1,120.8,55.7,166.5c-2.1-3.8-4.6-5.9-7.4-8.3c2-2.2,3.4-4.8,7.4-3.6c-4.5-4.1-7.2-9-9.9-14.3
		c5.5-1.9,10.5-0.7,15.8,1.5c0.5-2.3-1.1-4.6,0.3-6.6c25.2,5.3,23.7,35.6,21.1,55.6c-1.7,6.2,6.2,21.7-1.6,23.5
		c-6,56.4,28.1,44.6,21.4,83.8c7.9,2.8,7.8,17.2,17.9,20.6c-4-12.7-19.5-35-12.1-49.1c23.9,39.6,58.1,55.1,100.3,66.6
		c-0.7-3.1,0.4-5.7-1.9-7.5c-7,6.4-14.6-18.3-13.9-22.5c10,8.7,14.1,21.3,27.3,27.1c2.5,2.9-1,9.3,6,8.4
		c26.3-1.4,12.1-26.5,0.6-19.8c3.3,3.9,14.7,5.9,10.9,12.8c-19.2-5.4-32.5-29-48.6-33.1c-4-10.4-10.8-19.5-15.3-30
		c5.7,6.1,9,14,15.2,19.6c0.6-5.1-7.4-7-4.8-14.1c3.3,7.3,9.5,10.5,14.3,14.5c-0.1,2.9-2.1,0.6-2.6,1.8c0.7,1.9,1.3,3.7,2.1,5.9
		c-0.3-4.8,2.4-4,3.8-0.3c1.4-0.4,2.1-1.5,2.8-2.5c4.8,0.9-0.2,4.6,3.2,6c7.3-2-1.2-9.8-1.7-12.8c-6.1,2.3-6.2-4.8-10.4-5.9
		c2.3-2.6,3.5,0.2,4.3,0.2c1.7-5.3-6.6-9.6-0.3-15.6c-10.1,2.6-2.3-6.3-6.6-11.9c0.1,3,0,4.8-1.7,5.9c-2.7-0.3-0.8-6-5.2-3.6
		c0.9-8.3-5-11.3-5.7-18.9c-2.1,16.8-10.8-29.7-19.1-19.6c1.4-4.9-4.2-9.7,1.8-13.8c-4.2-8.3,5.5-11.8-3.4-21.7
		c3,2.7,5.3,4.7,7.6,6.7c-3.5-5.4-9.8-17.1-4.2-21.8c3-2.5-1.6-4.3-1.6-7.3c2.9-0.2,3.1,3.1,6,4.5c-2.2-3.6-3.9-6.5-5.7-9.4
		c2-1.3,2.3,1,3.5,1.2c1.1-2.1-1.2-4.1,2.6-2.1c0.4-3.4-2.5-5.3-3.8-7.8c1.3-1.3,1.8,0.5,3,0c-2.6-5.8-7.6-10.4-7.2-17
		c-1.5,2.3,0.5,5.3-1.6,8c-2.5-4.1-0.4-8.6-1.6-12.5c-1.2,4.6,0.1,3.7-4.4,2.7c1.2,1.4,2.2,2.8,3.9,4.9c-3.2-0.7-3.8,3.3-6.9,2.1
		c0.7,2.8-0.1,5.5-0.4,8.1c-2,0.8-1.9-0.8-2.4-1.8c-11.8,16.9-10,37.9-15.8,56.7c-1.8-2.3-0.9-6.1-4-8c6.9-3.4-6.4-8.1,1.7-8
		c-0.4-2.1-2.4-2.8-3.8-4.1c-8.8,16.1,10.5,40.5,3.1,53.1c-8-1.9-5.6-13.7-13.5-17.8c-2.6,3.1-4.9,1.5-7.6-2.3
		c1,21.6,6.3,39.6,15.8,59.5c1.6-2.1-1.8-3,0.3-4.7c2.6,1.9,5,3.7,2.3,8c2.9,0.4,8-0.7,8.4,2.7c-0.8,8.7,8.5,8.4,11.3,14.4
		c-0.4-4.7-7-7-5.7-13.2c1.9-6.2-11.8-17.2-4.3-16.8c-1.6-3.4-5.5-4.9-7.1-8.8c2.6,0,3.2,2.9,5.4,3c0.6-5-6.6-5-6.5-10.1
		c12.2,5.4,13.5,16.7,15.4,28.2c6.3,4.1,9.7,17.5,14.2,25.1c1.1,0.3,3.3-2.2,3.2,0.2c0.8,7.2,8.8,7.2,12.3,12.6
		c-17.6,0.7-37.6-20.8-46.8-36c-15.2-4.5-14.8-27.4-28.8-38.4c2.4,10.1,4.3,19.4,2.7,29c-4.4-12.1-19.6-34.1-6.6-43.1
		c-1.3-0.5-3.2,0.4-3-2.9c4.1,3.3,10.6-17.2,11-22.1c2-0.7,1.6,2,3.2,1.7c-3.7-14.7,12.4-31.1,17.3-44.1c1.4-2.7,5.6-7.2,2.9-9.1
		c1.6-3.2,7-5,3.5-10.2c-1-1.4,1.8-1.5,2.4-3.1c-1.9,0.1-3.9,0.5-5.5-0.5c-0.3-1.5,1.4-1.6,1.8-3.4c-2.9,2.6-3.7-2-6.3-0.9
		c2-3.6,6.8-5.7,10-4.4c1.5-4.2,3.7-7.8,8.7-8.4c-2.7-2.8,4.3-12.8,10.6-15.5c-1-1.9-3.7,1.6-4.4-2.3c6.3,3.8,28.3-32.3,23-34.8
		c6.1-4.8,6.9-11.3,1.6-14.7c-1.8,23.1-18.6,36.4-33.2,52.2c-5.9-11.9,3.7-25,2.6-37.4h3.7c1.6,5.7-0.7,11.4,0.1,17
		c2.3-2.5,0.6-4,4-1c3.6-4.5-0.7-8.3-1.5-12.1c1.3-1.8,1.8,0.3,3,0.1c-0.7-3.9,0.5-5.3,3-1.4c3.7-2.2,3.3-4.7,0.7-7.2
		c3.1-2.3,3,1.7,4.9,1.8c1.1-4-5.9-6.4,0-8.7c-2-1.3-1.9-4.1-4.5-4.9c3.9-3.4,5-8.7,2.9-13.3c2.1,0.7,2.1,0.7,6.7,5.7
		c-2.7-4.1-3.7-8.9-7.5-12.2c2.1-1.2,3.7-2.6,2-4.3c-4.5-2.4-2.4-9.4-6.3-10.5c-1.7,2.2,1.7,5.5-1.6,7.9c-2.2-3.3-0.8-7-1.7-10.2
		c-3.2,2.2-0.8,5-5.6,1c-1.2,5.2-0.5,10.8-3.9,15.7c-2.9-12.1-6.4-23.8-16.8-8c-2.1-2.6,1.6-7.3-3.8-8.3c-1.3,1.6-2.8,4.2-5.1,1.5
		c-4.6,2.7-6,6.9-5.3,13c-5.6-4,0.4-8.5-3-11.9c-3.3,2.1-6.2,4.8-9.7,8.2c4,0.9,5.4,2.8,3.3,6c-1.4,0.4-1.5-1.5-2.4-1.8
		c-0.6,18,0.7,33.2,4.6,50.7c1.8-4.2-0.4-8.7,4.6-10.6c2.6,15.5,0.2,31.5,13.5,42c5.1-1.7-1.2-7.8,3.6-8.8
		C463.7,323.7,464.2,324.3,464.7,324.9L464.7,324.9z M604.7,382.1c0.5-8.6,10.4-6.9,13.8-0.7c-1.9-3.4,1.5-4.4,2.9-7.7
		c-3,2.2-5.2,3.1-7.7,2.5c-0.2-3.2,1-4.5,4.7-2.9c-1.5-1.8-0.2-3.2-0.8-4.9c-3.7,2.3-7.1,2.1-10.3-1.9
		C605.5,372,602.5,376.5,604.7,382.1c-1.1,9.1-5.3,16.8-3.7,26.8c3.4-4.2-2.1-11.3,5.5-12.6c-0.5-1.9-1-3.4-1.6-5.4
		c2.5,0.6,4.4,0.3,5.5-2.3C606,390.6,606.6,384.5,604.7,382.1L604.7,382.1z M349.1,261.8c-5.5-19.3-10.4-39.3-15.7-58.9
		C334.3,222.2,340.4,246,349.1,261.8c0.8,17.4,9.4,36.9,15.3,53.9C361.9,297,353.7,280,349.1,261.8z M392.1,615
		c7.7,0.3,20.7-2.7,23.4-5.7C407.9,611.5,398.5,610.5,392.1,615c-1.8-1.2,1.1-3.1-1.2-4.9c-5.7-0.6-12.3,4.3-18.8,0.2
		c-1.2,1.6-2.8,3.3-5.4,2.8c-1.3-2.5,2.4-1.6,1.6-3.8c-3,2.2-4.1-2.6-7-1.8c1.1,3-1.2,5.4-1.3,8.1c3.7,0.2,7.5-2.5,11.5-0.1
		c-3.6,3.9-8.8,0.6-12.5,4.5C370.7,619,381.5,618.4,392.1,615L392.1,615z M303.3,526.4l-0.2,0.2c2.9-0.6,5.2-3.6,9.2-2.2
		c-4.7,3.3-9.9,4.7-13.5,8.8c6.3-2.3,11.5-7.7,19.5-7.2c-5.6,5.1-11.6,2.6-15.9,10c8.9-6.2,18.1-8.3,27.5-9.9
		c-3.1-1.4-6,1.4-10.3-0.6c4.3-1.2,7.5-2.1,10.7-3c-1.2-1.6-3.4,0.8-3.9-1.8c3-0.5,5.8-1.5,5.7-4.7c-1.3-1.6-2.8,0.1-3.9-1.1
		c-0.1-1.7,2.6-1.7,1.8-4.6c-8,3.9-17.4,1-26.1,6.6c4.3-0.2,7.3-3.3,11.2-1.4c-9.3,2.7-16.7,8.7-25.2,12.9
		C295.7,533.9,299.3,528.9,303.3,526.4L303.3,526.4z M690.4,490.9v2.7c-2.6,2.2-0.3,6-2.9,9.3c-1.7-10-0.9-19.3-1.6-28.4
		c-0.3,7.5,0.4,15.1-0.7,23.5c-2.9-3.7-0.7-7.1-2.3-10.5c-2.3,27.6,6.1,53.3,4.8,80.5c0.5,0.2,1,0.3,1.4,0.5
		c-0.9-3.2,1.2-2.8,2.9-3.1c-0.5-4.9-0.9-9.6,0.3-15.7c2.6,5.1,0.9,9.4,2.7,13.5c1.9-3.8-1-8,2-11.3c1.5,2.6,0.1,5.7,1.4,8.4
		c2.3-1.8,0.3-4.5,2.1-6.2c2,0,0.6,3,2.9,2.9c12.8-10.1,26-20,37.5-32.6c0-9.6,0.4-20-0.8-30.5c-1,0.7-0.3,2.3-2.2,2.3
		c-1.2-4-1.2-8.2-1.1-12.7c-1.4,0.8-0.3,2.7-2.1,2.6c-1.6-6.8-1.5-7.3,0.7-9.9c-0.9,0.1-1.6-1.3-2.7-0.4c-0.7,2.3,0.7,4.9-1.7,7
		c3.7-22.7-19.3-13.5-34.5-16.3c-1.1,9.4,1.3,18.9-1.2,28.1c-2.3-9.4-0.3-19.2-1.9-29.3c-2.6,2.1,0.1,5.3-3.6,6.1
		c-0.2-1.9-0.4-3.8-0.8-6.7C688.6,473.9,687,483.5,690.4,490.9L690.4,490.9z M204.8,626.5c81.8,29,8.5-165.1-16.1-83.5
		c-2.8,0-1.4-3.3-4.5-4.9c1.8,10.2,0.1,18.2-0.3,27.4c0,12.7,7.9,23.9,7.5,36.2c2.6,1.2,6.6,1.5,7,4.3c0.3,9.8,10.8,14.1,12.8,21.3
		C209.2,627.5,207.4,625.1,204.8,626.5z M305.5,563.2c-6.9-2.2-14.7-1.1-21.4-4.4c4.4-1,8.8,0.5,13.3-0.8c-1.4-5.4-4.5-9.8-3.7-15.3
		c3.2,5,3.4,11.2,6.6,16.3c1.4,0,2.6-1.2,4.3-0.6c-0.5-3.2-1.8-6.1-1.4-9.3c2.3,0.2,1.6,2.7,3.6,3.7c-1.4-4.8-2.7-9.3-4-13.7
		c-0.8,2,1,3.9-0.6,5.9c-2.7-2.8-2.3-7.3-5.7-9.8c-0.8,1.9,2.2,2.9,0.6,4.7c-3.1-0.1-2-4.3-4.6-5.1c-1.2,0.4,1,4.8-2.7,2.5
		c-12.1,3.3-23.3,10.8-35.9,16.6c9.4,3,18.5,2.4,27,5c-8.8,0.5-17.5-0.1-26.5-2.3c2.3,9.9,4.4,19.2,6.7,29.1c0.9-2.3-0.5-4.2,1-5.7
		c2,1.5,0.8,4,2.5,5.6c0.4-2.5-1.1-4.9,0-7.2c2.2,0.9,1.7,2.9,2.6,4.5c0.6-1.6-0.4-3.4,1-4.6c2.4,0.9,0.2,4,2.7,5.1
		c-0.5-3.2,0.6-3.9,3.2-1.6v-6c1.9,0.9,1.4,2.9,2.3,4.2c1.1-1.7-0.8-3.8,1.5-4.8c1.8,0.6,0.9,3.2,2.6,4.1c1-2.6-1.4-5.1,0.5-7.4
		c3,1,0,4.7,2.8,5.7c1.6-1.9-0.3-4.2,1-6.1c1.8,0.5,0.9,2.9,2.3,3.2c1.3-1.6,4-1.8,3.7-4.1c1.5-0.1,1.4,2,2.6,1.7c1-2-1.3-4,0.9-6.1
		c1.2,2.6,1,7.3,5.6,3.9c0.7-2-1.3-4.3,0.3-6.3c2.2,0.8,1.2,3.3,2.9,4.2C304,566.6,305.8,565.7,305.5,563.2L305.5,563.2z
		 M443.4,564.6c3.1,8.9,23.4,5.5,16.3,16.7c-0.2,2.6-1.6,3.1-3.8,1.5c-0.1,1.6-0.6,2.9,0.1,3.7c4.1,1,3.4-4.4,6.7-4.4
		c1.1,1.4-1.2,2.4-0.2,3.7c6.6-3,1.2,3,1.2,5.9c1.6-0.9,1.7-3.5,4.1-3.3c0.9,2.8-2.2,4.7-2.2,7.5c3.4-1.3,3.7-5.2,6.7-6.8
		c2.1,3.9-3,5.1-2.4,8.2c11.6-0.5,6.5-20,14.6-25.5c5.5-16.1-1.6-34.1-9.5-48c-2.7,1.3-3.2-3.1-5.8-2.1c-0.3-4.6-4.8-6.5-6.6-10.5
		c-4.9,16.6,22.4,46,2.4,62.3C458.2,569.9,451.4,566.8,443.4,564.6L443.4,564.6z M699.4,592.8c-10.6-10-33.4-13.7-44.2,0.8
		c5.5,0.4,20.6,8,18-1.9c4.1,4,7.6-1.6,11.2,0.5c-0.9,3.8-5.8,1.9-6.9,6.4c21.3-2.9,45.6,18,65.8-2.8
		C728.7,596.2,711.6,584.2,699.4,592.8L699.4,592.8z M279.8,530.6c-1.1-3.3-5.6-1.3-6.8-5.2c-0.7,5.2-2.1,1.2-3.5-0.8
		c-0.8,1.1,0.6,3.2-2,3.6c-0.5-4.1-2.7-6.4-7.3-6c1.5,3.3-2,2.9-3,5c-1.8-2.5-3.2-4.5-4.7-6.6c-1.4,1.9,1.6,2.6,0.4,4.4
		c-1.2-0.3-1.6,1.3-3.2,1.3c-0.7-0.8-1.6-1.7-2.5-2.7c-2.3,1-3.7,3.9-7.2,2.8c5.2,8.1,8.6,16.8,12.9,25.1
		c11.1-5.6,21.6-10.9,32-16.1c-0.9-3.6-2.2-6.2-4.7-8.5C279.6,528.3,281.5,529.3,279.8,530.6z M749.9,610.3c17-1,55.6,18.8,61.6,1.4
		c-2.9-9.5-41.3-13.8-49.6-8.7c4.8,3.5,11.1,1.3,16.6,4.7C768.7,610.3,759,601.7,749.9,610.3z M329.2,191.6
		C314,146.2,305.3,96,283.9,52.9C299.1,97.9,308.6,149.7,329.2,191.6L329.2,191.6z M434,555c-17.4-73.7-43.1-146.6-63.5-220.5
		c-0.5,0.1-0.9,0.3-1.4,0.4C390.7,408.3,412.5,481.5,434,555z M541.3,581.4c2.6-5.2-2.3-6.3-2.7-9.6c4.4-2,4.8-6.8,7.6-10.7
		c-2.5,0-3.4-2-5.2-3c0,1.9,2.9,2.5,1.5,4.4c-7.7-4.1-14.6-9.4-24.3-10.6c6.1,9.9,4.2,28.2,19.1,27.3c-4.3-0.7-6.8-10.1-0.7-8
		C534.8,575.8,539.9,576.9,541.3,581.4L541.3,581.4z M726.3,445.2c-1.9,2-0.3,4.2-1.8,5.6c-7.3-4.8-22.6,2.9-24.4-6.1
		c-4.1-0.9-3.5,4.5-5.5-1.2c-3.7,3-3.1,6.5-2.2,10.7c2.1-1.2,3.7,0.7,5.6,0.5c0.7-2.2-1.3-4.5,0.7-6.3c2.6,1.8,0.2,4.5,1.7,6.7
		c10.6,2,21.3,3.1,32,1.1v-8.7c-0.7,3-0.3,6.7-5.5,5.7C726.7,450.7,726.5,448.3,726.3,445.2L726.3,445.2z M576.5,605.7
		c-7-4.5-21,1-29.7-2.9c-8.3,1.1-13.7-2.5-20.5,2.6C541.2,609,563.4,614.9,576.5,605.7L576.5,605.7z M657.3,480.1
		c0.7,10.4,16.5-0.6,22.5,6.9v-32.1c-7.4-0.5-4.2,6.8-7.9,8.7c4.9,2.9,6,5.2,0.8,8.4c9.9-1.5-0.1,9.7-6.2,3.2
		C669.1,481.5,659.6,485.8,657.3,480.1L657.3,480.1z M591.7,298.9c3.3,8.6-8.1,23.7-0.8,29.9c1.3-21,2.9-41.5,6.4-62.1
		c-4.9,12.3-10,24.3-16.4,37.2C585.9,303.1,587.6,298.3,591.7,298.9z M541.6,583.9c-9.3-1.2-15-9.1-24.6-5.4
		c-1.5,0.4-3.7,1.3-4.1-0.8c-5.4-7.8-10.5,5.5-8.5,10.7C517,582.8,528.3,584.5,541.6,583.9L541.6,583.9z M433.9,562.8
		c-5.3-6.4-66.3-30.7-72.2-28.5C386,543.9,409.4,553.1,433.9,562.8z M729.9,465c-2.3-11.6-27.1-2.6-37.3-7.8
		c-0.8,1.7-1.2,3.1-0.5,4.6C704.5,464.3,717,464.8,729.9,465L729.9,465z M567,328.8c4.1,4.2,11.4,10.4,16.8,7.5
		c1.1-1,3.6-1.2,3.6,0.6c1.4,7.3,10.8,0.7,15.4-0.3c-2.1-1.9-1.8-4.7-2.5-7.5c-2.5,5-3.7,7.8-8.1,2.8
		C584.4,340.1,576.1,328.5,567,328.8z M562.4,457.2c-10,1.2,6-30.5,0.4-38.4c-1,10.7-2.3,21.5-5.9,31.9c0.1-3.9-0.9-7.4-1.9-11
		c-1,6.3-2.2,12.6-2.2,19.2c5.1-0.9-1.8-6,3.1-6.6c6.3,4.8-2.5,15.2-3.1,21.3C555.8,468.5,558.8,463.3,562.4,457.2L562.4,457.2z
		 M577.7,388.6c-1.9,12.7-3.9,25.4-5.9,38.8c-6.7-6.1,0.4-11.9-1-17.9c-1.8,2.1-0.1,5.3-3.3,5.6c-1.8-1.2-0.4-4-2.9-5
		c1.9,8.6,3.7,16.9,5.6,25.3h1.6C574.5,419.8,578,404.5,577.7,388.6L577.7,388.6z M507.4,609.4c11.7-7.6,31.8-10.3,39-20.7
		c-14.7,5.2-28.1,16.6-41.7,12.8C511.2,603.2,505.5,605,507.4,609.4z M774.9,596.2c11,5,22.9,5.3,34.7,7c0-1.5,1.2-2.8,0.3-4.2
		C798.4,596.2,786.6,597.2,774.9,596.2z M575,593.8c-4.4-2.3-1.9-9.3-7.3-10.9c-5.7,6.8-11.8-4.6-19-3.2c-8.5,5.8,11,7.1,14.5,10.1
		c0.6-1-0.4-2,1-2.6C567.4,589.5,571.2,591.4,575,593.8L575,593.8z M188.3,478.5c-0.6-5.3,3.6-8.8,4.9-13.8
		c-11.5,10.7-7.6,24.8-7.1,38c0.3-13.2,3.3-25.6,10.8-36.8C192.7,469.4,191.1,474.3,188.3,478.5L188.3,478.5z M579,575.6
		c10.8-6.7,31-9.8,37.1-19.6C605.2,561.9,585.5,565.8,579,575.6z M322.9,612.9c-4.6,2.8-10.9,3.5-9.7,10.9
		c-3.4,3.3-7.7,5.8-8.5,12.4c6.1-4.6,9.1-10.8,15.9-12.8C316.8,619.1,326.6,617.6,322.9,612.9L322.9,612.9z M728,373.2h-0.9v16.5
		c3.5,1.2,7,2.8,11.3,1.3C734.8,384.8,731.4,379,728,373.2L728,373.2z M597.5,365.2c-7.7-4.7,0.1-11.9-2.9-17.9
		c-0.8,5.7-1.6,10.7-2.4,16.1c-10.9-0.2-21.3-1.3-31.2-5.7C565.6,366.6,587.2,366.2,597.5,365.2L597.5,365.2z M947.7,594.3
		c-5.3-4.6-5,4.4-7.8,3.7c-2.7-6.2-4.2-3.1-8.1,1.1c8.9-0.3,17.9,1.6,27.3-1.6c-2.1-0.9-4-0.2-5.3-2.2c3.3-1.8,6.6-0.7,9.7-1.2
		c-3.8-1.3-7.7-1-12-0.8c0.9,4.3-4.1,4.9-6.5,3.5C945.3,595.1,947.3,596,947.7,594.3L947.7,594.3z M345.7,465
		c5.3-10.4-7.7-4.8-12.9-3c14,7,20.7,8,24,3.4C353,465.5,349.5,466.1,345.7,465z M712.7,391.5c14.2,2.7,11.3-5.7,11.3-16.1
		c-0.3,0-0.7,0-1-0.1C719.7,380.4,716.5,385.5,712.7,391.5z M396.4,511.7c-0.1-6.1,4.4-8.3,8.8-10.7c-5.8-2.3-15.3,7.7-15.5,15.4
		c5.3,0.1,12.1-4.2,13.8-8.8C400.7,508,399.8,511.4,396.4,511.7L396.4,511.7z M347.5,476.9c1.5-2,5.6-2.5,5.4-5.5
		c-4.2-0.4-4.2-0.4-5.6,2.7c-3.6-1.6-8.2,1.3-11.3,7.6c4.5-1.2,9.1,0.8,13-1.9C349.3,478,347.2,478.8,347.5,476.9L347.5,476.9z
		 M436.5,557.1c-0.6,0.2-1.2,0.4-1.9,0.6c5.5,9.9,5.3,21.9,12.7,31.2C448.1,576.9,439.1,568.6,436.5,557.1L436.5,557.1z
		 M479.6,599.2c4.7,1.9,5.3,1.7,0.8,4.6c4.6,4.5,10.1-0.8,14.6,1.6C499.6,594.8,485.1,600.5,479.6,599.2L479.6,599.2z M554.9,497.1
		c9.1,0.9,18,3.9,27.8,3.7C579.8,496.5,561.2,494.1,554.9,497.1z M563.1,381.2c12.1,2.8,23,5.8,35.1,3.2
		c-17.9-4.1-24.7,6.7-21.9-17.8c-1.1,5.7-2,10.6-2.9,15.8C570.2,380.1,567.3,379.8,563.1,381.2L563.1,381.2z M807.7,591.1
		c7.7-0.3,10.4-10.4,18.2-13.3C820.3,569.5,812,588.7,807.7,591.1z M493.7,569.1c7-3.7,4.7,8.8,10.3,6.9c0.6-0.5,1.5-1.3,0.8-2
		c-4.7-4.8,5-4.6,3-9.3c-2.9-0.6-5.4-0.3-6.7,2.9c-2.1-1.2-2.7-3.5-5-3.8C495.2,565.1,493.5,566.1,493.7,569.1L493.7,569.1z
		 M314.5,554.4c3.5,0.5,1.4,3.9,4.1,5.3c-1.9-7.6-7.2-12-12.5-18.1c2.1,6.7,2.5,12.4,4.8,17.7C313.2,558.5,315.1,557.3,314.5,554.4z
		 M808.9,578.2c-5.2,2.4-12.5,2-13.2,10c3-1.6,0.5,3,2.9,2.8C802.9,587.7,806.5,583.5,808.9,578.2z M355.2,516.1
		c-2.5-1.4-3.3,0.1-4.6,1.3c-7.6,3.1-3.7-6.7-14.3,3.8c3.1,0.2,5.9-1.7,9-0.9c-0.7,3.3-4.4,1-5.5,3.7c5,0.1,9.2-3.1,15.6-2
		C352.3,519.2,354.6,517.9,355.2,516.1L355.2,516.1z M783.3,618.9c-4.1,5.3-6.4,0.3-11.1-0.7c1.8,4.9,7.8,5.4,9,10.1
		c-3.2,4.4-3,5.5,1.3,6.7c0.7-3.4-0.1-7.3,3.6-10.3C782.6,623.7,782.8,621.6,783.3,618.9z M316.1,541.9c8.4-4.4,16.7-4.3,23.9-7.8
		c-9.5,1.7-19,3.1-28,7.5c2.9,7.1,11.9-0.3,17.5-0.5C325.3,540.5,321.5,542.4,316.1,541.9z M568.1,538.9c1.1-5.5-8.1-7.3-3.1-13.7
		c-4.1,3-4,7.8-7.9,9.8C559.9,538.3,563.9,538.6,568.1,538.9z M439.1,354.9c-4.1-5.8-1.5-18.4-7.1-21.5
		C431,340.7,431.3,351.8,439.1,354.9z M322.5,640.1c1.7,1.6,2.4,3.6,2.2,5.9c3.5-3.2,8.9-4.2,9.9-9.5
		C329.8,634.9,326,635.8,322.5,640.1z M305.8,537.2c5.1-0.3,8.4-5.1,13.1-4c0.9,1.8-1.4,1.7-1.1,3c5.5,0.7,8.6-2.8,11.2-6.6
		C318.3,530.3,312.7,532.1,305.8,537.2z M511.5,589.4c-10.1,3.2,3.6,15.7,6.9,6.8C515.6,594.6,513.5,592.2,511.5,589.4L511.5,589.4z
		 M374.4,379.9c-5.5-6.7-8.1-7.6-17.2-5.7c5.1,0.9,4.8,7.6,10.4,7.5c-2.7-1.7-2.5-4-1.9-6.4C369,376.1,370.5,379.8,374.4,379.9z
		 M507.6,91.4c-4.2,6,3.3,8.2,3.7,12.9c0.2,2.1,4.1-2,7-0.2c-0.8-6.7-7.8-4-9.6-7.4C510,93.8,514.1,93.7,507.6,91.4L507.6,91.4z
		 M397.3,406.3c1.2,4.1,2.3,7.8,3.6,12.1c1.7-2.6,5.4-3.1,5.8-6.7c-3.5-0.5-2.4,3.5-5.2,3.2c-1.5-5.6,2.1-8.2,6.4-6.3
		C405.3,403.5,401.3,405.7,397.3,406.3L397.3,406.3z M413.3,499.4c-1.4,6.6-7,9.5-9.4,14.7C412,513.1,417.3,505.6,413.3,499.4
		L413.3,499.4z M322.5,635.1c-3.6-2.6-10.8,0.5-10.3,4.4C315.1,647.1,320.2,639.8,322.5,635.1z M410.8,365.7
		c-4.2,3.5,4.5,22.4,12.2,22.3C414.6,382.4,412.7,374,410.8,365.7z M176,498.1c2.4-3.3-3-10.4,5.5-11.2c0.6-2.7,1.1-5.5,1.8-8.9
		c-2.5,1.9-1.1,5.7-4.5,6.1c-1.6-3.2,2.4-5.4,1.3-8.5C175.9,481.7,174.4,490.1,176,498.1z M569.4,494.1c1.5-10.8,2.8-20.1,4-29.5
		C570.6,469.4,567.8,489.8,569.4,494.1z M575.3,519.4c-5.7-2-11.4-2.6-17.2-4.9C559,522.7,569.1,521.2,575.3,519.4z M771.6,626.2
		c-2.6-2.1-0.2-5.3-1.7-7.8v15.2c1.8-0.2,1.2-2,2.3-2.5c0.1,4.1,2.7,3.1,5.3,2.6c-0.2-2-0.4-4-0.6-6.3c-1.5,1.3,0.5,3.6-2.2,3.9
		c-2.1-1.9,0.9-5.3-1.7-7.1C772.6,625,773,626.1,771.6,626.2L771.6,626.2z M455.4,597.6c-0.7,2,1.7,2.5,0.2,4
		c-6.1-0.4-12.4-0.4-18.4,2.4c8.1-2,16.4,0.4,24.6-1.2C459.3,601.8,457.5,599.9,455.4,597.6L455.4,597.6z M287,660.3
		c2.6-7.1-9.6-9.4-11.1-2.8c2.6,1.5,3.5-2.4,5.7-1.4c0.4,2.6-3.3,3-2.7,5.7C283.7,662.5,280.8,657.6,287,660.3z M713.4,400.9h9
		c-4.9-1.3-9.8-2.1-14.9-0.9c3,6.2,9.1,2.3,12.8,5.1c0,2.3,3.3,2.7,2.9,0.2C721.5,400.9,715.8,405.6,713.4,400.9L713.4,400.9z
		 M387.9,489.7c3.8-2.6,8.8-1,13.4-4c-15.1,1.6-15.1,1.6-20.4,6.9c3.9-1.1,7.3,1,10.8-0.5C390.6,490.1,388.6,492.1,387.9,489.7z
		 M823.2,538.8c9.4-6.9-7.7-11.3-8.8-5.1C817.1,537.4,822.9,532,823.2,538.8z M387,442.2c-4-0.3-6.9,2.3-10.8,2.6
		c4.2,3.5,8.4,5.3,13.4,5.2C388.1,444.7,378.2,448.6,387,442.2L387,442.2z M578.3,420.8c2.2-2.8,5.7-27.7,4.9-32.7
		C581.4,399.7,579.9,410.2,578.3,420.8z M455.3,606.6c-9,0-18.2-2.7-26.1,3.6C438.6,606.8,447.4,609.6,455.3,606.6z M564.3,487.4
		c1.7-11.3,3.5-22.5,5.2-33.8c-0.5-0.1-0.9-0.1-1.4-0.2C566.8,464.8,564.3,476,564.3,487.4z M492.3,614.6c3.7-1.1,7-3.6,11-1.3
		C501.1,598.3,498.9,609.7,492.3,614.6z M349.1,530.7c6.1-4.2,13.5-3.7,20.2-6.2C362.7,524.6,352.1,524.1,349.1,530.7z M331.9,588.7
		c1.6-9.9,0.1-23.3-3.3-31.6C330.6,567.5,331.6,578,331.9,588.7z M511.3,559.6c-4.7-2.8-9.5-5.5-15.8-3.4
		C500.4,560,505.7,560.2,511.3,559.6z M57.7,583.9c5.2,0.1,9.8-1.9,16-2.6c-5.4-2.3-9,1.3-13.2,0.2c1.1-2.1,4.2-1.1,4.6-4.2
		c-2.8,1.1-5.1,2.6-8.2,2.2C57.8,581.1,58.1,582.5,57.7,583.9L57.7,583.9z M704.2,390.9c-0.9,2.3-1.6,4-2.7,6.6
		c3.4-2.2,6.1,0.8,9-1.4c-2.5-2.4,1.3-6.4-2.2-8.7c0.5,1.7-0.2,3.4-0.2,5.3C706.9,392.2,705.8,391.7,704.2,390.9L704.2,390.9z
		 M549,460.9c0.6-10.4,3.2-20.5,3.6-30.9C550.9,440.2,548.5,450.4,549,460.9z M381.9,470.1c6,1.3,13.3,4.4,10.4-4.2
		C388.9,466.7,385.8,467.2,381.9,470.1z M588.9,360.9c0.1-4.3,4.6-18.2,0.8-18.7C589.6,348.5,586.8,354.4,588.9,360.9z M555.7,491.9
		c0.8-6.5,1.5-12.2,2.1-18c-1.6,1.1-3.8,1.1-4.3,3.5C557.5,481.4,553,486.6,555.7,491.9z M551.4,568.7c-4,2.3,1.2,6.1-2,8.6
		c3.3,1,6.6,1.9,9.9,2.8C554.3,577.9,553.8,572.5,551.4,568.7L551.4,568.7z M498.9,27.6c-10.8-11.3-9.6,1.8,4,1.8v-5.1
		C500.5,23.7,500.3,25.6,498.9,27.6z M708.7,689c-2.7,3-5.5,0.4-8.7,0.6c1.1,6.7,8.1,3.4,10.7,7C708,694.5,708.5,691.9,708.7,689z
		 M609.1,586.7c-2.9-3.2-5.6-2.5-7.8,0C598.9,593,607.8,591.6,609.1,586.7z M402.7,396.8c0.5,2.5,2,3.7,3.6,4.8
		c4.5-4.8,5.8,1.1,9.3-1.8C411.7,397.2,407.8,395.4,402.7,396.8z M517.7,427.8c-4.2,1.2-4.6,4.1-1,7.8c-2-3.8-2-6,2.6-4.5
		c-0.8-3.8,0.7-7.4-1.9-10.8C515.1,423,515.5,425.4,517.7,427.8L517.7,427.8z M751.1,591.3c-5.4-0.5-10.1-3.7-15.1-0.9
		C741,589.3,745.5,596,751.1,591.3z M603.9,517.7c-3.5-0.7-3.3,4.9-7.3,3.8c3.2,1.6-0.8,4,1.3,5.5c3-6.3,6.2-0.6,12.3-4.9
		c-4,1.2-6.1,0-8.1-1C601.5,519,604.2,519.5,603.9,517.7L603.9,517.7z M617.3,606.7c-3.5,0.1-4.1,4.4-7.7,4c1.6,3.9,4.7,3.5,7.6,4.3
		c-0.3-2.1-3.2-1.1-2.7-3.6c1.1-0.3,2.3-0.6,3.7-1C617.9,609.2,617.6,607.9,617.3,606.7L617.3,606.7z M392.2,365.7
		c3.5,2.9,4.2,7.3,8.9,8.8c-3-2.7-1-4.8,0.6-6.7C398.8,366.2,396.2,365.3,392.2,365.7L392.2,365.7z M732.5,468.7
		c0.5,4,0.5,4,6.5,5.9c0.3-2.1,0.7-4.1-0.1-5.8C736.6,467.8,734.9,470.2,732.5,468.7z M469.1,607.6c1.3-0.5,3.6,1.6,4.7-1.1
		c-3.7-1.7-11-1.9-11.2-0.2c1.2,0.5,3.1-0.8,3.8,1.6c-0.7,0.9-1.4,1.8-2.2,2.9c2,1.2,3.6,1.2,5.1-0.3
		C469.3,609.5,467.6,609,469.1,607.6L469.1,607.6z M757.6,619c0.2,11.1,12.8,5.2,3.4-1.2C760.6,619.1,760.3,620.7,757.6,619z
		 M198,476.4c-4.1,6-4.4,12.9-4.9,19.8c0.2-4.3,2-7.8,6-10.4c-2-0.5-2.6,1.3-3.6-0.1C195.3,482.3,198,479.7,198,476.4z M542.9,437.9
		c0,4.1,0.7,7.7,2.9,11.5C548.7,443,548.3,441.5,542.9,437.9z M689.3,606.7c-0.8,2.7,0,5.2-1,7.6c-11.3,2.9-2.3,3.5,1,5.8V606.7
		L689.3,606.7z M112.4,570.7c3.5-3.4,5.8-8.1,11.9-8.4c-3.2-2-6.1-0.6-8.9-1.2C115.2,564.7,111.9,567,112.4,570.7L112.4,570.7z
		 M621.3,559.3c5.2-3-1-10.8-6-7C619.5,553.3,617.7,558.2,621.3,559.3z M379.1,415.7c-3.9-3.5-7.1-1.3-11.6-1.3
		c3.8,2.4,5.2,5.6,8.7,6.1C376.2,418.6,372.9,415.5,379.1,415.7L379.1,415.7z M362.9,505.9c-2.5,4.3,0.6,5.4,2.7,7.5
		c2-5.5,6.9-1,10-3.2C371.5,508.1,366.1,512.1,362.9,505.9z M328,626.5c3.3,0.6,6.2,2.9,10.3,1.9c-0.5-2.4,0.7-4.3,2.7-6.1
		C336.9,625,333.1,627.8,328,626.5L328,626.5z M562.1,394.2c-0.2-2.9,3.8-9.1-0.5-9.8C557.1,385.1,558.5,392.4,562.1,394.2z
		 M748.8,517.6h0.3v-32.1h-0.3V517.6z M608.6,381.5c3,4.8,7.8,1.6,7.9,8.5c-0.9-3.5,4.8-2.6,3.5-6.6
		C615.5,387.2,613,378.2,608.6,381.5z M62.4,595.8c4.9-1.4,6.9-8.6,13.3-6.9C69.2,586.6,65.4,590.3,62.4,595.8z M429.2,596.9
		c5.7-1.3,11.9-0.5,17.4-3.1C440.7,594.1,434.6,593.3,429.2,596.9z M309.4,511.2c4.5-0.4,8.3-0.7,12.1-1.1
		C320.1,505.6,320,505.6,309.4,511.2z M396.2,564.5c-5,0.3-10.6-1.8-14.3,3.6c0.7,0.6,1.6,1.5,2.8,2.6
		C387.1,565.8,391.4,564.8,396.2,564.5L396.2,564.5z M570.4,337.6c-1.1,6.6-3.9,13.1-2.4,20C568.3,350.8,570.6,344.4,570.4,337.6z"
		/>
	<path class="st1" d="M491.5,681.7l0.2-0.2c-7.1,5.3-4.4,32.7-19.3,19.6c-6.1,10.3-25.5,2.2-35.6,4.3c-2.6-0.8-0.3-3.7-3.1-4.2
		c1.7,7.9-6.9,4.3-10,8.7c-15.6-4.4-33.1-18.5-50.8-17.4c-2.8-0.1-6.9,1.1-6.7-4.3c-9.5,9.4-28.2,0.1-40.9,3.7
		c-5.3,1.3-10.3,3.3-15.7,0.8c-4.6,1.7-8.9,5.2-14.4,0.9c-0.8,2.2-1.8,4.4-4.4,1.8c-1.3,1.2,0.4,2.6-1.2,3.7
		c-8.6-5.2-20.1,6.1-27-1.8c-2.5,5.4-10.3,2.8-7.9-3.3c10.5,3.6,23.1-7.7,31.5-1c31.8-11,69.5-9.1,102.9-14.8
		c6.9-3,7.2-2.8,10.7,2.9c0.7-1.3-0.9-3,1.1-4.2c2.9,3.9,9.4-3.3,11.7,4.2c2.2-4.3,4.6-4.2,7.3-1.2c3.7-3.5,4.9-3.3,8.3,1.1
		c0.8-3.9,5.1-1.2,6.4-4c2,1.8,0.4,5.3,4.3,5.8c-5.3-9.3,11.3-5.4,15.3-3.2c7.7-1.4,19.3-11.7,26.6-4.4c0.7-3.7,0.9-7.8,5.3-2.7
		c12,0.3,25.4-1.7,36.5-6.1C523.1,678.9,498.9,673.9,491.5,681.7L491.5,681.7z M891.3,653.6c-4.1,7-15.4,1.9-19.6-2.4
		c6.7-2.8,12.9-3.2,19.1-0.6c0.9-1.6-1.4-2.1-0.6-3.4c4-2.1,4.2,4.5,7.8,3.4c0.6-2-3-1.7-1.9-4.3c3.4-1.8,5.2,1.5,7.6,3.1
		c1-1-1.2-1.6,0-2.9c4.9,3.4,8.5-7.1,14.3-0.2c1.4-9.4,6.6-3.3,10.1-3.6c-1.2-7.9,15.2-3.7,20.9-10.1c-1.2-5.1-6.1-6.8-8.8-10.7
		c-2.2,1.4-3.5,4.3-6.6,1.6c2.7-1.2,5-2.3,6.4-5.1c3.4,3.8,22,3.8,22.3-2.1c2.4-1.1,1.8,1.6,3.3,2c1.7-1.6,3.5-3.5,6.4-2.6
		c0.5,1.7-2.2,0.7-1.7,2.5c7.2-1.1,4.8-6.6,10.6,0.6c5.1-5.2,14-1,19.1-5.1c-3,5.7-7.9,5.2-12.6,4.4c-0.9,1.6,1.1,2.3,0.2,3.6
		c-14.4-2.6-22,6.1-35.6,7C958.1,647.8,903.1,661.8,891.3,653.6L891.3,653.6z M110.9,481.9c7.1,1.4,12,8.2,19.4,7.5
		c-2.7-1.5-5.7-1.5-5.8-6c-1.3-3.4-10.7-4.7-14.5-7.6c-1.7,0.3,0.3,1.7-0.9,2.3c-1.5-0.4-3.2-0.9-4.9-1.4c1.2-4.1-3-6.6-2.3-10.9
		c7.2,1.2,6.6,9.9,14.7,10.1c0.1-1.6-3-1.1-1.9-3.6c5.2,1.3,9.6,5.1,15.1,5.8c-2-2.3-5.9-2.2-7.1-5.7c2.7-1,3.9,3.1,7,0.9
		c-9-4.2-17.9-8.3-26.7-12.4c2.5-1.4,4.5-0.5,6.9-0.5c-4-1.5-8.1-3.1-12.1-4.6c-0.1,0.2-0.3,0.4-0.4,0.5c1,0.7,2.1,1.4,3.1,2
		c-1.4,2.1-2.6-0.2-3.8,0.6c0.2,0.7,0.5,1.4,0.7,2.1c-1.3,0.7-2.2-1.6-3.8-0.4c1.3,2.5,4.7,2.7,5.7,5.4c-1.4,1.2-2.3-0.8-3.6-0.6
		c-1.4,2.3-0.3,4.1,1.5,5.9c-9.9-6-7.3-23.6-11.8-34.4c6.6,1.5,12,6,18.6,6.5l-0.2-0.1c2.6,3.4,7,3.6,10.5,5.5
		c-1.1,3.4-5.2-1.2-5.7,2.1c-4.5-6.6-12.8-6-18.5-10.1c3.9,4.4,10,4.7,15.6,8.2c-5,1.4-8-2-12.4-2.2c6.5,4.8,14.3,5.3,20.6,11.1
		c-6.7-1.4-11.3-4.9-17.2-5c11.2,4.8,22.4,9.6,34.1,14.7c-1-3.3-4.3-2.4-5.1-5c3.1-1.1,6.5,1.8,9-1.7c0.8,4.1-3.6,7.5,0.6,10.7
		c-2.7,8.2-0.1,17.2-1.6,26c2.1,3,3.3,4.9-1.8,5.6l0.2,0.1c-6.9-6.7-18.2-8.5-25.6-15.5c4.9,0.4,8.6,3.9,14.1,5.3
		c-3.9-4.4-13.7-3.8-9.3-11.3L110.9,481.9L110.9,481.9z M127,668.9c-6.1-6.4-58.6,4.7-42.4-20.2c-18.3,1.9-56.7-3.1-14.1-8.4
		c2.7,0.9,0.6,2.8,1.6,4.2c9.1-2.2,17.3,1.1,25.6,4.1c-4.4,3.7-14.1-1.4-13.3,7c22.7,8.1,58.2-7.8,75.4,7.4c-1.3,3-4.3,0.9-5.7-0.8
		C145.2,666.3,134.6,662.9,127,668.9z"/>
	<path class="st1" d="M112.9,434.9c3.8,5.1,10.9,4.7,16.3,7.4c0.4-1.5-1.7-1.5-1.4-3.2c1.7-1.3,5.3,3,5.9-2
		c3.7,3.6-0.7,8.2,2.9,11.6c-4.8,2.6-4,5.9,0.3,9.9c-7.6,3.9-14.1,1.5-21.6-5.1c5.7,1.3,9.3,4.1,13.8,4.6c-0.4-3.6-5.1-1.6-6-4.5
		c2.2-1.5,4.1,1,7.3-0.2c-9.5-3.6-18.2-6.9-26.8-10.2l0.2,0.1c-2.2-1.3-4.4-2.6-7.2-4.2c3.4-1.7,5.1,1.6,8.7,0.8
		c-8.2-4.5-16.6-6.1-24-10.5c-15,10.9,15.2,38.9-3.5,39.4c10.4-11.9-9.3-20.1-2.6-31.9c8.1-14.4,0.8-19.4-6.7-31.2
		c15.5,16.9,36.4,22.2,55.6,32.6c-14.9-3.8-27.3-10.5-42.2-16.9c2.4,4.6,6.7,4.5,9.5,6.7c-2.3,1.9-4-0.6-6.9,0.2
		c7.4,4.2,14.7,6,22.4,9.3c-1.3-3.5-5-2.1-5.6-5.1C105.6,431.3,108.6,436.6,112.9,434.9L112.9,434.9z M454.8,68.8
		c-3.3-3.1-3.5,1.4-6.2,2.5c0.2-6.7,1.6-12.7,4.4-19c-2.8,0.3-1.9,3.6-4.5,3.5c0.1-7.3-11-10.5-2.2-18.7c-0.6,3.4-0.7,5.9,2.7,6.2
		c4.4-3.4,8.2-7.6,14.4-8.1c-3.7,5.2-11.8,6.2-13,14c7.2-6.4,15.2-11.4,25.2-15.4c-5.9-3.8-5.8-9.1-5.7-14.8
		c-5.6,1.2-8.5-4.5-13.8-4.3c0.9-3.1,3.2-3.2,5.5-2.7c8.1,5.1,19.5-12.9,22-1c-9.2-6.5-7.1,4-10.5,6.3
		C489.1,38.1,459.1,49.7,454.8,68.8z M890.9,660.2c-18,22.4-54.1,6.2-75.8,14.2c-0.5-2.1,1.9-2.2,2.2-4
		c-11.5-11.7,28.6-2.5,30.5-7.5C862.1,670,876.5,666.4,890.9,660.2z M834.5,497.5c8.3-1.6,9.5-9.4,14.2-14.6
		c4.2,2.5,8.3,3.2,11.8-1.7c2.3-0.3,6.3,1,4.6-3.8c-1.9-5.7-5.2-5.2-10.5-3c-0.6-3.8-3.5-2.5-6.2-2.4c1.4,4.2-5.3,8.4-6.9,3
		c-1.3,3.6-7.1,3.4-3.6-0.2c-7.4-0.7-14.9,2.1-21.3-3c27.1-5.3,57.6,1.1,85.3-1.8c-6.9,8.8-29.7-2.6-35.5,10.6
		c-3.4,8.3-17.3,3.9-21.1,11.4C843.3,495.8,840.3,499.1,834.5,497.5z M459.4,90.7c6.4,5.9,5.9,12.7,11.5,17.1
		c-8,3.3,0.9,16.3-11.1,16.5c-6.4-6.2,6.5-4.7,0.5-7.8c-8.8-3-3.5-9.7-5.3-15.5c-5.8-8.5,1.1-19.2,9.9-21.6
		C464.3,88.1,464.3,88.1,459.4,90.7z M439,161.5c1.2,3.1-0.7,6.5,2.6,8.7c-0.8-4,2.3-6.6,2.4-11.1c4,17.8,0,18.3,19,23.2
		c1.9-2.2-3.7-3.1-0.8-5.4c1.9-1.5,1.8,1.2,3.1,1.5c1.8-2.4,4.1-4.8,6.3-6.8c5.6,13.2-12.9,26.1-20.5,32.8c-2-2.1,2.2-5.2-3.5-6.2
		c5-1.6,8.5-2.6,10.6-6.2c-2.8-1.5-5.6-3-8.5-4.5c-0.3-5.3,8.8-3.9,5.1,2.2c4-2.4,7.6,1.1,11.2-2.4
		C455.7,181.9,430.3,177.1,439,161.5L439,161.5z M565.4,262.4c1.1-0.6,2.3-1.2,4.1-2.2c3.3,17.2,8.7,38.9,6.5,54.2
		c-1.1-2.1,0.8-6.9-4.3-4.4c-3.6-0.9,0-7.4-5.3-7.6c0.2-3.6,6.8-5.1,2.8-10.1c-0.8,2.6,0,5.9-3.3,7c-1.4-3.2-1.4-3.2,3.9-10.6
		c-2.3-0.2-2.6,3.1-5,2.5c-0.9-3.7,2.6-4.5,4.9-6.7c-2.8,0.1-4.9-0.8-7.5-0.4c2.4-2.6,4.8-5.1,7.5-7.9c-5.5-0.8-0.3-3.1-1-4.6
		c-2.3-3.4-4.2,1.4-6.8,0.3c0.5-2.8,4.5-3,4.1-6.2c-1.1-0.1-1.3,2.3-3.2,1.3c0.9-1.6,1.8-3.3,2.7-4.9
		C565.6,262.3,565.4,262.4,565.4,262.4L565.4,262.4z M324.7,502.5c-0.5-1.9-1.6-1.2-2.7-0.7c-3.6-1,1.6-5.3-2.4-6.3
		c-1.8,1.1-1,3.7-2.5,5c-3.7-0.7,0.7-3.5-1.4-4.8c-2.4,2.6-4.8,5.3-7.8,8.6c1.6-5.4,7.4-13.5-2.8-8.4c0.3-5.4-6.6,0.4-6.9-4.8
		c4-2.4,8.7-2.8,14.3-2.8c-2.9-2.7-0.8-6.8-4.6-8.5c7.1-0.1,4.6,6.7,7.4,10.1c2-2.1,5.3-1.4,6.7-4.4c3.5,4.5,9,5.4,12.7,8.9
		C333.9,497.5,328.1,502.2,324.7,502.5L324.7,502.5z M809.3,676.8c-13.2,9.9-61.4,17-69.4,6.2c2.5-1,4.3,0.3,5.8,2.1
		c3.4-2.8,6.6-5.7,11.1-2.5C771.6,677.7,791.5,682.2,809.3,676.8L809.3,676.8z M117.2,680.8c3.7-1.3,8.3,1.8,10.9-2.8
		c5.8,7.4,24.5-7,21.4,5.1c13.2,2.3,26.8-0.4,40.2,0.8c-14.8,6.5-32.3,6.3-47.7,0.4C134.9,682.9,122.2,688.6,117.2,680.8
		L117.2,680.8z M62.6,430.5c7.1-13.3-7.8-15.8-15.6-22.2c-5.2-1.5-9.3,6.3-14.9-0.3c5.3-3,11.5-0.7,17.2-2.9
		c-3.9-4.5-10.4-4.3-13.5-9.5c4.9,2.2,9.8,4.4,15,6.8c-1.4-5.8-5.8-9.9-5.6-15.5c0.5-0.2,1-0.4,1.5-0.7c2,13.8,15.5,14,15.9,23
		C61.1,416.9,72,424.5,62.6,430.5L62.6,430.5z M131.8,503.2l-0.2-0.1c1.2,1.6,3.2,0.3,4.5,1c1.6,4.2-0.4,8.9,1.7,12.9
		c4.5-1,3.9-5.3,6-7.8c2,3.9-2.3,7.4,0.3,10.9c-10.6-4.1,2.1,5.6-6.7,8.3c-0.3-2.7-4.1-1.3-4.6-3.9c1.6-1.5,3.4,0.6,5.5-0.5
		c-5.6-1.6-12-8.8-16.9-6.5c2-1.8-2.2-2.4-0.5-4.4c4.4,2,8.9,4.1,13.9,6.4c2.7-11.7-12.5-13.5-20.5-17.2l0.2,0.1c-2.5-2-5-4-8.6-6.8
		c4.6,0.3,6.7,3.5,10.5,3.3c-2.7-3-7-3.2-8.7-6.9C116,495.5,123.5,500.3,131.8,503.2z M61.5,620.5c1.3,0,3.2-0.2,4.6,1.3
		c-3.5,7.2-8.8,8-20.2,3.2c-2.8,6.5-22.5-0.3-22.8-6c4.7,3.4,12,5.9,14.7-1.1c1.2,2.3,0.6,5.2,3.8,5.9c4.5-5.2,10.6-0.4,16.7-1.2
		c-1.7-2.3-4.5,0-5.1-3.1c3.5,0.5,5.9-2.4,9.2-2.9C63.3,618.3,60.4,618.3,61.5,620.5L61.5,620.5z M294.3,480.7
		c-1.4-1.3-2.8-2.6-4.3-4c-2.6,2.3-2.7,4.6-5.1,0c-4.1,1.6,0.5,3.9-0.2,6c-4.7-9.7-13.2-9.4-23.9-11.5c-5-1.9-3.2,4.7-10.8,2.1
		c2.7-11.7,19.4,0.6,26.3-1.8c5.3-5.7,11.1,1.6,16.5-0.8C296.3,471.8,292.3,477.8,294.3,480.7L294.3,480.7z"/>
	<path class="st1" d="M69.9,415.8c11.2,11-6,25.7,4.6,37.2c-1.1,1.5-1.9-0.6-3.3-0.1c2.4,9.5-4.5,7.7-9.7,10.6
		c2.7-5.4,11.5-12.3,2.7-18.1C63.7,436.5,76.2,427.8,69.9,415.8z M463.1,225.3c-7.5-0.1-14.4,3.1-21.6,4c2.3-5.6-4.6-8.8-2.6-15
		c6,4.1,6.5,9.9,14.6,8.7c-2.9-6.4-7.5-11.6-9.5-19.2c5.4,2,6.6,7.5,10.8,9.8c-3.9,3.6,0.1,6.3,0,9.9c2.1-1.3,2-3.2,4-3.8
		C460.4,221.2,461.8,223.3,463.1,225.3L463.1,225.3z M300.8,17.2c2,0.3,4.3,1,5.1-2.1c1.4,1.3,2.4,2.2,3.7,3.4
		c-2.8-9.7,6.5-9.2,8.4-1.4C319.6,26.7,297.8,26.7,300.8,17.2z M531.8,234.7c12.7,9.3,5.7,31.7,14.4,45.8
		C531.5,269.5,540,248.2,531.8,234.7z M235.8,695.6c-4.7,1.9-9,2.9-13.4,1.5c4.8-8.7,23.5-3.1,29.5-2.9c0.2,3.4-2.6,5.8-5.8,4
		C242,695.2,235.4,703,235.8,695.6z"/>
	<path class="st1" d="M470.6,221.3c1.6,5.1-4.5,3-7.6,4.1c-3.2-9.5-1.6-18.1,6.7-24c-0.3,5.6-1.8,9.6-4.9,13.4
		C469.2,214.9,467.4,220,470.6,221.3z M464.7,324.9c-5-7.5-8.6-20.9-2.8-28.3c-1.4,9,4.3,15.9,3.9,24.3c3.9,0.5,3.1,3.2,2.5,6.1
		C466.9,326.2,465.8,325.5,464.7,324.9z M22.5,395.3c2.1,4.3,6.5,6.3,9.4,9.9c-11.9-5.2-19.7-16-32-22.2c5.2-2,8,1.5,10.8,1.4
		c2.2,6.2,7,8.6,11.9,11.1L22.5,395.3L22.5,395.3z M839.6,479c-0.6,3.3,1.2,4.2,4.2,4c-3.7,3.2-5.5,2.8-7.8-1.6
		c-6.2,2.4-12.2,6.4-19.6,5c0.3-3,3.4-1.2,4.5-2.7c-0.3-1.7-1.9-5.6,1.4-2.9C826.6,486.3,831.2,476.2,839.6,479L839.6,479z
		 M347.4,498.5c-3.9,1.6-5.9,0.8-6.7-2.7c6.4-0.8,12,1.7,17.6,4.2c-2.8,6.1-4.8,6.4-9,1.2C345.1,507.3,343.7,503,347.4,498.5z
		 M531.5,202.3c-0.6-0.9-2.2-0.7-2.6-2.3c2.8-0.5,3.2-2.9,3.8-6.1c2.4,3.3,4.3,6.3,9.7,6.5c-6.1,3.1-9.8,7.1-16.1,8.2
		C528,205.8,531.1,205.5,531.5,202.3L531.5,202.3z M416.8,175.8c-3.7,5.8-4.4,8.4-3.6,12.2C396.7,187.3,405.7,178.4,416.8,175.8z
		 M549.6,620.2c8-2.7,16.2-0.4,24.3-0.7C565.9,622.6,557.7,620.7,549.6,620.2z M470.7,85.9c2.3-1.2,3.4-2.8,3.1-5.1
		c9.4-2.3,7.5,6.7,1.3,9.9C473.7,89.1,472.5,87.8,470.7,85.9z M436.1,181.8c1-1.9-1.8-3.6,0.4-6.2c4.1,8.3,6.5,16.7,7.7,25.4
		C440,195.4,439.6,187,436.1,181.8z M712.7,428.7c-8.8,0.1-17.4-0.8-25.7-3.8c0.1-0.4,0.1-0.8,0.2-1.3c8.5,1.1,17.1,2.2,25.6,3.3
		C712.8,427.6,712.8,428.1,712.7,428.7z M662.9,638c-4.1,3.8-8.9,0.5-12.2,3.1c2.7,4.3,1.6,3.6-2.8,5.1c-3.9-2.3,1.3-4.9-0.1-8.1
		C652.8,638,657.4,638,662.9,638z M206.4,694.6c-2.8-0.8-3.6,0.9-3.8,3.8c-5.4-4.1-12.7,1-17.6-4.9c7,0.8,16.2-2.2,21.3,1.3
		L206.4,694.6L206.4,694.6z M931,526.8c0.9-2.7,5.9-3.9,3.7-8.6c2.7,1.6,2.5,5,5,6.5C934.7,528.8,939.3,537.2,931,526.8z
		 M133.6,623.4c-1,2.5,2,6.7-3.6,6.7c1-10.6-7.2,0.5-10.4-4.6c2.1-2.3,6.4-0.5,7.5-4.5C129.3,622.6,130.8,624.4,133.6,623.4
		L133.6,623.4z"/>
	<path class="st1" d="M206.3,694.7c7.2-3.7,20.2,4,5.4,3.2c-0.9,0.8,1.1,2.1-0.8,3.1c-1.8-1.9-3.7-3.7-4.5-6.5
		C206.4,694.6,206.3,694.7,206.3,694.7L206.3,694.7z M157.8,541.8c2.3-0.2,3.5-2.5,6.1-1.8c-0.8,1.9-1.5,3.7-2.5,6
		c-1.7-2.5-4-1.1-6.8-1.4c3-3.5-4.1-6.7,0.8-10.4C157.2,536.4,157.2,539,157.8,541.8L157.8,541.8z M568.6,640.3
		c6-2.7,11.9,0.9,17.5-1.4c-1.2,3.8-6.6,0.9-7,6C576.2,640.8,571.4,644.9,568.6,640.3z M58.8,631.4c-2.8,2-4.8,3.4-6.6,4.6
		c-5.7-8.7-0.4,3.4-6,3.3C45.4,630.4,50.6,629.3,58.8,631.4L58.8,631.4z M411.1,226.8c-3-2.5,1.8-6.5-3.4-9
		c8.3,0.1,8.6,0.3,10.2,5.3C415.4,223.7,412.1,224.4,411.1,226.8L411.1,226.8z M121.5,517.7c3.8,5.9,9.2,9.3,16,10.5
		c0.3,0.7,0.6,1.4,1.4,3.4C132.5,528.2,118.5,525.7,121.5,517.7z M734.3,680.1c-2.4,0.9-3,2.5-2.3,5.7c-4.2-2.7-7.5-4.8-11.5-5.5
		C725.1,678.7,729.6,679.5,734.3,680.1z M453.6,82.9c-1.2-4.1-3.3-7.8-0.3-12.1c1.9,5.7-0.2,5.3,6.1,4
		C457.1,77.1,457.4,81,453.6,82.9L453.6,82.9z M111,481.7c-6,1.1-9.6-4.2-14.7-5.4c-2.7,3.6-5.6-0.6-1.4-3c5.2,3,11.2,4.7,16,8.6
		L111,481.7z M905,470.8c5.8-1.2,11.3-0.4,16.1,3.5C915.7,473.5,910.5,471.7,905,470.8z M888,600.1c6.2-5.3,1.2-2.5-1.8-5.5
		c1.1-0.8,2.1-2.2,1.6-4.3c3.2,0.5,3.3,4.2,6.4,4C893.2,597.7,892.7,600.9,888,600.1z M112.5,507.3c1.2-1.4-3-5.1,2-4.9l-0.2-0.1
		c3.3,2,4.4,5.8,8.4,8.7c-4.9,0.1-7.1-3.3-10.4-3.8L112.5,507.3L112.5,507.3z M439.4,148.5c-2.8-5-1.1-10.2,5.1-16.9
		C443.1,137.1,440.3,142,439.4,148.5z"/>
	<path class="st1" d="M112.4,507.2c0.2,2.2,3.8,1.5,3.7,4c-1.8,1.3-3.1-0.9-4.5-0.6c-0.9,0.9,0.3,2.2-1.4,2.8
		c-2.5-1.6-3.9-4.2-4.5-7.6c2.8-0.9,4.3,2.8,6.9,1.6L112.4,507.2z M478.7,103c3.9,0,7.1-0.9,9.9,1.4
		C485.1,109.9,485.1,109.9,478.7,103z M489.1,196c-6.6,2.7-2.4,11.9-9.2,14.4C483.5,205.9,480.8,197.6,489.1,196z M628.2,623.3
		c-6.4,3.6-11.2,2.9-13.6-2C618.9,623.7,623.6,621,628.2,623.3z M489.5,172.3c3.5-4.4,7.7-6.2,10.6-9.2c2.3,0.8,1.7,4,0.1,4.2
		C495.5,166,495.5,173.9,489.5,172.3z M455,341.5c-2.6-2.4-7.8-1.8-7-7.3C454.2,334.7,456.3,336.8,455,341.5z M884.2,582.5
		c3.1-0.8,6.9-0.1,7.9-6c0.9,4.8,0.9,4.8-6.5,10.9c-0.1-1.9,0-3.8-1.3-5.1C884.3,582.4,884.2,582.5,884.2,582.5L884.2,582.5z
		 M22.6,395.5c0.6-1.6-1-2.9-0.8-4.9c4.3,0.2,7.4,2.7,10.9,4.5c-3.5-0.8-6.8,0.7-10.2,0.3C22.5,395.3,22.6,395.5,22.6,395.5z
		 M911.9,585c3.6-1.3,7.1,0.6,9.7-3.1c0.4,3-1.9,4.3-0.6,6.5C918.1,586.9,914.2,589.2,911.9,585L911.9,585z M355.7,649.2
		c-14.1,5.3,0.2-15-0.1,0.1L355.7,649.2z M467.5,473.4c-4.4-3.5-8.1-7.6-10.9-12.4C462.1,463.5,464.3,468.8,467.5,473.4z
		 M164.2,548.8c-2,2.1-5.5,1.7-13-1.7C152.5,545.7,158,546.5,164.2,548.8z M163.3,514.4c-3.1-3.8-2.2-11.2,1.6-14.4
		C164.9,504.8,164.8,509.6,163.3,514.4z M690.4,490.9c-1.3-5.5-0.3-11.1-0.8-17.2c3.4,3.1,4,18.2,1.6,22.7
		C688.8,495.4,690.9,492.7,690.4,490.9z M303.3,526.4c-2.7-0.9-4.4,1.9-6.9,2.2c1.8-3.9,12.8-9.8,18-9.5
		C311.7,522.8,305,523,303.3,526.4z"/>
</g>
</svg>
