<svg xmlns="http://www.w3.org/2000/svg" viewBox="0 0 1000 715">
    <style>.st1{fill:#a3a295}</style>
    <g opacity=".2">
        <path class="st1" d="M464.7 324.9c1.1 2.1 1.1 4.9 3.5 6.6 2.1-2 4.2-4.1 6.6-6.4-24.6 47.9-49.7-60.6-40.7-82.8-17.1 46.3 12.9 98.4 16.8 142.5-10.4-6.6-3.8-23.1-14.8-28.7-3.6 13.2 9.5 27.5 1.7 39.9-10.1-8.7-.6-24.7-12.9-33.1-7.1-15.3-.6-37.2-2.5-54.5 1.9-32.4 12.9-58-18.3-78.8-7.8 2.9-15.1 1.3-22.7-1.1 1.2-3.2 2.9-3.1 5-1.9.9-1.5-2.5-2.3 0-4.2 1.4 1.7 2.9 3.5 4.9 5.9-1.1-3.2-2-5.7-3-8.5 3.1.5 2.7 3.4 4.5 5 1.1-1.8.9-4 2.8-5.4 2 .1 2.1 2.9 3.8 3.9 1.2-2.2-2.2-3.4-.7-5.8 4.1 2.9 10.3 3.9 7.1 11.7 2.7-.5 4.1-1.2 5.3-2.5l-.1.1c21.2 2.5 2.1-28.9-11-24.1-3 .2-3 .2-4.8-1.8-7.9 10.7-12.5-9.6-1.9-11-.5 2.8-3.8 3.8-3.1 6.7 20-11.9 23.5 20.7 39.6 19.3-5.6-5-8.9-10.8-12.3-16.8 3-2.1 5.3 1.3 8.2.2-3.6-2.4-5.2-7.5-11.2-5.7 4.3-3.4 8.1-4.4 12.1-.9.7-1.9.5-4.9 5.1-3-3.4-4.6-4.1-9.5-9.4-10.4 1.2-2.9 3.1-.3 4.6-1.3 1.7-5 3.4-10.3 5.3-16 4.7 8.2-8.3 17.5 1.4 26.2 1.4-2.1-.3-5.4 2.7-6.6l-.1-.1c4.5 15.4-8 35 5.6 47.6-.6 2.5-3.2 3-4.8 4.7 12.2 2 30-5 44.7-3.6 7.2-3.2 20.2 5.7 23.6-2-5.4 2.7-7.5-3-11.4-4-7.5.5-18 2.7-23.3-3-.2-.8-.3-1.6-.5-2.5 8.3 7.5 5.8-12.7 15.6-2.2 3.4-6.6 4.6-6.3 11 2.2 6.6-.8 2.2-6.9 4.8-11.2.8 5.6 2.9 9.1 5.5 12.8 1.5-8.3-4.3-14.6.2-22.6 2.7 1.6.6 2.8.9 4.4 3.7-.5 4.5 3.1 7.2 4.9-1.2-2.5-2.5-5-3.7-7.4 1.1-1 1.7.2 2.5.1.3-1.9-2-2.6-2-4.6 5.9-1.1-.5-4 .7-6.2 2.6.5 2.9 3 4.7 4.5 6.9-2-3.5-9 2.6-8.6-.6-5.3-6.6-8.2-6.8-14.2 3.5.2 4.4 2.6 5.6 6.6 2.4-6.4-2.8-11.5-.2-16.8 8 10.9 8.3 25.4 7.8 36.9-.8 6.7-2.8 11.8-1.5 18.4 9.3-3.3 18.4-8 28.4-.7-.3-3.9-3.1-4.9-3.6-7.5-2.7 4.4-4.9 0-7.7.4 5.1-2.4 4.2-7.5 6.1-11.3-2.2.7-2.9 3.3-5.5 3.8-.9-6.6 1.5-11.9-2.9-18 .8-1.1 1.8-2.3 2.9-3.7-7-.3-2.8-1.3-2.5-5.2-8.9-9.2-11.3-25.5-17.6-37.1-5.9-3.1-7 6.8-11.8 2.4 3.4-5.2-.2-9.6-2.3-14.4 2 12.5-4.2 45.4-20.9 41.3 5.3-.6 3.4-4.9 5.4-7.3 4.6 2.4 10.2-10.3 7.7-15.1-.3-4 6.8-5.2-1.5-6 1.9-2.9-1.8-4-2.7-6.5 4.8 3.9 9.6.1 4.5-5.4-2.6-3.3-6.8-4.3-7.4-7.8-3.8 3.6-14.4 2.2-19.5-2.5 20.6-3.9 23.7-9.1 25.5-29.2-4.8 6.7-4.8 6.7-9.3 4.7-1.7.2-.9 2.8-2.7 3-.5-7 2-10.4 8.6-11.6-2.7-4.1-19.5-6.6-26.2-3.9 4.2-9 32.5-4.9 32.6 9.1 5.5-7.7-9.5-17.4-16-15.7.8-8.4-7.9.6-13.5-.1 6.5-7.2 17.7-3.4 11.4-16.8.9-1.7 2.8.6 3.7-2.2-4.5-1.8-9.2-3.6-14.5-5.6 1.5-6.7 14.7.6 5.6-10.8 2.5-3.3 4.5 5.2 7.1 0-7.2-4.8 7-4.9 5.4 2.1 1.7-.4 3-1.3 4.6-.5-3.8-6.2-5.4-13.6-11.9-17.6 4.6-4.2 10.8 5.2 15.6 1-.5-5.1-5.9-3-9.2-6.5 18.8-2.8 20.1 13.4 30.6 23.2 4.3 1.6 2.7 5.8-1.5 4-5.9-1.1-7.2-9.6-13.6-11.9-2.8 5.3 5.4 7.8 3.1 12.8 3.7 2.7 7 6.2 11.9 4.8-1.7 8.4.5 2.3 5.5 7.5-3.7-.2-7.1-1.6-10.7.6 2.8 3.3 8.2 4.3 7.6 10.5-2.5-4.8-11.2-6.4-14.1-3 8.6 2.7 11.4 10.3 17.2 16.2-5 .2-7.2-4.1-10.8-6.7-1.9 4.4 1.8 4.8 4.2 6.4-4.4 5.1 4.7 7.2 2.8 11.9-2.1 1.1-2.2-2-4.3-1.2 1.1 6.8 8.4 8.5 11.6 13.3-7.1 1.2-9.7-5.8-15.1-8.5 5.9 9 6.2 13.9 17.4 18.1-6.5 4.5-15.3-6.2-23.5-4.9.7 3.8 5.2-.3 6.3 3.3-4.4 1.2-8.1-.3-11.9-3.2 2 5.8 2.2 9.1-4.1 6-.9 2.7 2.8 3.9 2.1 6.7 34.3 1.9 37.1 44.4 55.4 63.5-1.8 2.6-3.5 4.9-5.4 7.6 14.2-13.5 13 11.6 9.9 21.6-14.1 17.5 14.7 34.4 4.2 49.7l.2-.2c-1.9.8-2.8 3.2-5 3.6-.2-3.4 4.7-4.3-.9-5.2-.3-2.7 3.3-3.2 3.7-5.9-3.4 1.9-2-.2-1.5-2.9-1.4 1.1-2.6 2.1-3.8 3.1 1.1-2.7-3.5-4.5-.3-7.2-2.5-.1-2.7 2.2-4.8 2.3-1-4.1-2.1-8.1 2.1-11.3-1.4-1.2-2.1 1.5-3.5-.2-.1-2.2 2.9-2.1 3.5-4-1.3-.2-2 1.9-3.9.9.7-2.3-1.7-5.5 2.5-6.9-2.9-1.1-6.2 1.2-2.5-3.3-1.2.4-2.1.6-4.4 1.3 2.6-2.5-.6-5.4 3.9-7-8.7-2.4-16.4-2.8-24.4-2.5-5.6 39.8 29.8 78.9 29.9 121-8.5 13.1-.8 30.1-7 45.4.2 8.4-10.6 20.2-2.3 26.1-12.2-1.9-6.4 22.6-1.1 28.4 4-5.6 7-12.3-1.6-13.5 1.4-2.1 2.5-4.5 6-.8.2-12.6 4-24.8 5-38.1 4.8-7.1 7-12.5 6.8-20.9-3 4.4 0 11.4-7 15.1 8.9-28.3 7.6-57.6-1-83.8 4.7 8.5 8.1 17.4 9.4 27.1 9.5-.3 15.7 7.5 24.6 7.7-7.5-2.4-14.7-10.7-1.7-8.6 2.9-6.8-3.9-6.8-6.6-9.8 3.6-4.8 5.1 1.5 8.2 1.3 1.2-3.1 1.2-6.5 1.5-10.4-23.7 11.7 8-44.1 13.8-53.4 1.4 21.7 2.9 43.3 4.3 65.1-7.1.4-6-7.3-11.1-8.6-.4 3-.8 6.2-1.1 8.8 21.5 11.1 17.1 26.9 12.5 46.7 2.5-5 9-4.2 6 1.9 2.5-.5 2-2.6 3.2-3.5 4.9 1.7 5.3 1.2 5.3-5.3-1.7.3-1.9 2.9-4.3 2.6.5-13.8 11-1.2 11.3 6.3 1.9-4.1-3.5-8 1-10.8 2.3.2 3.1 5.6 6.2 1.7-.4-2-2.6-.3-3.2-1.7 2.8-3.9 6.8-2.6 11 3.7-1.7 2.8-4.9 4.5-5.9 8.5 7.1 2.4 3.9 12.5-2.6 7.8-1.7-.8-3.3-3-4.4.9 7.7-1.8 2.8 4.1 3.9 6.3 9.2 1.4 10 2.8 7.4 12.7 6.5-.9 6.1 4.7 7 8.2 1.4 5.5-5.5.9-5.9 4.6-3-1.5-4.2-4.8-8.5-5.2 3.4 3.9 8.6 8-1.2 10 5.8-.5 10.5-4.9 16.5-1.9-2.6-5.4 5.6-12.2 7.9-7 1 6.2 12.2 8.2 4.2 14.1-11.6 8.8 4.7 8.5 3.8 16.5-1.7.9-4.3.2-5.6 2.4 1.3 3.8 1.3 3.8-2 5.4 4.5 3.7 10.7 1.9 15.3 4.2 1.1 2.2-.9 2.9-1.4 4.5 3.3-.9 4.6 2.5 7.9 3.4 1.8-14.4-10.8-12.8-9.6-26.1-7.5-48.5 29.8-12.5 52.4-68.8 11.4-5 18.3 25.1 26.1 33.1 8.7 9.6 32.5 5.1 32.4 23.2-1.9-8.1-12.2-1.2-11.5-7.7-2.4-.1-3.5 4.5-6.3.1-.2.6-.3 1.1-.5 1.7 2.9 2.7 5.8 5.3 8.9 8.1-39.8 11.5-10.5-21.4-44.9-15.5 1.8 2.2.1 4.6.5 6.9 4.7 1.8 10.1-.6 15.9 2.4-4.9 1.4-8.9.1-12.8.8-1.2 1.6.6 3.5-.5 5.6-3.1 1.1-6.5.5-9.7 0-1.2-2.2-.4-4 .3-5.9-4.7-1.2-5-4.8-6.7-3.4-.6 5.3-4.2 1.7-6.4 2.1-7.9-1.5-7.3 5.3-1.2 7.9-34.3 6-25.1 1.8-9.3-20.2-2.7-.8-4.9-.3-6 1.2-4.3 6.9-15.3 0-18.3 6.8-5.3 10.9 10.9 16.9 5.5 28.9 1.7.5 1.3-1.4 2.7-1.5-.1 7.5 6.5 5.5 10.4 7.5 2-2-.5-4.8 1.8-6.8 2 13.8 17.8 7.2 28 9.4 7.7 1.3 4.5-4.5 7.1-8.5 2.8 2.2.2 5.6 1.9 8.7 7.2-.3 14.7-.7 22.4-2.3.9-3.9-3.5-6.7-1.7-11.1-12.4-.6-24.3.8-36.1-.8 21.9-5.2 48.2 4 65.9-14.3 1 8.5 6.2 22.7-5.4 24.4.5 19.4 1 38.3 1.6 57.8 13.9-6.7 19.6-22.6 36.3-23.5-12.9 18.6-20.1 39.3-24.8 61.8 7 2.7 12.3-2.4 19.9-3.4-4.7-1.1-8.5.4-11.9-1.6 10-2 21.3-2.2 27.3-13.3-.9 7.8 5.7 7.6 8.4 14.9 3.1 5.6 13.7-2 18.5-1.7-1.2 3.8-3.6 5.1-9.7 5.6 2 7.9 1.6 8.8-4 7.6 1.5 11.8 23 11.2 2.5 18.9-2.1-2.1 1-3.7.2-5.9-9.5-1.2-18.4 3.5-27.7-1-3.1 11.1-16.8 7-24.2 4.5 7.2 4.4-3.8 8.5-8.7 6.3-.3-1.6-1.2-3.2 0-5 1.8-.2 3.7-.4 5.5-.6-4.2-3.8.2-2.3 2.6-4.2 1.3-2.4-2.3-2.3-2.3-3.8 3.4-2.5 4.8 1.1 2.3-4 6.6-.9 13.6.9 20.2-.8.4-2.3-2.1-4 0-5.7-1.3-1.1-3.5.6-3.9-1.8 2.6-3.1 6.1.6 9.4-.9-11.4-3.2-14.1-1.8-15.5 7.8-4.7-1.2-5.1-6.8-9.5-8.9-4.5 9.4-6.7 20.2-15.1 27.8h6.4c-8.1 7.7-27.2 2.2-33 11.9 6.5 7.7 17.5-5.4 25.8-5.1.9 2.3-1.7 2.2-1.5 4.5 7.3-2.3 14.5-6.4 23-1.3-2.2-8.2 3.7-8.1 6.6-3.3 15.1-1.2 30.1-5.1 45.1-3.3 19.9-6.2 9-36.4 20-51.2 11.1-15.8 34.4-61.6 54.3-35.5-6.5-2.8-14.4-2.3-15.5 6.4 7.3 2.4 10.6-.9 15.4-6.5 4.6 2.2 1.4 8.1 5.4 10.7 1.8-.1-.1-2.7 1.9-2.7 6.3 6.6-8.6 17.9.2 22.5-8.2 6.2 3.3 3.6 2.2 6.4-12.1 4.4-5.7-6.8-9.2-11-15.8 17.1-31.5 34.1-47.5 51.4 5.1 2.7 10.5 4.1 17.4 5.8-2.7-3.5-6.7-4.9-6-9.7 4.5-4.4 6.1 2 9.4 3.8 3.1-4.1-5.6-7.3-2.7-11.8 2.6-3.3 6.1 1 5.8 4.1 4.7-1.6-.9-8.6 2.5-12.4 2.6-7.7 5.8.1 7.2 3.7 2.9-2.3 5.7-18 8.2-5.8 3.3-3.9 6-.5 9.4-.5-2.1 4.5-4.4 7.1-9.7 4.2 6.7 6.5-.2 9.8-5.1 3.4 4.2 5.8.6 13.1-7.2 9.4-1.2 1.6-1.3 3.7-3.4 4.4 13.8-3.6 5.3 14.7-2.7 3.5-.4 8.2 14.1 8.2 18.7 2.9 1.7-2.2 4.3 1.6 6.5 1.5-2.4 4.2 1.9 8.1-5.9 9.2.6 1 1.2 2.1 2.1 3.6 1.9-1.1 3.8-2.8 5.7-.4 1.7-2-2.5-3.5.2-5.1 6.1 2.2 11.1 7.2 18.1 8.4-4.3-3.9-1.8-6.5 1.3-9-2.5-4.5-3.6 2.5-6.2-.1-1.3-1.6 3.1-1.9 1.8-4.1-3-.9-2.4 3-5.6 4.2 2.4-4.7 3.5-8.8 3.3-13.2 6.6 6.6 10.4 5.5 10.7 14.3-3.2-25.3 19.4-6.8 4.5.4 4.2 3.1 14.8-1.5 5 6.9 1.3 5.3 9.9 3.7 8.7 11.1 10.2-5.8 11.4 2.2 17.5 5.9 7.1.6 9.6 5.5 15.6 10.8-3.9 1.1-8.1.2-11.2 2.4-2.6-1.7-4-7.1-7-2.5-2.7 5.1-4.8-1.4-1.3-3.7-3.3-.3-2.9 2.3-3.5 3.8-2.2-.1-.9-2-2.1-2.9-6 12.2-17.1-4.3-22.7 7.2-4.6-9.8-18.9 1.1-25.8-4.1 1.9-2.9 5.4 1 7.2-2.3-1.3-1.4-3.6.5-4.7-1.2.2-1.9 2.7-1.1 3.4-3.2-4.4 1.9-5.3-2.9-8.8-3.4 2.5-4.1 7.6.9 9.7-3.5-4.5-2.3-9.2 1.9-14.9-.6 5-1.1 8.8-1.9 13.3-2.9-9.7-6 5.1-8.8 9.5-4 1.5-.9.7-2.4.9-4.1-4.9 1.3-9.7-2-14.3 1.1-6.4-7-14.4-1.5-22.2-.2-.9-1.4.5-4.7-3.2-4.7 3.3-.8 4.8-2.4 4.3-4.5-8.6 2.4-17.6 3.3-26.6 5 1.2 3 5.6-1.2 6.1 2.7l.1-.1c-3.3.7-1 3.1-1.4 5-4-.3-7.9.8-11.7-.9 1.3 4.9 0 5.1-5.7 3.8 1-1.3 1.6-2.2 2.3-3.1-5.2-1.4-8.4.7-10.6 5.1 1.5 2.5 3.7-.3 6 .9-1.6 2.1-3.1 4.1-4.7 6.1.1-3.8-1.5-5-4.7-3.9.6-10.4-10.1 5.3-16.6 3.3-7.3 2.3-16.6 15.2-11.2 23 7.3 54.3-103.1-16.3-129.5 18.3.7 2.2 4.2 1.7 4.2 4.6-16.7-3.7-32.6 12.5-47.7 20.3 13.5 10.5 34.5 7.1 50 16 4.6 1.5 2.9 9.1 11.9 4.3 8 20 25.7 19.4 38.6 3.4 11.7 1.4-5 17.2-12.4 16.8-16 2-34.6-2.2-49-2.5-7 5.4-11.4-.6-16.3-3.7 1.8 8.8-5 2.6-7.3-1.6 1.1 5.6-4.5 5.3-6.9 5.4-4.1 7.2-5-1.7-6.4-4.9-.6 2.9-1.1 5.1-1.6 7.6-5-1.8-10.8 3.1-15.1-3.1-3 2.8-5.6 2.4-7.7-1.4-2.3 3-4.8 2.5-7.3.3-4.2 4.9-21.4 8.1-23.1-.4-.5 2.7-.9 6-5.1 3.1-1.5-2.6.8-7.3-3-8.9.2 3.1 2.2 6 0 8.6-2.9.2-4-2.2-5.8-3.5-3.6 3.6-40 5.6-46.8 1.1-4.3 6.9-20.3 11.7-22.7 2.9.3 6-5.2.8-6.2 3.9-1.5-.8-.5-2.6-2-3.1-1.3 5.4-7.5 3.2-7.8-2.1 5.2 2 6.8 1.1 6.6-3.7-2.9 3.7-4.4 3.4-12.7-2.7 2.5-1.3 2.5-1.3 5.9 1.1-3.3-6.3-13.1-6.6-9.3-16.9l-.2.2c2.8 1.4 3.5 5.8 7.8 6-6.6-7.4 42.8-11.5 43.4-4.9 15.7-5.8 32.4-.6 48.5-1.5 14.9-1.9 33.3-4.8 45.1 6.4 1.8-.4-.1-2.3.5-2.5 5.2.5 10.2-1.4 16.2-2.2-13.1-5.4-26.9-7.9-40.9-13.6 17.7-14.7 43.5-19.1 57-34.6 7.2-.3 9.3-1.7 11-7.5 2.6 2.4 7 1.2 11.3-3.6-5.1 1.7-10-3.5-14.2 1.3 2.3-.6 8.3 1.6 2.9 2.4-6.8.5-11.4 7.5-20.3 2.2 1.8-.2 3.6-.4 5.7-.7-1.7-1.9-4.4.6-5.1-1.1-.8-3.5.4-5 1.6-7.7-4.1.1-8.2-1.4-12.3-.2 2.6 2.4 6.2-.1 9.2 2.6-3.4 2.6-6.5 1.5-9.7.9-.7 4.4-1.9 4.9-8.1 3.2 1.2-1.7 3.2-.8 4.5-1.7.8-6 .8-6-.9-7.7-2.2 1 .4 2.7-.8 4.2-2.6.1-4.8 3-8.2 1.8-.2-2.8 4.1-4.6 1.6-7.7-1.7 5-5.8 6.6-12.6 4.6-1.1-1.2.8-2.4 0-3.6-2.8.2-2.6 6.2-6.8 3.6-.7-2.5 2.3-1.5 2.7-3.5-3 .9-5.8 1.5-8.3-.1-2 .9.4 3.3-2.4 3.8-2.5-1.2-2.1-3.4.1-5.7-1.1-2.3-4-2.1-4.3-4.7-7.2 5.6-7.2 5.6-11.7 4.7-.4-4.1 5.8.8 5-4.1-6-.5-12.5 4.9-18.9 6.7-10.6-3.7-21.5 3.3-31.9-1.2-2.3-1.8-3.9.1-5.4 1.8 1.2.7 3.2-.3 3.8 2.2-3.8 1.2-7.7.9-11.3 1.1-1.2-4.2 5.9-.7 4.5-5.5-5.8 6.2-14.4-1-18.6 6.5-5-8.7-13.7 4.3-17.4-5.5-3.8 8.8-12.5-1.3-19.7-.3.1-2.6 3.6-.8 3.3-3.5-4 .4-7.9.8-12 1.2 1.9 3.2 5.7-.8 7.5 2.3-.6 2.3-3.8.3-4.2 2.8 1.7 1 3.7-.9 5.6.4-6.9 10.7-10.5-12.4-22.3-4.1 1.8 2.1 5-2 6.7 2.4-11.4 1.4-22.7 1.2-33.9 3.5-1-3.2 2.5-2.7 3.5-4.2-1.2-6.3-1.6-6.5-6.2-4.2 1.1 1.5 2.8.1 4.4 1-.7 4-4.1 1.7-6 2 5 10.2-7-2.7-11.7 1.9.1-3 2.6-2.4 3-3.9-2-2.3-4.1-1-6.4-.1.7 1.1 1.3 2.1 1.9 3.1-1.3 2.1-9.5 3.3-13 2.1 1.8-2.7 5.5-.7 7.7-3.8-16.6 3.7-33.5 4.8-50.1 8.2 5.4 0 5.4 0 2.4 8.6-.6-7.2-7.9-6.2-11.4-11.3 2.7 8-6.6 14.1-7.5 6.7-7.7 8.1-16.8 1-25.7 2.2 5.9 6.7 16-.4 21.2 7.3-3 2.3-11 7.4-3.8 10.8 2.5-1 2.7-4.6 5.8-5.3 1.5 3.8-2.8 6.1-2.5 10.1 5.8-6.7 2.4 3.1 6.2 3.8 3.3.3 1.7-3.1 3.3-4.6 2.8 1.9 4.3 0 5.7-2.4l-.1.1c7.4-7.4-3.9-16.8-11.7-12.5-1.3-1.4-1.2-2.7-.6-4.5 35.7-5.6 8 46.2-7.6 19.5-8.9.6-23.6 1.9-29.9-2.3-5.4-.1-11.2-1.1-14.5 5.4 3.1 26.7-37.8-1.5-5.9-4.1-13.4-4.2-27.7-2.2-38.4-12.4 12.8 2.5 25.5 6.3 39.1 3.7.1-3.3-1.1-8 5.3-8-8.2-2.9-7 5.6-13.3 7.3-1.4-4 4.1-5.2 4.3-10.2-4 3.8-7 6.6-10 9.4.3-3.9 4-5.2 5.2-8.6-12.8-6.4-17.8 4.1-26.2 2.1.3-2.5 3.4-3.2 4.2-6.3-2.1 1.8-3.8 3.2-5.5 4.7-1.1-2.2 1.5-2.6 1.4-4.1-6-1.1-10.3 4.2-17.1 3.5-3.3-4.8-7.7.2-12.9 1.2 7.9 2.9 15.6 2.2 22.8 4.1-19.3 9.3-48.6-13.4-68.8-9.3-1.2-2.4 1-2.1 1.8-2.9-.8-1.1-1.5-2.1-2.2-3.2 1.3-1.3 16 2.9 18.3 5.2 1.5-2.9 3.9-1.1 6.1-1.1.9-1.3 1.8-2.4 2.4-3.2-.3-5.4-7.5-4.4-6.9-9.8-3.8.3-4.6 4.5-8 4.5.2-1.9 2.2-2.5 2.9-4.4-.2-1.2-3.5-1.6-1.7-4-5.3 1.5-9.3.7-15.1-3 .1-1.6 1.9-1.7 2.7-3.2-5.2-1.2-4.9 6-9.5 2.7-5.1-5.5-8.4 1.3-13.3 1-.1-2.1 2.3-2.2 2.9-3.8-1.5-1-1.6-1-9.2 1.4-.4-2.3 1.5-2.9 3.1-3.7-3.8-3.9-6.5.1-9.7 1-.3-1.9 2.1-2.2 2.1-3.6-2.8-.2-7.2 3.1-3.7-1.9-2.3-2.9-4.7-2.2-6.8.1-1.4-1.8 1-2.2.1-3.6-1.4 1-2.7 1.9-4 2.9-1.4-1.6 1-2.4.4-3.7-2.3-.8-3.4 1.6-5.4 2.1-1.1-2.5-4.1-2.1-5.8-3.8.3-2 3.2-1.6 3-4.2-4.8-3.4-7.7 4.6-12.2 7 .4-5.9 4.9-7.4 8-10.1-3.3-5-8.2-7.2-13.7-8.4 9.3 2.9 13.4 11.2 1.1 9.7 1.3 3.4 2.2 5.2-2.7 4.6-.6-2.8-4.3-3.1-4.8-6.1 2.6-2.2 7 1.3 9.4-3.1-4.7 1.9-7.9-.9-11.7-1.6.9-3.2 4.1-2.5 5-4.7-14.6-4.6-6.5 13.4 2.3 15.4 15.5 10.6 37.2 18.1 53.1 24 5.3-.2 16.2 3.9 18.7 7.8-3.9 1.9-9-4.2-13.9.8-1.4-4.1-9.3-6.1-11-2-.6 5.8-6.3 5.1-10.4 6.6-3.9-7.9 11.3.1 8.5-10.9-1.3 7-10.3-.3-11.6 8.2-1.5-3.7-2.5-6-3.7-8.9 4.1.2 8 3.8 11.6-.1-2.5-1.2-2.5-1.2-5.2.2-4.7-6.8-15.7-.1-24-.7 2.7-5.2 8.8-2.4 12-6.8-7.2 3.4-18.8-1.7-21 5.7 2.2.8 4.4-2 6.8-.2-.3 2.3-5.3 1.7-3 5.4-2.9.2-3.3-2.6-4.9-3.1-2.6 3.8-1.5 5.2-5.5.7-1.5 2.7-5.4.2-7.2 3 3.7 2.7 1 2.4-1.8 3.8 1.2 1.3 4.1-.6 4.1 3.4-3.9-2.5-7.4.1-11.7 1.3 1.2-4.1 4.6-4.4 4.9-7.3-2.8-3.3-3.4 1.3-5.2 1.6-1-6.1 5.1-11.4 14.4-12.7.7 2.1-2.9 3.8-.8 6.3 6.5-3.7 4.9-16.5 15.4-11.7.7 1-1.5 2.1.2 3 3.6-.8 7.6.1 11.8-2.9-4.2.4-7.3.1-10.4 1.2-.3-2.5 2.1-2.8 2.7-4.4C107 599 101 601 95 603c-.1 1.7 5.2 4-.5 5.4-3.2-5.2-7.2 2.2-11.1-.1-.2-1.8 1.6-2.2 2.9-3.7-8.5-2.9-3.5 7.8-11.6 6.2-1.2-2.7 2.2-1.7 2.2-4.9-5 2-21.4-.6-14.7 8.6-4.2 0-4.2 0-2.4-11.1-5.7 7.1-12.9 5.4-19.5 6.7 2.4-2.5 4.6-5 6.1-8.4-5.8-2.7-4.8 6.3-9.6 5-4-1-7.7 3.2-12.6.3.1 8.3-6.3 5.9-10.8 6.7 1.4 3.7 3.6 2.3 5.9 1.8.6 1.7 1.1 3.4 1.9 5.6-8.2-.1-9.2-6.5-11.4-11.8.7-1.5 2-2 3.9-1.9-.8-1.3-2.8.1-3-1.8 1.5-2.7 4.7-.3 6.7-2-1.2-2.2-4.1-.2-5.2-2.2 4.9-4.6 13.9-1.2 16.5-10.3 1.6-4.4 7.4-3.6 8.9-8-6.8-2.1-13.8-7.7-8.7-14.5 2.4-.1 3 2.1 4.7 2.6 3.8-1 2.7-4.3 3.1-6.9 6.7 3.4 3.9-4.4 5.3-8.8 1.8 1 2.9 2.6 4.6 2.8.4 3.9-4.8 5.4-2.8 9.7 2.5-1.5 1.5-7 6.3-6-3.7 2-2.4 6.8-5.6 9 3.5 1.5 3.8-4.9 8-.4-2.6 2.6-6.3 9.3-2.6 11.6 4.1-3 4.9-9.4 12.5-5.1-.2-2.5-3.1-2.2-2.6-4.6 3 .1 6-.2 6.6-4.2 7.1 5.9 13.8 4.2 15.7-3.8-1.9-1.2-3.4 3.3-4.8.4-1.1-3.7 5.7-1.6 6.1-5.2-1-2.4-2.8-3.6-5.7-3.4 2.2-5.5 6.9-1.7 10.1-3.2-1.1-2.1-3.8-7.4.7-7 4.3 1.8 2.2 7.8 7.2 9.6 1.6-1.8-1.3-3.1-.2-4.7 5.1 1.5-1.1 7.6 6.5 2.9.6 1.9-1.9 3.2-.6 6.1 9.5-2.1 19.1-5 29.4-5.9-1.4-5.3-4.7-8.5-4.7-13 4.5 3 4.6 12.9 11.1 8.8-1.5-1.8-3.6-2.1-3.3-4.6 2.4 1.7 4.2-1.5 7-.6-5-.9-1.3-6.2-4.7-7.9 3.4.4 6.3 1.8 8.5 3.5 1.9-.1 1-2.4 3.7-2.1-1.6 4.2-4.3 8.7.7 12.1-1.2 2-2.1.8-3 .3-2.2 7.8 9.9 7.2 8.3 12.6-2.3 5.7 9.1 8.8-.2 15.1 4.6-.8 10.7.1 10.7 6.1 1.9-.2 3.5-.3 5.2-.4 1.4-1.5-.2-3.8.8-5.5 5.2 2.1-.7 7.7 3.1 9.5.8-1.9 1.9-3.8 5-2.4-.4-2.9-.7-4.8-.9-6.6-1.3-1.6-2.4 1.2-3.8-.1 5-7.3-9.1-7.1-3.1-15.8-3.6-1.3-8.4 4-11.1-1.9 17.9 7.2 11.9-29.2 6.8-36.5 4.7-9.1 2.9-14 0-18.1 5.2-13.7 5-33.7 14.4-49.3 16.5 5.3 33.1 13.1 51.4 19.5-8.8 3.9-11.6 13-18 18.5 5.1-.8 12.6-2.6 17.7-5.2-1.5-2.2-2.7-4.8-6.2-4.9 7.3-1.8 14.5-.4 21.8-.7-.5-2.2-1.3-4-3.7-4.5.1 3.2 1.5 3.4-3.4 3.2-1-1.6 1.2-3.2-.5-4.6 12.6 2.5 18.7-1.7 30.9 0-1.7 5.3-7.6 3.3-9.8 6.7-2.3.1-2.3-2.1-3.8-2.9-1.2 1.9 2.2 3.4.2 5.5-5.6-4.5-7.4 1.2-10.1 4.1-2.1-.3-.1-1.8-1.4-2.6-5.4 5.8-12.3 9.6-20.2 12.8-3.4-1.4-9.3-1.3-12.7 1.8 4.2-.4 7.5-.7 11-1 .9 6.8-5.1 5.1-8.1 7.4-.4-2.3 2-2.5 2.1-4.5-9.2-2.2-4 8.9-13.9 8.7.8 1.6 2.5-.4 3 1.8-4.6 2.8-16.2-3.9-18.3 7.6 11.8-5.7 25-2.3 37.3-7.4-.5 3.3-2.2 5.8 1.2 6.9-1.5 6-6.4 1-9.3 2.9 20.7 21.7 26.8 55 28.9 83.7 2.3-7.8-.7-15.7 1.2-23.5 2 10.1 3.7 20.1.3 30.2 5.6-10.5 1.5-21.7 2.6-32.5 1.7 3.8 2.4 7.6 2.6 12.8 1.1-4.7-.4-8.2 1.2-11.4 2.6 8.1 1.7 16.4 2.2 24.7 2.2-28-2.9-74.8-29.7-86.6 1.6-1.3 1.4-3 1.1-4.5 5.9-2.3 12.5.3 18.3-2.8 6.2 5.9 18.7-.8 25.8 3.3 2.2 1.9 3.5.3 5.1-.4 1.8 6.8 5.3 7.6 12.5 3.3 0-1.2-1.5-.7-2.3-.9-.1-2.5 2.7-2.4 3.6-4.4-2.7.6-5 2.5-7.8 1.4 3.3.1 2.8-6 7.2-4 .8-5 14.1-4.1 12-10.6 5.3 2.9 7.2 2.3 10.6-3.2 1.9 9.8 9.8-5.9 13 4.7 1.9-2.1 3.9-2.8 5.4.6 1.4-1.1 2.6-1.9 4-2.9 1.2 3 4 3.9 5.8 6.1 1.2-1.4 2.1-2.8 4-2.5 1 1.8 3.3 2.4 11.9 2.9-1-16.2 17.6-1.8 25.2 1.5-3.7 3.5-7.7 1.4-11.8 2.2 4.4 1.9 9.5-1 12.6 5.1 2.5-5 3.5-6.6 6.3-11.8-12.6 1.8-4-13.2 4-8-35.8-5.4-3.1-20.1 15.2-14.6-.9-9.1-21.3-2.6-27.8-11.8-8.9-2.8-1.6 14.7-13.2 8.1-1-1.2 1.2-2.4-.3-4.2-10.8 9.9-23.7 10.5-38.1 8.4 4-5.2 6.9-10.4 13.5-13.6-5.6-2.7-10.3-5-15-7.2 11.1-13 32.8-6.4 47.1.9-2.1-2.7-3.4-4.3-4.7-5.9 18.2-16.2-4.6 17.2 32.2 2-.8-2.9-1.6-5.3-2.4-8.2-15.9 5.6-41.9-9.6-13.3-14-1.1-1.6-2.1-3-3.2-4.5-10.7 3.2-19.6-.9-29-5.9 4.3-4.5 8.3-7.6 14.5-7.3-2.3-3.1-7.3-4.4-4.7-8.9 7.9-.4 16.1-2.8 23.7 2.6.2-.4.3-.8.5-1.2-1.8-30.9-18.6-18.8-33.9-37.3 3.2-14.9 2.1-21.7 20.2-11-15-48.6-29.2-97.4-43.3-146.3-.5-1.9-.1-3.9-3.2-3.7-3-1.2.4-5.2-4.7-2.3-3.5-6.6-10.4-8.7-6.5-17 3 1.9 5.7 3 7.5 5.6-2.7 1-9.2-2.6-5.3 3.3 1.7-2.8 6.9 1.3 7.3-4.5-5-2.5-9-5.9-4.8-12-1-2.1-2.9.4-3.6-1.4-4.3-25.8-22.9-115.3-43.5-126-11.3 1.3-17.6-4.2-18.2-18.1 6.7 3.1.4 11.3 7.9 13.7 2.8-20.9 38.7 1.2 50-2.3-4.5-5.9-17.5-4.1-11.1-15.3.9 3 9.3 5.1 6.3.1-11.3-10.5-34.6-2.4-42.9-15.5 4.3-2.5 6.7 4.9 11 1.1-2.1-1.3-3.2-3 .1-4.7-4.2-2.6-11.9-3.2-7.3-9.5 4.3 1.9 6.8 0 8-5.4 2.2 4.2 6.2 4.6 7.2 8.2 2.5-.6-.1-2.8 2.1-3.4.9 4.9 12.3 2.8 6.9 12 2.7-.7 1.2-3.2 3.7-3.9.2 10.5 12.4 10 16.8 17.4 14.5 15.6 3.1 47.4-19.3 30.8 17.7 48.2 17.8 111.6 63.5 141.1-12.9 2.3-14.9-15.4-26.2-15.7-.3 3.4 3.7.7 4.3 3.7-4.8 2.2-8.8-2.6-13.5-1.8 4.1 5.3 12.6 4.2 14.3 12.5.5 5.4 11.2 4.8 4.5 9.6 4.1-.3 9.9-4.6 11 3.3 1.8-1.2-.4-2.3.9-3.6 2.8-.1 5.7.1 6.5 4.8.6-2.7 2.4-3.3 3.7-5.1 1.2 4.4 7.1.9 7.8 5.6.1-.6.2-1.3.5-2.8 1.5 3.8 6.7.3 6.9 5.3 2.1-1.3-.7-2.6.6-3.8 1.6.3 2.4 1.5 3.2 3.2-6.9 9.8-19.8 4.9-27.7-.6-2.7 2.9-4.4-2.4-6.4-1.1-2.1 1.4-3.9 2.8-7.1 2.6 20.6 53.5 25.1 120.8 55.7 166.5-2.1-3.8-4.6-5.9-7.4-8.3 2-2.2 3.4-4.8 7.4-3.6-4.5-4.1-7.2-9-9.9-14.3 5.5-1.9 10.5-.7 15.8 1.5.5-2.3-1.1-4.6.3-6.6 25.2 5.3 23.7 35.6 21.1 55.6-1.7 6.2 6.2 21.7-1.6 23.5-6 56.4 28.1 44.6 21.4 83.8 7.9 2.8 7.8 17.2 17.9 20.6-4-12.7-19.5-35-12.1-49.1 23.9 39.6 58.1 55.1 100.3 66.6-.7-3.1.4-5.7-1.9-7.5-7 6.4-14.6-18.3-13.9-22.5 10 8.7 14.1 21.3 27.3 27.1 2.5 2.9-1 9.3 6 8.4 26.3-1.4 12.1-26.5.6-19.8 3.3 3.9 14.7 5.9 10.9 12.8-19.2-5.4-32.5-29-48.6-33.1-4-10.4-10.8-19.5-15.3-30 5.7 6.1 9 14 15.2 19.6.6-5.1-7.4-7-4.8-14.1 3.3 7.3 9.5 10.5 14.3 14.5-.1 2.9-2.1.6-2.6 1.8.7 1.9 1.3 3.7 2.1 5.9-.3-4.8 2.4-4 3.8-.3 1.4-.4 2.1-1.5 2.8-2.5 4.8.9-.2 4.6 3.2 6 7.3-2-1.2-9.8-1.7-12.8-6.1 2.3-6.2-4.8-10.4-5.9 2.3-2.6 3.5.2 4.3.2 1.7-5.3-6.6-9.6-.3-15.6-10.1 2.6-2.3-6.3-6.6-11.9.1 3 0 4.8-1.7 5.9-2.7-.3-.8-6-5.2-3.6.9-8.3-5-11.3-5.7-18.9-2.1 16.8-10.8-29.7-19.1-19.6 1.4-4.9-4.2-9.7 1.8-13.8-4.2-8.3 5.5-11.8-3.4-21.7 3 2.7 5.3 4.7 7.6 6.7-3.5-5.4-9.8-17.1-4.2-21.8 3-2.5-1.6-4.3-1.6-7.3 2.9-.2 3.1 3.1 6 4.5-2.2-3.6-3.9-6.5-5.7-9.4 2-1.3 2.3 1 3.5 1.2 1.1-2.1-1.2-4.1 2.6-2.1.4-3.4-2.5-5.3-3.8-7.8 1.3-1.3 1.8.5 3 0-2.6-5.8-7.6-10.4-7.2-17-1.5 2.3.5 5.3-1.6 8-2.5-4.1-.4-8.6-1.6-12.5-1.2 4.6.1 3.7-4.4 2.7 1.2 1.4 2.2 2.8 3.9 4.9-3.2-.7-3.8 3.3-6.9 2.1.7 2.8-.1 5.5-.4 8.1-2 .8-1.9-.8-2.4-1.8-11.8 16.9-10 37.9-15.8 56.7-1.8-2.3-.9-6.1-4-8 6.9-3.4-6.4-8.1 1.7-8-.4-2.1-2.4-2.8-3.8-4.1-8.8 16.1 10.5 40.5 3.1 53.1-8-1.9-5.6-13.7-13.5-17.8-2.6 3.1-4.9 1.5-7.6-2.3 1 21.6 6.3 39.6 15.8 59.5 1.6-2.1-1.8-3 .3-4.7 2.6 1.9 5 3.7 2.3 8 2.9.4 8-.7 8.4 2.7-.8 8.7 8.5 8.4 11.3 14.4-.4-4.7-7-7-5.7-13.2 1.9-6.2-11.8-17.2-4.3-16.8-1.6-3.4-5.5-4.9-7.1-8.8 2.6 0 3.2 2.9 5.4 3 .6-5-6.6-5-6.5-10.1 12.2 5.4 13.5 16.7 15.4 28.2 6.3 4.1 9.7 17.5 14.2 25.1 1.1.3 3.3-2.2 3.2.2.8 7.2 8.8 7.2 12.3 12.6-17.6.7-37.6-20.8-46.8-36-15.2-4.5-14.8-27.4-28.8-38.4 2.4 10.1 4.3 19.4 2.7 29-4.4-12.1-19.6-34.1-6.6-43.1-1.3-.5-3.2.4-3-2.9 4.1 3.3 10.6-17.2 11-22.1 2-.7 1.6 2 3.2 1.7-3.7-14.7 12.4-31.1 17.3-44.1 1.4-2.7 5.6-7.2 2.9-9.1 1.6-3.2 7-5 3.5-10.2-1-1.4 1.8-1.5 2.4-3.1-1.9.1-3.9.5-5.5-.5-.3-1.5 1.4-1.6 1.8-3.4-2.9 2.6-3.7-2-6.3-.9 2-3.6 6.8-5.7 10-4.4 1.5-4.2 3.7-7.8 8.7-8.4-2.7-2.8 4.3-12.8 10.6-15.5-1-1.9-3.7 1.6-4.4-2.3 6.3 3.8 28.3-32.3 23-34.8 6.1-4.8 6.9-11.3 1.6-14.7-1.8 23.1-18.6 36.4-33.2 52.2-5.9-11.9 3.7-25 2.6-37.4h3.7c1.6 5.7-.7 11.4.1 17 2.3-2.5.6-4 4-1 3.6-4.5-.7-8.3-1.5-12.1 1.3-1.8 1.8.3 3 .1-.7-3.9.5-5.3 3-1.4 3.7-2.2 3.3-4.7.7-7.2 3.1-2.3 3 1.7 4.9 1.8 1.1-4-5.9-6.4 0-8.7-2-1.3-1.9-4.1-4.5-4.9 3.9-3.4 5-8.7 2.9-13.3 2.1.7 2.1.7 6.7 5.7-2.7-4.1-3.7-8.9-7.5-12.2 2.1-1.2 3.7-2.6 2-4.3-4.5-2.4-2.4-9.4-6.3-10.5-1.7 2.2 1.7 5.5-1.6 7.9-2.2-3.3-.8-7-1.7-10.2-3.2 2.2-.8 5-5.6 1-1.2 5.2-.5 10.8-3.9 15.7-2.9-12.1-6.4-23.8-16.8-8-2.1-2.6 1.6-7.3-3.8-8.3-1.3 1.6-2.8 4.2-5.1 1.5-4.6 2.7-6 6.9-5.3 13-5.6-4 .4-8.5-3-11.9-3.3 2.1-6.2 4.8-9.7 8.2 4 .9 5.4 2.8 3.3 6-1.4.4-1.5-1.5-2.4-1.8-.6 18 .7 33.2 4.6 50.7 1.8-4.2-.4-8.7 4.6-10.6 2.6 15.5.2 31.5 13.5 42 5.1-1.7-1.2-7.8 3.6-8.8-.3.3.2.9.7 1.5zm140 57.2c.5-8.6 10.4-6.9 13.8-.7-1.9-3.4 1.5-4.4 2.9-7.7-3 2.2-5.2 3.1-7.7 2.5-.2-3.2 1-4.5 4.7-2.9-1.5-1.8-.2-3.2-.8-4.9-3.7 2.3-7.1 2.1-10.3-1.9-1.8 5.5-4.8 10-2.6 15.6-1.1 9.1-5.3 16.8-3.7 26.8 3.4-4.2-2.1-11.3 5.5-12.6-.5-1.9-1-3.4-1.6-5.4 2.5.6 4.4.3 5.5-2.3-4.4 2-3.8-4.1-5.7-6.5zM349.1 261.8c-5.5-19.3-10.4-39.3-15.7-58.9.9 19.3 7 43.1 15.7 58.9.8 17.4 9.4 36.9 15.3 53.9-2.5-18.7-10.7-35.7-15.3-53.9zm43 353.2c7.7.3 20.7-2.7 23.4-5.7-7.6 2.2-17 1.2-23.4 5.7-1.8-1.2 1.1-3.1-1.2-4.9-5.7-.6-12.3 4.3-18.8.2-1.2 1.6-2.8 3.3-5.4 2.8-1.3-2.5 2.4-1.6 1.6-3.8-3 2.2-4.1-2.6-7-1.8 1.1 3-1.2 5.4-1.3 8.1 3.7.2 7.5-2.5 11.5-.1-3.6 3.9-8.8.6-12.5 4.5 11.7-1 22.5-1.6 33.1-5zm-88.8-88.6l-.2.2c2.9-.6 5.2-3.6 9.2-2.2-4.7 3.3-9.9 4.7-13.5 8.8 6.3-2.3 11.5-7.7 19.5-7.2-5.6 5.1-11.6 2.6-15.9 10 8.9-6.2 18.1-8.3 27.5-9.9-3.1-1.4-6 1.4-10.3-.6 4.3-1.2 7.5-2.1 10.7-3-1.2-1.6-3.4.8-3.9-1.8 3-.5 5.8-1.5 5.7-4.7-1.3-1.6-2.8.1-3.9-1.1-.1-1.7 2.6-1.7 1.8-4.6-8 3.9-17.4 1-26.1 6.6 4.3-.2 7.3-3.3 11.2-1.4-9.3 2.7-16.7 8.7-25.2 12.9 5.8 5.5 9.4.5 13.4-2zm387.1-35.5v2.7c-2.6 2.2-.3 6-2.9 9.3-1.7-10-.9-19.3-1.6-28.4-.3 7.5.4 15.1-.7 23.5-2.9-3.7-.7-7.1-2.3-10.5-2.3 27.6 6.1 53.3 4.8 80.5.5.2 1 .3 1.4.5-.9-3.2 1.2-2.8 2.9-3.1-.5-4.9-.9-9.6.3-15.7 2.6 5.1.9 9.4 2.7 13.5 1.9-3.8-1-8 2-11.3 1.5 2.6.1 5.7 1.4 8.4 2.3-1.8.3-4.5 2.1-6.2 2 0 .6 3 2.9 2.9 12.8-10.1 26-20 37.5-32.6 0-9.6.4-20-.8-30.5-1 .7-.3 2.3-2.2 2.3-1.2-4-1.2-8.2-1.1-12.7-1.4.8-.3 2.7-2.1 2.6-1.6-6.8-1.5-7.3.7-9.9-.9.1-1.6-1.3-2.7-.4-.7 2.3.7 4.9-1.7 7 3.7-22.7-19.3-13.5-34.5-16.3-1.1 9.4 1.3 18.9-1.2 28.1-2.3-9.4-.3-19.2-1.9-29.3-2.6 2.1.1 5.3-3.6 6.1-.2-1.9-.4-3.8-.8-6.7-.4 9.2-2 18.8 1.4 26.2zM204.8 626.5c81.8 29 8.5-165.1-16.1-83.5-2.8 0-1.4-3.3-4.5-4.9 1.8 10.2.1 18.2-.3 27.4 0 12.7 7.9 23.9 7.5 36.2 2.6 1.2 6.6 1.5 7 4.3.3 9.8 10.8 14.1 12.8 21.3-2 .2-3.8-2.2-6.4-.8zm100.7-63.3c-6.9-2.2-14.7-1.1-21.4-4.4 4.4-1 8.8.5 13.3-.8-1.4-5.4-4.5-9.8-3.7-15.3 3.2 5 3.4 11.2 6.6 16.3 1.4 0 2.6-1.2 4.3-.6-.5-3.2-1.8-6.1-1.4-9.3 2.3.2 1.6 2.7 3.6 3.7-1.4-4.8-2.7-9.3-4-13.7-.8 2 1 3.9-.6 5.9-2.7-2.8-2.3-7.3-5.7-9.8-.8 1.9 2.2 2.9.6 4.7-3.1-.1-2-4.3-4.6-5.1-1.2.4 1 4.8-2.7 2.5-12.1 3.3-23.3 10.8-35.9 16.6 9.4 3 18.5 2.4 27 5-8.8.5-17.5-.1-26.5-2.3 2.3 9.9 4.4 19.2 6.7 29.1.9-2.3-.5-4.2 1-5.7 2 1.5.8 4 2.5 5.6.4-2.5-1.1-4.9 0-7.2 2.2.9 1.7 2.9 2.6 4.5.6-1.6-.4-3.4 1-4.6 2.4.9.2 4 2.7 5.1-.5-3.2.6-3.9 3.2-1.6v-6c1.9.9 1.4 2.9 2.3 4.2 1.1-1.7-.8-3.8 1.5-4.8 1.8.6.9 3.2 2.6 4.1 1-2.6-1.4-5.1.5-7.4 3 1 0 4.7 2.8 5.7 1.6-1.9-.3-4.2 1-6.1 1.8.5.9 2.9 2.3 3.2 1.3-1.6 4-1.8 3.7-4.1 1.5-.1 1.4 2 2.6 1.7 1-2-1.3-4 .9-6.1 1.2 2.6 1 7.3 5.6 3.9.7-2-1.3-4.3.3-6.3 2.2.8 1.2 3.3 2.9 4.2.9-1.4 2.7-2.3 2.4-4.8zm137.9 1.4c3.1 8.9 23.4 5.5 16.3 16.7-.2 2.6-1.6 3.1-3.8 1.5-.1 1.6-.6 2.9.1 3.7 4.1 1 3.4-4.4 6.7-4.4 1.1 1.4-1.2 2.4-.2 3.7 6.6-3 1.2 3 1.2 5.9 1.6-.9 1.7-3.5 4.1-3.3.9 2.8-2.2 4.7-2.2 7.5 3.4-1.3 3.7-5.2 6.7-6.8 2.1 3.9-3 5.1-2.4 8.2 11.6-.5 6.5-20 14.6-25.5 5.5-16.1-1.6-34.1-9.5-48-2.7 1.3-3.2-3.1-5.8-2.1-.3-4.6-4.8-6.5-6.6-10.5-4.9 16.6 22.4 46 2.4 62.3-6.8-3.6-13.6-6.7-21.6-8.9zm256 28.2c-10.6-10-33.4-13.7-44.2.8 5.5.4 20.6 8 18-1.9 4.1 4 7.6-1.6 11.2.5-.9 3.8-5.8 1.9-6.9 6.4 21.3-2.9 45.6 18 65.8-2.8-14.6.4-31.7-11.6-43.9-3zm-419.6-62.2c-1.1-3.3-5.6-1.3-6.8-5.2-.7 5.2-2.1 1.2-3.5-.8-.8 1.1.6 3.2-2 3.6-.5-4.1-2.7-6.4-7.3-6 1.5 3.3-2 2.9-3 5-1.8-2.5-3.2-4.5-4.7-6.6-1.4 1.9 1.6 2.6.4 4.4-1.2-.3-1.6 1.3-3.2 1.3-.7-.8-1.6-1.7-2.5-2.7-2.3 1-3.7 3.9-7.2 2.8 5.2 8.1 8.6 16.8 12.9 25.1 11.1-5.6 21.6-10.9 32-16.1-.9-3.6-2.2-6.2-4.7-8.5-.6 1.4 1.3 2.4-.4 3.7zm470.1 79.7c17-1 55.6 18.8 61.6 1.4-2.9-9.5-41.3-13.8-49.6-8.7 4.8 3.5 11.1 1.3 16.6 4.7-9.8 2.6-19.5-6-28.6 2.6zM329.2 191.6C314 146.2 305.3 96 283.9 52.9c15.2 45 24.7 96.8 45.3 138.7zM434 555c-17.4-73.7-43.1-146.6-63.5-220.5-.5.1-.9.3-1.4.4 21.6 73.4 43.4 146.6 64.9 220.1zm107.3 26.4c2.6-5.2-2.3-6.3-2.7-9.6 4.4-2 4.8-6.8 7.6-10.7-2.5 0-3.4-2-5.2-3 0 1.9 2.9 2.5 1.5 4.4-7.7-4.1-14.6-9.4-24.3-10.6 6.1 9.9 4.2 28.2 19.1 27.3-4.3-.7-6.8-10.1-.7-8-1.8 4.6 3.3 5.7 4.7 10.2zm185-136.2c-1.9 2-.3 4.2-1.8 5.6-7.3-4.8-22.6 2.9-24.4-6.1-4.1-.9-3.5 4.5-5.5-1.2-3.7 3-3.1 6.5-2.2 10.7 2.1-1.2 3.7.7 5.6.5.7-2.2-1.3-4.5.7-6.3 2.6 1.8.2 4.5 1.7 6.7 10.6 2 21.3 3.1 32 1.1v-8.7c-.7 3-.3 6.7-5.5 5.7-.2-2.5-.4-4.9-.6-8zM576.5 605.7c-7-4.5-21 1-29.7-2.9-8.3 1.1-13.7-2.5-20.5 2.6 14.9 3.6 37.1 9.5 50.2.3zm80.8-125.6c.7 10.4 16.5-.6 22.5 6.9v-32.1c-7.4-.5-4.2 6.8-7.9 8.7 4.9 2.9 6 5.2.8 8.4 9.9-1.5-.1 9.7-6.2 3.2 2.6 6.3-6.9 10.6-9.2 4.9zm-65.6-181.2c3.3 8.6-8.1 23.7-.8 29.9 1.3-21 2.9-41.5 6.4-62.1-4.9 12.3-10 24.3-16.4 37.2 5-.8 6.7-5.6 10.8-5zm-50.1 285c-9.3-1.2-15-9.1-24.6-5.4-1.5.4-3.7 1.3-4.1-.8-5.4-7.8-10.5 5.5-8.5 10.7 12.6-5.6 23.9-3.9 37.2-4.5zm-107.7-21.1c-5.3-6.4-66.3-30.7-72.2-28.5 24.3 9.6 47.7 18.8 72.2 28.5zm296-97.8c-2.3-11.6-27.1-2.6-37.3-7.8-.8 1.7-1.2 3.1-.5 4.6 12.4 2.5 24.9 3 37.8 3.2zM567 328.8c4.1 4.2 11.4 10.4 16.8 7.5 1.1-1 3.6-1.2 3.6.6 1.4 7.3 10.8.7 15.4-.3-2.1-1.9-1.8-4.7-2.5-7.5-2.5 5-3.7 7.8-8.1 2.8-7.8 8.2-16.1-3.4-25.2-3.1zm-4.6 128.4c-10 1.2 6-30.5.4-38.4-1 10.7-2.3 21.5-5.9 31.9.1-3.9-.9-7.4-1.9-11-1 6.3-2.2 12.6-2.2 19.2 5.1-.9-1.8-6 3.1-6.6 6.3 4.8-2.5 15.2-3.1 21.3 3-5.1 6-10.3 9.6-16.4zm15.3-68.6c-1.9 12.7-3.9 25.4-5.9 38.8-6.7-6.1.4-11.9-1-17.9-1.8 2.1-.1 5.3-3.3 5.6-1.8-1.2-.4-4-2.9-5 1.9 8.6 3.7 16.9 5.6 25.3h1.6c2.7-15.6 6.2-30.9 5.9-46.8zm-70.3 220.8c11.7-7.6 31.8-10.3 39-20.7-14.7 5.2-28.1 16.6-41.7 12.8 6.5 1.7.8 3.5 2.7 7.9zm267.5-13.2c11 5 22.9 5.3 34.7 7 0-1.5 1.2-2.8.3-4.2-11.5-2.8-23.3-1.8-35-2.8zM575 593.8c-4.4-2.3-1.9-9.3-7.3-10.9-5.7 6.8-11.8-4.6-19-3.2-8.5 5.8 11 7.1 14.5 10.1.6-1-.4-2 1-2.6 3.2 2.3 7 4.2 10.8 6.6zM188.3 478.5c-.6-5.3 3.6-8.8 4.9-13.8-11.5 10.7-7.6 24.8-7.1 38 .3-13.2 3.3-25.6 10.8-36.8-4.2 3.5-5.8 8.4-8.6 12.6zM579 575.6c10.8-6.7 31-9.8 37.1-19.6-10.9 5.9-30.6 9.8-37.1 19.6zm-256.1 37.3c-4.6 2.8-10.9 3.5-9.7 10.9-3.4 3.3-7.7 5.8-8.5 12.4 6.1-4.6 9.1-10.8 15.9-12.8-3.8-4.3 6-5.8 2.3-10.5zM728 373.2h-.9v16.5c3.5 1.2 7 2.8 11.3 1.3-3.6-6.2-7-12-10.4-17.8zm-130.5-8c-7.7-4.7.1-11.9-2.9-17.9-.8 5.7-1.6 10.7-2.4 16.1-10.9-.2-21.3-1.3-31.2-5.7 4.6 8.9 26.2 8.5 36.5 7.5zm350.2 229.1c-5.3-4.6-5 4.4-7.8 3.7-2.7-6.2-4.2-3.1-8.1 1.1 8.9-.3 17.9 1.6 27.3-1.6-2.1-.9-4-.2-5.3-2.2 3.3-1.8 6.6-.7 9.7-1.2-3.8-1.3-7.7-1-12-.8.9 4.3-4.1 4.9-6.5 3.5.3-1.7 2.3-.8 2.7-2.5zM345.7 465c5.3-10.4-7.7-4.8-12.9-3 14 7 20.7 8 24 3.4-3.8.1-7.3.7-11.1-.4zm367-73.5c14.2 2.7 11.3-5.7 11.3-16.1-.3 0-.7 0-1-.1-3.3 5.1-6.5 10.2-10.3 16.2zM396.4 511.7c-.1-6.1 4.4-8.3 8.8-10.7-5.8-2.3-15.3 7.7-15.5 15.4 5.3.1 12.1-4.2 13.8-8.8-2.8.4-3.7 3.8-7.1 4.1zm-48.9-34.8c1.5-2 5.6-2.5 5.4-5.5-4.2-.4-4.2-.4-5.6 2.7-3.6-1.6-8.2 1.3-11.3 7.6 4.5-1.2 9.1.8 13-1.9.3-1.8-1.8-1-1.5-2.9zm89 80.2c-.6.2-1.2.4-1.9.6 5.5 9.9 5.3 21.9 12.7 31.2.8-12-8.2-20.3-10.8-31.8zm43.1 42.1c4.7 1.9 5.3 1.7.8 4.6 4.6 4.5 10.1-.8 14.6 1.6 4.6-10.6-9.9-4.9-15.4-6.2zm75.3-102.1c9.1.9 18 3.9 27.8 3.7-2.9-4.3-21.5-6.7-27.8-3.7zm8.2-115.9c12.1 2.8 23 5.8 35.1 3.2-17.9-4.1-24.7 6.7-21.9-17.8-1.1 5.7-2 10.6-2.9 15.8-3.2-2.3-6.1-2.6-10.3-1.2zm244.6 209.9c7.7-.3 10.4-10.4 18.2-13.3-5.6-8.3-13.9 10.9-18.2 13.3zm-314-22c7-3.7 4.7 8.8 10.3 6.9.6-.5 1.5-1.3.8-2-4.7-4.8 5-4.6 3-9.3-2.9-.6-5.4-.3-6.7 2.9-2.1-1.2-2.7-3.5-5-3.8-.9 1.3-2.6 2.3-2.4 5.3zm-179.2-14.7c3.5.5 1.4 3.9 4.1 5.3-1.9-7.6-7.2-12-12.5-18.1 2.1 6.7 2.5 12.4 4.8 17.7 2.3-.8 4.2-2 3.6-4.9zm494.4 23.8c-5.2 2.4-12.5 2-13.2 10 3-1.6.5 3 2.9 2.8 4.3-3.3 7.9-7.5 10.3-12.8zm-453.7-62.1c-2.5-1.4-3.3.1-4.6 1.3-7.6 3.1-3.7-6.7-14.3 3.8 3.1.2 5.9-1.7 9-.9-.7 3.3-4.4 1-5.5 3.7 5 .1 9.2-3.1 15.6-2-3.1-2.8-.8-4.1-.2-5.9zm428.1 102.8c-4.1 5.3-6.4.3-11.1-.7 1.8 4.9 7.8 5.4 9 10.1-3.2 4.4-3 5.5 1.3 6.7.7-3.4-.1-7.3 3.6-10.3-3.5-1-3.3-3.1-2.8-5.8zm-467.2-77c8.4-4.4 16.7-4.3 23.9-7.8-9.5 1.7-19 3.1-28 7.5 2.9 7.1 11.9-.3 17.5-.5-4.2-.6-8 1.3-13.4.8zm252-3c1.1-5.5-8.1-7.3-3.1-13.7-4.1 3-4 7.8-7.9 9.8 2.8 3.3 6.8 3.6 11 3.9zm-129-184c-4.1-5.8-1.5-18.4-7.1-21.5-1 7.3-.7 18.4 7.1 21.5zM322.5 640.1c1.7 1.6 2.4 3.6 2.2 5.9 3.5-3.2 8.9-4.2 9.9-9.5-4.8-1.6-8.6-.7-12.1 3.6zm-16.7-102.9c5.1-.3 8.4-5.1 13.1-4 .9 1.8-1.4 1.7-1.1 3 5.5.7 8.6-2.8 11.2-6.6-10.7.7-16.3 2.5-23.2 7.6zm205.7 52.2c-10.1 3.2 3.6 15.7 6.9 6.8-2.8-1.6-4.9-4-6.9-6.8zM374.4 379.9c-5.5-6.7-8.1-7.6-17.2-5.7 5.1.9 4.8 7.6 10.4 7.5-2.7-1.7-2.5-4-1.9-6.4 3.3.8 4.8 4.5 8.7 4.6zM507.6 91.4c-4.2 6 3.3 8.2 3.7 12.9.2 2.1 4.1-2 7-.2-.8-6.7-7.8-4-9.6-7.4 1.3-2.9 5.4-3-1.1-5.3zM397.3 406.3c1.2 4.1 2.3 7.8 3.6 12.1 1.7-2.6 5.4-3.1 5.8-6.7-3.5-.5-2.4 3.5-5.2 3.2-1.5-5.6 2.1-8.2 6.4-6.3-2.6-5.1-6.6-2.9-10.6-2.3zm16 93.1c-1.4 6.6-7 9.5-9.4 14.7 8.1-1 13.4-8.5 9.4-14.7zm-90.8 135.7c-3.6-2.6-10.8.5-10.3 4.4 2.9 7.6 8 .3 10.3-4.4zm88.3-269.4c-4.2 3.5 4.5 22.4 12.2 22.3-8.4-5.6-10.3-14-12.2-22.3zM176 498.1c2.4-3.3-3-10.4 5.5-11.2.6-2.7 1.1-5.5 1.8-8.9-2.5 1.9-1.1 5.7-4.5 6.1-1.6-3.2 2.4-5.4 1.3-8.5-4.2 6.1-5.7 14.5-4.1 22.5zm393.4-4c1.5-10.8 2.8-20.1 4-29.5-2.8 4.8-5.6 25.2-4 29.5zm5.9 25.3c-5.7-2-11.4-2.6-17.2-4.9.9 8.2 11 6.7 17.2 4.9zm196.3 106.8c-2.6-2.1-.2-5.3-1.7-7.8v15.2c1.8-.2 1.2-2 2.3-2.5.1 4.1 2.7 3.1 5.3 2.6-.2-2-.4-4-.6-6.3-1.5 1.3.5 3.6-2.2 3.9-2.1-1.9.9-5.3-1.7-7.1-.4.8 0 1.9-1.4 2zm-316.2-28.6c-.7 2 1.7 2.5.2 4-6.1-.4-12.4-.4-18.4 2.4 8.1-2 16.4.4 24.6-1.2-2.5-1-4.3-2.9-6.4-5.2zM287 660.3c2.6-7.1-9.6-9.4-11.1-2.8 2.6 1.5 3.5-2.4 5.7-1.4.4 2.6-3.3 3-2.7 5.7 4.8.7 1.9-4.2 8.1-1.5zm426.4-259.4h9c-4.9-1.3-9.8-2.1-14.9-.9 3 6.2 9.1 2.3 12.8 5.1 0 2.3 3.3 2.7 2.9.2-1.7-4.4-7.4.3-9.8-4.4zm-325.5 88.8c3.8-2.6 8.8-1 13.4-4-15.1 1.6-15.1 1.6-20.4 6.9 3.9-1.1 7.3 1 10.8-.5-1.1-2-3.1 0-3.8-2.4zm435.3 49.1c9.4-6.9-7.7-11.3-8.8-5.1 2.7 3.7 8.5-1.7 8.8 5.1zM387 442.2c-4-.3-6.9 2.3-10.8 2.6 4.2 3.5 8.4 5.3 13.4 5.2-1.5-5.3-11.4-1.4-2.6-7.8zm191.3-21.4c2.2-2.8 5.7-27.7 4.9-32.7-1.8 11.6-3.3 22.1-4.9 32.7zm-123 185.8c-9 0-18.2-2.7-26.1 3.6 9.4-3.4 18.2-.6 26.1-3.6zm109-119.2c1.7-11.3 3.5-22.5 5.2-33.8-.5-.1-.9-.1-1.4-.2-1.3 11.4-3.8 22.6-3.8 34zm-72 127.2c3.7-1.1 7-3.6 11-1.3-2.2-15-4.4-3.6-11 1.3zm-143.2-83.9c6.1-4.2 13.5-3.7 20.2-6.2-6.6.1-17.2-.4-20.2 6.2zm-17.2 58c1.6-9.9.1-23.3-3.3-31.6 2 10.4 3 20.9 3.3 31.6zm179.4-29.1c-4.7-2.8-9.5-5.5-15.8-3.4 4.9 3.8 10.2 4 15.8 3.4zM57.7 583.9c5.2.1 9.8-1.9 16-2.6-5.4-2.3-9 1.3-13.2.2 1.1-2.1 4.2-1.1 4.6-4.2-2.8 1.1-5.1 2.6-8.2 2.2.9 1.6 1.2 3 .8 4.4zm646.5-193c-.9 2.3-1.6 4-2.7 6.6 3.4-2.2 6.1.8 9-1.4-2.5-2.4 1.3-6.4-2.2-8.7.5 1.7-.2 3.4-.2 5.3-1.2-.5-2.3-1-3.9-1.8zm-155.2 70c.6-10.4 3.2-20.5 3.6-30.9-1.7 10.2-4.1 20.4-3.6 30.9zm-167.1 9.2c6 1.3 13.3 4.4 10.4-4.2-3.4.8-6.5 1.3-10.4 4.2zm207-109.2c.1-4.3 4.6-18.2.8-18.7-.1 6.3-2.9 12.2-.8 18.7zm-33.2 131c.8-6.5 1.5-12.2 2.1-18-1.6 1.1-3.8 1.1-4.3 3.5 4 4-.5 9.2 2.2 14.5zm-4.3 76.8c-4 2.3 1.2 6.1-2 8.6 3.3 1 6.6 1.9 9.9 2.8-5-2.2-5.5-7.6-7.9-11.4zM498.9 27.6c-10.8-11.3-9.6 1.8 4 1.8v-5.1c-2.4-.6-2.6 1.3-4 3.3zM708.7 689c-2.7 3-5.5.4-8.7.6 1.1 6.7 8.1 3.4 10.7 7-2.7-2.1-2.2-4.7-2-7.6zm-99.6-102.3c-2.9-3.2-5.6-2.5-7.8 0-2.4 6.3 6.5 4.9 7.8 0zM402.7 396.8c.5 2.5 2 3.7 3.6 4.8 4.5-4.8 5.8 1.1 9.3-1.8-3.9-2.6-7.8-4.4-12.9-3zm115 31c-4.2 1.2-4.6 4.1-1 7.8-2-3.8-2-6 2.6-4.5-.8-3.8.7-7.4-1.9-10.8-2.3 2.7-1.9 5.1.3 7.5zm233.4 163.5c-5.4-.5-10.1-3.7-15.1-.9 5-1.1 9.5 5.6 15.1.9zm-147.2-73.6c-3.5-.7-3.3 4.9-7.3 3.8 3.2 1.6-.8 4 1.3 5.5 3-6.3 6.2-.6 12.3-4.9-4 1.2-6.1 0-8.1-1-.6-2.1 2.1-1.6 1.8-3.4zm13.4 89c-3.5.1-4.1 4.4-7.7 4 1.6 3.9 4.7 3.5 7.6 4.3-.3-2.1-3.2-1.1-2.7-3.6 1.1-.3 2.3-.6 3.7-1-.3-1.2-.6-2.5-.9-3.7zm-225.1-241c3.5 2.9 4.2 7.3 8.9 8.8-3-2.7-1-4.8.6-6.7-2.9-1.6-5.5-2.5-9.5-2.1zm340.3 103c.5 4 .5 4 6.5 5.9.3-2.1.7-4.1-.1-5.8-2.3-1-4 1.4-6.4-.1zM469.1 607.6c1.3-.5 3.6 1.6 4.7-1.1-3.7-1.7-11-1.9-11.2-.2 1.2.5 3.1-.8 3.8 1.6-.7.9-1.4 1.8-2.2 2.9 2 1.2 3.6 1.2 5.1-.3 0-1-1.7-1.5-.2-2.9zM757.6 619c.2 11.1 12.8 5.2 3.4-1.2-.4 1.3-.7 2.9-3.4 1.2zM198 476.4c-4.1 6-4.4 12.9-4.9 19.8.2-4.3 2-7.8 6-10.4-2-.5-2.6 1.3-3.6-.1-.2-3.4 2.5-6 2.5-9.3zm344.9-38.5c0 4.1.7 7.7 2.9 11.5 2.9-6.4 2.5-7.9-2.9-11.5zm146.4 168.8c-.8 2.7 0 5.2-1 7.6-11.3 2.9-2.3 3.5 1 5.8v-13.4zm-576.9-36c3.5-3.4 5.8-8.1 11.9-8.4-3.2-2-6.1-.6-8.9-1.2-.2 3.6-3.5 5.9-3 9.6zm508.9-11.4c5.2-3-1-10.8-6-7 4.2 1 2.4 5.9 6 7zM379.1 415.7c-3.9-3.5-7.1-1.3-11.6-1.3 3.8 2.4 5.2 5.6 8.7 6.1 0-1.9-3.3-5 2.9-4.8zm-16.2 90.2c-2.5 4.3.6 5.4 2.7 7.5 2-5.5 6.9-1 10-3.2-4.1-2.1-9.5 1.9-12.7-4.3zM328 626.5c3.3.6 6.2 2.9 10.3 1.9-.5-2.4.7-4.3 2.7-6.1-4.1 2.7-7.9 5.5-13 4.2zm234.1-232.3c-.2-2.9 3.8-9.1-.5-9.8-4.5.7-3.1 8 .5 9.8zm186.7 123.4h.3v-32.1h-.3v32.1zM608.6 381.5c3 4.8 7.8 1.6 7.9 8.5-.9-3.5 4.8-2.6 3.5-6.6-4.5 3.8-7-5.2-11.4-1.9zM62.4 595.8c4.9-1.4 6.9-8.6 13.3-6.9-6.5-2.3-10.3 1.4-13.3 6.9zm366.8 1.1c5.7-1.3 11.9-.5 17.4-3.1-5.9.3-12-.5-17.4 3.1zm-119.8-85.7c4.5-.4 8.3-.7 12.1-1.1-1.4-4.5-1.5-4.5-12.1 1.1zm86.8 53.3c-5 .3-10.6-1.8-14.3 3.6.7.6 1.6 1.5 2.8 2.6 2.4-4.9 6.7-5.9 11.5-6.2zm174.2-226.9c-1.1 6.6-3.9 13.1-2.4 20 .3-6.8 2.6-13.2 2.4-20z"/>
        <path class="st1" d="M491.5 681.7l.2-.2c-7.1 5.3-4.4 32.7-19.3 19.6-6.1 10.3-25.5 2.2-35.6 4.3-2.6-.8-.3-3.7-3.1-4.2 1.7 7.9-6.9 4.3-10 8.7-15.6-4.4-33.1-18.5-50.8-17.4-2.8-.1-6.9 1.1-6.7-4.3-9.5 9.4-28.2.1-40.9 3.7-5.3 1.3-10.3 3.3-15.7.8-4.6 1.7-8.9 5.2-14.4.9-.8 2.2-1.8 4.4-4.4 1.8-1.3 1.2.4 2.6-1.2 3.7-8.6-5.2-20.1 6.1-27-1.8-2.5 5.4-10.3 2.8-7.9-3.3 10.5 3.6 23.1-7.7 31.5-1 31.8-11 69.5-9.1 102.9-14.8 6.9-3 7.2-2.8 10.7 2.9.7-1.3-.9-3 1.1-4.2 2.9 3.9 9.4-3.3 11.7 4.2 2.2-4.3 4.6-4.2 7.3-1.2 3.7-3.5 4.9-3.3 8.3 1.1.8-3.9 5.1-1.2 6.4-4 2 1.8.4 5.3 4.3 5.8-5.3-9.3 11.3-5.4 15.3-3.2 7.7-1.4 19.3-11.7 26.6-4.4.7-3.7.9-7.8 5.3-2.7 12 .3 25.4-1.7 36.5-6.1.5 12.5-23.7 7.5-31.1 15.3zm399.8-28.1c-4.1 7-15.4 1.9-19.6-2.4 6.7-2.8 12.9-3.2 19.1-.6.9-1.6-1.4-2.1-.6-3.4 4-2.1 4.2 4.5 7.8 3.4.6-2-3-1.7-1.9-4.3 3.4-1.8 5.2 1.5 7.6 3.1 1-1-1.2-1.6 0-2.9 4.9 3.4 8.5-7.1 14.3-.2 1.4-9.4 6.6-3.3 10.1-3.6-1.2-7.9 15.2-3.7 20.9-10.1-1.2-5.1-6.1-6.8-8.8-10.7-2.2 1.4-3.5 4.3-6.6 1.6 2.7-1.2 5-2.3 6.4-5.1 3.4 3.8 22 3.8 22.3-2.1 2.4-1.1 1.8 1.6 3.3 2 1.7-1.6 3.5-3.5 6.4-2.6.5 1.7-2.2.7-1.7 2.5 7.2-1.1 4.8-6.6 10.6.6 5.1-5.2 14-1 19.1-5.1-3 5.7-7.9 5.2-12.6 4.4-.9 1.6 1.1 2.3.2 3.6-14.4-2.6-22 6.1-35.6 7 6.1 19.1-48.9 33.1-60.7 24.9zM110.9 481.9c7.1 1.4 12 8.2 19.4 7.5-2.7-1.5-5.7-1.5-5.8-6-1.3-3.4-10.7-4.7-14.5-7.6-1.7.3.3 1.7-.9 2.3-1.5-.4-3.2-.9-4.9-1.4 1.2-4.1-3-6.6-2.3-10.9 7.2 1.2 6.6 9.9 14.7 10.1.1-1.6-3-1.1-1.9-3.6 5.2 1.3 9.6 5.1 15.1 5.8-2-2.3-5.9-2.2-7.1-5.7 2.7-1 3.9 3.1 7 .9-9-4.2-17.9-8.3-26.7-12.4 2.5-1.4 4.5-.5 6.9-.5-4-1.5-8.1-3.1-12.1-4.6-.1.2-.3.4-.4.5 1 .7 2.1 1.4 3.1 2-1.4 2.1-2.6-.2-3.8.6.2.7.5 1.4.7 2.1-1.3.7-2.2-1.6-3.8-.4 1.3 2.5 4.7 2.7 5.7 5.4-1.4 1.2-2.3-.8-3.6-.6-1.4 2.3-.3 4.1 1.5 5.9-9.9-6-7.3-23.6-11.8-34.4 6.6 1.5 12 6 18.6 6.5l-.2-.1c2.6 3.4 7 3.6 10.5 5.5-1.1 3.4-5.2-1.2-5.7 2.1-4.5-6.6-12.8-6-18.5-10.1 3.9 4.4 10 4.7 15.6 8.2-5 1.4-8-2-12.4-2.2 6.5 4.8 14.3 5.3 20.6 11.1-6.7-1.4-11.3-4.9-17.2-5 11.2 4.8 22.4 9.6 34.1 14.7-1-3.3-4.3-2.4-5.1-5 3.1-1.1 6.5 1.8 9-1.7.8 4.1-3.6 7.5.6 10.7-2.7 8.2-.1 17.2-1.6 26 2.1 3 3.3 4.9-1.8 5.6l.2.1c-6.9-6.7-18.2-8.5-25.6-15.5 4.9.4 8.6 3.9 14.1 5.3-3.9-4.4-13.7-3.8-9.3-11.3l-.4.1zm16.1 187c-6.1-6.4-58.6 4.7-42.4-20.2-18.3 1.9-56.7-3.1-14.1-8.4 2.7.9.6 2.8 1.6 4.2 9.1-2.2 17.3 1.1 25.6 4.1-4.4 3.7-14.1-1.4-13.3 7 22.7 8.1 58.2-7.8 75.4 7.4-1.3 3-4.3.9-5.7-.8-8.9 4.1-19.5.7-27.1 6.7z"/>
        <path class="st1" d="M112.9 434.9c3.8 5.1 10.9 4.7 16.3 7.4.4-1.5-1.7-1.5-1.4-3.2 1.7-1.3 5.3 3 5.9-2 3.7 3.6-.7 8.2 2.9 11.6-4.8 2.6-4 5.9.3 9.9-7.6 3.9-14.1 1.5-21.6-5.1 5.7 1.3 9.3 4.1 13.8 4.6-.4-3.6-5.1-1.6-6-4.5 2.2-1.5 4.1 1 7.3-.2-9.5-3.6-18.2-6.9-26.8-10.2l.2.1c-2.2-1.3-4.4-2.6-7.2-4.2 3.4-1.7 5.1 1.6 8.7.8-8.2-4.5-16.6-6.1-24-10.5-15 10.9 15.2 38.9-3.5 39.4 10.4-11.9-9.3-20.1-2.6-31.9 8.1-14.4.8-19.4-6.7-31.2 15.5 16.9 36.4 22.2 55.6 32.6-14.9-3.8-27.3-10.5-42.2-16.9 2.4 4.6 6.7 4.5 9.5 6.7-2.3 1.9-4-.6-6.9.2 7.4 4.2 14.7 6 22.4 9.3-1.3-3.5-5-2.1-5.6-5.1 4.3-1.2 7.3 4.1 11.6 2.4zM454.8 68.8c-3.3-3.1-3.5 1.4-6.2 2.5.2-6.7 1.6-12.7 4.4-19-2.8.3-1.9 3.6-4.5 3.5.1-7.3-11-10.5-2.2-18.7-.6 3.4-.7 5.9 2.7 6.2 4.4-3.4 8.2-7.6 14.4-8.1-3.7 5.2-11.8 6.2-13 14 7.2-6.4 15.2-11.4 25.2-15.4-5.9-3.8-5.8-9.1-5.7-14.8-5.6 1.2-8.5-4.5-13.8-4.3.9-3.1 3.2-3.2 5.5-2.7 8.1 5.1 19.5-12.9 22-1-9.2-6.5-7.1 4-10.5 6.3 16 20.8-14 32.4-18.3 51.5zm436.1 591.4c-18 22.4-54.1 6.2-75.8 14.2-.5-2.1 1.9-2.2 2.2-4-11.5-11.7 28.6-2.5 30.5-7.5 14.3 7.1 28.7 3.5 43.1-2.7zm-56.4-162.7c8.3-1.6 9.5-9.4 14.2-14.6 4.2 2.5 8.3 3.2 11.8-1.7 2.3-.3 6.3 1 4.6-3.8-1.9-5.7-5.2-5.2-10.5-3-.6-3.8-3.5-2.5-6.2-2.4 1.4 4.2-5.3 8.4-6.9 3-1.3 3.6-7.1 3.4-3.6-.2-7.4-.7-14.9 2.1-21.3-3 27.1-5.3 57.6 1.1 85.3-1.8-6.9 8.8-29.7-2.6-35.5 10.6-3.4 8.3-17.3 3.9-21.1 11.4-2 3.8-5 7.1-10.8 5.5zM459.4 90.7c6.4 5.9 5.9 12.7 11.5 17.1-8 3.3.9 16.3-11.1 16.5-6.4-6.2 6.5-4.7.5-7.8-8.8-3-3.5-9.7-5.3-15.5-5.8-8.5 1.1-19.2 9.9-21.6-.6 8.7-.6 8.7-5.5 11.3zM439 161.5c1.2 3.1-.7 6.5 2.6 8.7-.8-4 2.3-6.6 2.4-11.1 4 17.8 0 18.3 19 23.2 1.9-2.2-3.7-3.1-.8-5.4 1.9-1.5 1.8 1.2 3.1 1.5 1.8-2.4 4.1-4.8 6.3-6.8 5.6 13.2-12.9 26.1-20.5 32.8-2-2.1 2.2-5.2-3.5-6.2 5-1.6 8.5-2.6 10.6-6.2-2.8-1.5-5.6-3-8.5-4.5-.3-5.3 8.8-3.9 5.1 2.2 4-2.4 7.6 1.1 11.2-2.4-10.3-5.4-35.7-10.2-27-25.8zm126.4 100.9c1.1-.6 2.3-1.2 4.1-2.2 3.3 17.2 8.7 38.9 6.5 54.2-1.1-2.1.8-6.9-4.3-4.4-3.6-.9 0-7.4-5.3-7.6.2-3.6 6.8-5.1 2.8-10.1-.8 2.6 0 5.9-3.3 7-1.4-3.2-1.4-3.2 3.9-10.6-2.3-.2-2.6 3.1-5 2.5-.9-3.7 2.6-4.5 4.9-6.7-2.8.1-4.9-.8-7.5-.4 2.4-2.6 4.8-5.1 7.5-7.9-5.5-.8-.3-3.1-1-4.6-2.3-3.4-4.2 1.4-6.8.3.5-2.8 4.5-3 4.1-6.2-1.1-.1-1.3 2.3-3.2 1.3.9-1.6 1.8-3.3 2.7-4.9.1.2-.1.3-.1.3zM324.7 502.5c-.5-1.9-1.6-1.2-2.7-.7-3.6-1 1.6-5.3-2.4-6.3-1.8 1.1-1 3.7-2.5 5-3.7-.7.7-3.5-1.4-4.8-2.4 2.6-4.8 5.3-7.8 8.6 1.6-5.4 7.4-13.5-2.8-8.4.3-5.4-6.6.4-6.9-4.8 4-2.4 8.7-2.8 14.3-2.8-2.9-2.7-.8-6.8-4.6-8.5 7.1-.1 4.6 6.7 7.4 10.1 2-2.1 5.3-1.4 6.7-4.4 3.5 4.5 9 5.4 12.7 8.9-.8 3.1-6.6 7.8-10 8.1zm484.6 174.3c-13.2 9.9-61.4 17-69.4 6.2 2.5-1 4.3.3 5.8 2.1 3.4-2.8 6.6-5.7 11.1-2.5 14.8-4.9 34.7-.4 52.5-5.8zm-692.1 4c3.7-1.3 8.3 1.8 10.9-2.8 5.8 7.4 24.5-7 21.4 5.1 13.2 2.3 26.8-.4 40.2.8-14.8 6.5-32.3 6.3-47.7.4-7.1-1.4-19.8 4.3-24.8-3.5zM62.6 430.5c7.1-13.3-7.8-15.8-15.6-22.2-5.2-1.5-9.3 6.3-14.9-.3 5.3-3 11.5-.7 17.2-2.9-3.9-4.5-10.4-4.3-13.5-9.5 4.9 2.2 9.8 4.4 15 6.8-1.4-5.8-5.8-9.9-5.6-15.5.5-.2 1-.4 1.5-.7 2 13.8 15.5 14 15.9 23-1.5 7.7 9.4 15.3 0 21.3zm69.2 72.7l-.2-.1c1.2 1.6 3.2.3 4.5 1 1.6 4.2-.4 8.9 1.7 12.9 4.5-1 3.9-5.3 6-7.8 2 3.9-2.3 7.4.3 10.9-10.6-4.1 2.1 5.6-6.7 8.3-.3-2.7-4.1-1.3-4.6-3.9 1.6-1.5 3.4.6 5.5-.5-5.6-1.6-12-8.8-16.9-6.5 2-1.8-2.2-2.4-.5-4.4 4.4 2 8.9 4.1 13.9 6.4 2.7-11.7-12.5-13.5-20.5-17.2l.2.1c-2.5-2-5-4-8.6-6.8 4.6.3 6.7 3.5 10.5 3.3-2.7-3-7-3.2-8.7-6.9 8.3 3.5 15.8 8.3 24.1 11.2zM61.5 620.5c1.3 0 3.2-.2 4.6 1.3-3.5 7.2-8.8 8-20.2 3.2-2.8 6.5-22.5-.3-22.8-6 4.7 3.4 12 5.9 14.7-1.1 1.2 2.3.6 5.2 3.8 5.9 4.5-5.2 10.6-.4 16.7-1.2-1.7-2.3-4.5 0-5.1-3.1 3.5.5 5.9-2.4 9.2-2.9.9 1.7-2 1.7-.9 3.9zm232.8-139.8c-1.4-1.3-2.8-2.6-4.3-4-2.6 2.3-2.7 4.6-5.1 0-4.1 1.6.5 3.9-.2 6-4.7-9.7-13.2-9.4-23.9-11.5-5-1.9-3.2 4.7-10.8 2.1 2.7-11.7 19.4.6 26.3-1.8 5.3-5.7 11.1 1.6 16.5-.8 3.5 1.1-.5 7.1 1.5 10z"/>
        <path class="st1" d="M69.9 415.8c11.2 11-6 25.7 4.6 37.2-1.1 1.5-1.9-.6-3.3-.1 2.4 9.5-4.5 7.7-9.7 10.6 2.7-5.4 11.5-12.3 2.7-18.1-.5-8.9 12-17.6 5.7-29.6zm393.2-190.5c-7.5-.1-14.4 3.1-21.6 4 2.3-5.6-4.6-8.8-2.6-15 6 4.1 6.5 9.9 14.6 8.7-2.9-6.4-7.5-11.6-9.5-19.2 5.4 2 6.6 7.5 10.8 9.8-3.9 3.6.1 6.3 0 9.9 2.1-1.3 2-3.2 4-3.8 1.6 1.5 3 3.6 4.3 5.6zM300.8 17.2c2 .3 4.3 1 5.1-2.1 1.4 1.3 2.4 2.2 3.7 3.4-2.8-9.7 6.5-9.2 8.4-1.4 1.6 9.6-20.2 9.6-17.2.1zm231 217.5c12.7 9.3 5.7 31.7 14.4 45.8-14.7-11-6.2-32.3-14.4-45.8zm-296 460.9c-4.7 1.9-9 2.9-13.4 1.5 4.8-8.7 23.5-3.1 29.5-2.9.2 3.4-2.6 5.8-5.8 4-4.1-3-10.7 4.8-10.3-2.6z"/>
        <path class="st1" d="M470.6 221.3c1.6 5.1-4.5 3-7.6 4.1-3.2-9.5-1.6-18.1 6.7-24-.3 5.6-1.8 9.6-4.9 13.4 4.4.1 2.6 5.2 5.8 6.5zm-5.9 103.6c-5-7.5-8.6-20.9-2.8-28.3-1.4 9 4.3 15.9 3.9 24.3 3.9.5 3.1 3.2 2.5 6.1-1.4-.8-2.5-1.5-3.6-2.1zM22.5 395.3c2.1 4.3 6.5 6.3 9.4 9.9-11.9-5.2-19.7-16-32-22.2 5.2-2 8 1.5 10.8 1.4 2.2 6.2 7 8.6 11.9 11.1l-.1-.2zM839.6 479c-.6 3.3 1.2 4.2 4.2 4-3.7 3.2-5.5 2.8-7.8-1.6-6.2 2.4-12.2 6.4-19.6 5 .3-3 3.4-1.2 4.5-2.7-.3-1.7-1.9-5.6 1.4-2.9 4.3 5.5 8.9-4.6 17.3-1.8zm-492.2 19.5c-3.9 1.6-5.9.8-6.7-2.7 6.4-.8 12 1.7 17.6 4.2-2.8 6.1-4.8 6.4-9 1.2-4.2 6.1-5.6 1.8-1.9-2.7zm184.1-296.2c-.6-.9-2.2-.7-2.6-2.3 2.8-.5 3.2-2.9 3.8-6.1 2.4 3.3 4.3 6.3 9.7 6.5-6.1 3.1-9.8 7.1-16.1 8.2 1.7-2.8 4.8-3.1 5.2-6.3zm-114.7-26.5c-3.7 5.8-4.4 8.4-3.6 12.2-16.5-.7-7.5-9.6 3.6-12.2zm132.8 444.4c8-2.7 16.2-.4 24.3-.7-8 3.1-16.2 1.2-24.3.7zM470.7 85.9c2.3-1.2 3.4-2.8 3.1-5.1 9.4-2.3 7.5 6.7 1.3 9.9-1.4-1.6-2.6-2.9-4.4-4.8zm-34.6 95.9c1-1.9-1.8-3.6.4-6.2 4.1 8.3 6.5 16.7 7.7 25.4-4.2-5.6-4.6-14-8.1-19.2zm276.6 246.9c-8.8.1-17.4-.8-25.7-3.8.1-.4.1-.8.2-1.3 8.5 1.1 17.1 2.2 25.6 3.3 0 .7 0 1.2-.1 1.8zM662.9 638c-4.1 3.8-8.9.5-12.2 3.1 2.7 4.3 1.6 3.6-2.8 5.1-3.9-2.3 1.3-4.9-.1-8.1 5-.1 9.6-.1 15.1-.1zm-456.5 56.6c-2.8-.8-3.6.9-3.8 3.8-5.4-4.1-12.7 1-17.6-4.9 7 .8 16.2-2.2 21.3 1.3l.1-.2zM931 526.8c.9-2.7 5.9-3.9 3.7-8.6 2.7 1.6 2.5 5 5 6.5-5 4.1-.4 12.5-8.7 2.1zm-797.4 96.6c-1 2.5 2 6.7-3.6 6.7 1-10.6-7.2.5-10.4-4.6 2.1-2.3 6.4-.5 7.5-4.5 2.2 1.6 3.7 3.4 6.5 2.4z"/>
        <path class="st1" d="M206.3 694.7c7.2-3.7 20.2 4 5.4 3.2-.9.8 1.1 2.1-.8 3.1-1.8-1.9-3.7-3.7-4.5-6.5 0 .1-.1.2-.1.2zm-48.5-152.9c2.3-.2 3.5-2.5 6.1-1.8-.8 1.9-1.5 3.7-2.5 6-1.7-2.5-4-1.1-6.8-1.4 3-3.5-4.1-6.7.8-10.4 1.8 2.2 1.8 4.8 2.4 7.6zm410.8 98.5c6-2.7 11.9.9 17.5-1.4-1.2 3.8-6.6.9-7 6-2.9-4.1-7.7 0-10.5-4.6zm-509.8-8.9c-2.8 2-4.8 3.4-6.6 4.6-5.7-8.7-.4 3.4-6 3.3-.8-8.9 4.4-10 12.6-7.9zm352.3-404.6c-3-2.5 1.8-6.5-3.4-9 8.3.1 8.6.3 10.2 5.3-2.5.6-5.8 1.3-6.8 3.7zM121.5 517.7c3.8 5.9 9.2 9.3 16 10.5.3.7.6 1.4 1.4 3.4-6.4-3.4-20.4-5.9-17.4-13.9zm612.8 162.4c-2.4.9-3 2.5-2.3 5.7-4.2-2.7-7.5-4.8-11.5-5.5 4.6-1.6 9.1-.8 13.8-.2zM453.6 82.9c-1.2-4.1-3.3-7.8-.3-12.1 1.9 5.7-.2 5.3 6.1 4-2.3 2.3-2 6.2-5.8 8.1zM111 481.7c-6 1.1-9.6-4.2-14.7-5.4-2.7 3.6-5.6-.6-1.4-3 5.2 3 11.2 4.7 16 8.6l.1-.2zm794-10.9c5.8-1.2 11.3-.4 16.1 3.5-5.4-.8-10.6-2.6-16.1-3.5zm-17 129.3c6.2-5.3 1.2-2.5-1.8-5.5 1.1-.8 2.1-2.2 1.6-4.3 3.2.5 3.3 4.2 6.4 4-1 3.4-1.5 6.6-6.2 5.8zm-775.5-92.8c1.2-1.4-3-5.1 2-4.9l-.2-.1c3.3 2 4.4 5.8 8.4 8.7-4.9.1-7.1-3.3-10.4-3.8l.2.1zm326.9-358.8c-2.8-5-1.1-10.2 5.1-16.9-1.4 5.5-4.2 10.4-5.1 16.9z"/>
        <path class="st1" d="M112.4 507.2c.2 2.2 3.8 1.5 3.7 4-1.8 1.3-3.1-.9-4.5-.6-.9.9.3 2.2-1.4 2.8-2.5-1.6-3.9-4.2-4.5-7.6 2.8-.9 4.3 2.8 6.9 1.6l-.2-.2zM478.7 103c3.9 0 7.1-.9 9.9 1.4-3.5 5.5-3.5 5.5-9.9-1.4zm10.4 93c-6.6 2.7-2.4 11.9-9.2 14.4 3.6-4.5.9-12.8 9.2-14.4zm139.1 427.3c-6.4 3.6-11.2 2.9-13.6-2 4.3 2.4 9-.3 13.6 2zm-138.7-451c3.5-4.4 7.7-6.2 10.6-9.2 2.3.8 1.7 4 .1 4.2-4.7-1.3-4.7 6.6-10.7 5zM455 341.5c-2.6-2.4-7.8-1.8-7-7.3 6.2.5 8.3 2.6 7 7.3zm429.2 241c3.1-.8 6.9-.1 7.9-6 .9 4.8.9 4.8-6.5 10.9-.1-1.9 0-3.8-1.3-5.1 0 .1-.1.2-.1.2zm-861.6-187c.6-1.6-1-2.9-.8-4.9 4.3.2 7.4 2.7 10.9 4.5-3.5-.8-6.8.7-10.2.3 0-.1.1.1.1.1zM911.9 585c3.6-1.3 7.1.6 9.7-3.1.4 3-1.9 4.3-.6 6.5-2.9-1.5-6.8.8-9.1-3.4zm-556.2 64.2c-14.1 5.3.2-15-.1.1l.1-.1zm111.8-175.8c-4.4-3.5-8.1-7.6-10.9-12.4 5.5 2.5 7.7 7.8 10.9 12.4zm-303.3 75.4c-2 2.1-5.5 1.7-13-1.7 1.3-1.4 6.8-.6 13 1.7zm-.9-34.4c-3.1-3.8-2.2-11.2 1.6-14.4 0 4.8-.1 9.6-1.6 14.4zm527.1-23.5c-1.3-5.5-.3-11.1-.8-17.2 3.4 3.1 4 18.2 1.6 22.7-2.4-1-.3-3.7-.8-5.5zm-387.1 35.5c-2.7-.9-4.4 1.9-6.9 2.2 1.8-3.9 12.8-9.8 18-9.5-2.7 3.7-9.4 3.9-11.1 7.3z"/>
    </g>
</svg>