<svg xmlns="http://www.w3.org/2000/svg" viewBox="0 0 200 51"><path d="M0-.4h3.9c.1 4.5 1.1 8 3 10.3 1.9 2.3 5.8 4 12 4.8 6.1.9 15.7 1.3 28.8 1.3 12.4 0 22.1 1.4 29.1 4.1 7 2.8 12.2 6.4 15.6 10.8 3.4 4.5 5.8 9.3 7.3 14.5 1.5-5.2 4-10.1 7.4-14.5 3.4-4.5 8.6-8.1 15.6-10.8 6.9-2.7 16.6-4.1 29-4.1 10.2 0 18.2-.2 24.1-.7 5.9-.5 10.3-1.3 13.3-2.5s4.9-2.9 5.8-5.1c.9-2.2 1.3-4.9 1.3-8.2h3.9c0 8.7-1.4 15.6-4.2 20.7-2.8 5.2-7.7 8.8-14.7 11-7 2.2-16.8 3.3-29.5 3.3-12.9 0-22.9.4-30 1.3-7.1.9-12.1 2.4-15.2 4.6-3 2.2-4.7 5.4-4.9 9.7v1h-3.7v-1c-.3-4.3-1.9-7.5-4.8-9.7-3-2.2-8-3.7-15.2-4.6-7.1-.9-17.2-1.3-30.1-1.3-12.1 0-21.6-1.1-28.6-3.3-6.9-2.2-11.9-5.9-14.7-11C1.4 15.2 0 8.3 0-.4z"/></svg>