<svg xmlns="http://www.w3.org/2000/svg" viewBox="0 0 200 200"><style>.st2{fill:#749c7b}</style><path d="M185.7 89.4c-11.2-19.2-36.6-45.6-43.3-49.2 2.7-8.9 8.7-18.2 6.1-23C143 6.3 130.3.2 118.9 0c0 0-45.4 3.4-64.7 25.4-20.9 24.1-24.1 54.9-19.9 86 0 12.7-.6 45.4-.6 54.3-2.1 10.6-4.2 21.1-6.6 33.6 2.7 0 9.3 1.9 13.5-.4 16.7-9.3 82.4-55.8 88.8-60.4.8 2.3 1.9 4.4 2.7 6.8 5.5-2.1 31.5-11.4 35.9-13.5 29.5-13 29.5-13.3 17.7-42.4z" fill="#9b2923"/><path d="M189.3 58.5c-13.5 10.6-19.7 6.3-29.8-2.7-3.4 2.7-6.6 5.5-11 9.3 3.4 1.5 5.7 2.3 8.2 3.4-5.7 4.6-9.9 19.7-19 2.3-3.4 1.3-7 2.5-9.7 3.6-.8 4.6-1.5 9.1-2.1 13.3.2 0 .2.2.4.2-1.5 1.3-3 2.7-5.5 5.3v-8.7h-10.4c-5.3 4.6-10.8 9.3-16.1 13.9.8 1.5 2.3 4 2.3 4 13.9-7 22.4 4.4 32.8 9.5 4.4-3.6 9.1-7.2 13.5-10.8-6.6-.4-13.9-.2-10.6-10.8 2.1-2.3 4-4.2 5.3-5.5 3.6 4.4 7.6 9.3 11.6 14.2 3-1.1 8.9-3.4 8.9-3.6 6.1.2 13.1 1.9 13.1-7.8 5.1.6 10.1 1.5 15.2 2.1 2.3-.8 4.4-1.7 6.8-2.7v-4.6c0-1.1.2-2.1.2-3.2 8.8-9.7-7.7-10.9-4.1-20.7zM39.2 108.8c.3.2.3 0 0 0zm7.2 11.9c-2.3-3.8-4.6-7.8-7.2-11.6-1.7 3.6-3.4 7.4-5.1 11-2.7-1.1-12-2.7-13.9-2.7C6.3 118 2.7 125 6 145.3c5.9-1.9 11.8-3.8 14.8-4.9-5.4 13-11.1 26.7-16.8 40.3.8.8 1.7 1.7 2.3 2.5 9.1-5.9 18.2-11.6 27.5-17.5 0-9.7.8-19.7.8-29.4 6.3.8 14.4 1.9 20.7 2.7 1.9-7 3.6-13.9 5.5-21.1-2.1-.2-6.6-.4-8.7-.6-1.9 1.2-4.2 2.5-5.7 3.4zm20.3-16.5c-.8 2.3.2 5.3.2 8 3.6-.8 7.2-1.9 10.8-2.7.8-1.1 4.2-4.6 5.1-5.3 1.1-2.1 2.1-4.2 3.2-6.6-4.2-3-8.7-5.9-13.1-9.1-2 5.3-4.5 10.6-6.2 15.7z" fill="#475f5b"/><path class="st2" d="M149.5 98.3c-3.8-4.6-8.2-10.1-11.6-14.4-1.3 1.1-3.6 4.2-5.9 6.3-3.4 10.6 3.8 11.2 10.8 11.4 3.8 1.7 7.4 3 11.2 4.6.4-.6.8-1.3 1.3-1.9-2.4-1.8-3.6-3.9-5.8-6zm-99.3-4.7c-3.6 5.1-7.4 10.4-11 15.4-1.7.8-3.4 1.7-5.1 2.5v8.7c1.7-3.6 3.4-7.4 5.1-11 2.3 4 4.9 7.8 7.2 11.6 1.5-.8 3.6-2.1 5.7-3.4.4-7.4.8-14.8 1.3-22.2-.8-.7-1.9-1.2-3.2-1.6z"/><path class="st2" d="M118.9 85.4c0 2.5.6 5.9.6 9.7 3-2.7 5.7-6.8 7.2-8.2.6-4 1.5-8 2.1-12.7 2.7-1.1 6.1-2.1 9.3-3.4.4-1.9.8-4.2 1.5-7.2-10.6 4.6-19.9 8.9-28.9 13.1-.8-1.9-1.9-3.8-2.7-5.9-7.4 8-14.6 16.3-22 24.3-.2.6-.2 1.7 0 2.3-1.1 2.1-4.9 7.8-5.7 8.5 0 0-9.7 5.1-13.1 5.9-2.7 2.1-5.5 4-8.2 6.1-1.9 7-3.6 13.9-5.5 21.1 5.1.4 9.9.8 17.1 1.3-2.5-5.7-4-9.1-5.3-12 4.2-1.3 27.3-13.1 38.2-10.8 7.8 1.7 17.3-3.8 26-6.1-10.4-4.9-18.8-16.3-32.8-9.3 0 0-1.3-2.7-2.1-4.4 5.3-4.6 10.4-9.1 15.6-13.5 3.4.1 5.1 1.2 8.7 1.2z"/></svg>