<svg xmlns="http://www.w3.org/2000/svg" viewBox="0 0 467.47 367.29"><path d="M138.26 290.01a48.24 48.24 0 0196.48 0v1h217.59s-24.81-136.52-150.1-233.17C191.66-27.46 116.47 1.09 79.62 21.72c-28.55 16-56 68.72-36.81 95.25 15.36 21.32 60.55-12.68 64.84 8.84 3 14.74-35.87 44.84-67.79 104.64s-23.79 60.57-23.79 60.57h122.21c0-.34-.02-.67-.02-1.01z" fill="#9b2923"/><path d="M211.71 291.02v-1a25.24 25.24 0 00-50.48 0v1z" fill="#9b2923"/><rect y="306.19" width="467.47" height="61.09" rx="5.61" fill="#9b2923"/></svg>