<svg xmlns="http://www.w3.org/2000/svg" viewBox="0 0 200 200">
<style type="text/css">
	.st0{fill:#9B2923;}
	.st1{fill:#475F5B;}
	.st2{fill:#749C7B;}
</style>
<g>
	<path class="st0" d="M185.7,89.4c-11.2-19.2-36.6-45.6-43.3-49.2c2.7-8.9,8.7-18.2,6.1-23C143,6.3,130.3,0.2,118.9,0
		c0,0-45.4,3.4-64.7,25.4c-20.9,24.1-24.1,54.9-19.9,86l0,0c0,12.7-0.6,45.4-0.6,54.3c-2.1,10.6-4.2,21.1-6.6,33.6
		c2.7,0,9.3,1.9,13.5-0.4c16.7-9.3,82.4-55.8,88.8-60.4c0.8,2.3,1.9,4.4,2.7,6.8c5.5-2.1,31.5-11.4,35.9-13.5
		C197.5,118.8,197.5,118.5,185.7,89.4z"/>
	<path class="st1" d="M189.3,58.5c-13.5,10.6-19.7,6.3-29.8-2.7c-3.4,2.7-6.6,5.5-11,9.3c3.4,1.5,5.7,2.3,8.2,3.4
		c-5.7,4.6-9.9,19.7-19,2.3c-3.4,1.3-7,2.5-9.7,3.6c-0.8,4.6-1.5,9.1-2.1,13.3c0.2,0,0.2,0.2,0.4,0.2c-1.5,1.3-3,2.7-5.5,5.3
		c0-3.8,0-5.9,0-8.7c-3.6,0-7,0-10.4,0c-5.3,4.6-10.8,9.3-16.1,13.9c0.8,1.5,2.3,4,2.3,4c13.9-7,22.4,4.4,32.8,9.5
		c4.4-3.6,9.1-7.2,13.5-10.8c-6.6-0.4-13.9-0.2-10.6-10.8l0,0c2.1-2.3,4-4.2,5.3-5.5c3.6,4.4,7.6,9.3,11.6,14.2
		c3-1.1,8.9-3.4,8.9-3.6c6.1,0.2,13.1,1.9,13.1-7.8c5.1,0.6,10.1,1.5,15.2,2.1c2.3-0.8,4.4-1.7,6.8-2.7c0-1.5,0-3.2,0-4.6
		c0-1.1,0.2-2.1,0.2-3.2C202.2,69.5,185.7,68.3,189.3,58.5z"/>
	<path class="st1" d="M39.2,108.8C39.5,109,39.5,108.8,39.2,108.8L39.2,108.8z"/>
	<path class="st1" d="M46.4,120.7c-2.3-3.8-4.6-7.8-7.2-11.6c-1.7,3.6-3.4,7.4-5.1,11c-2.7-1.1-12-2.7-13.9-2.7
		c-13.9,0.6-17.5,7.6-14.2,27.9c5.9-1.9,11.8-3.8,14.8-4.9C15.4,153.4,9.7,167.1,4,180.7c0.8,0.8,1.7,1.7,2.3,2.5
		c9.1-5.9,18.2-11.6,27.5-17.5c0-9.7,0.8-19.7,0.8-29.4c6.3,0.8,14.4,1.9,20.7,2.7c1.9-7,3.6-13.9,5.5-21.1
		c-2.1-0.2-6.6-0.4-8.7-0.6C50.2,118.5,47.9,119.8,46.4,120.7z"/>
	<path class="st1" d="M66.7,104.2c-0.8,2.3,0.2,5.3,0.2,8c3.6-0.8,7.2-1.9,10.8-2.7c0.8-1.1,4.2-4.6,5.1-5.3
		c1.1-2.1,2.1-4.2,3.2-6.6c-4.2-3-8.7-5.9-13.1-9.1C70.9,93.8,68.4,99.1,66.7,104.2z"/>
	<g>
		<path class="st2" d="M149.5,98.3c-3.8-4.6-8.2-10.1-11.6-14.4c-1.3,1.1-3.6,4.2-5.9,6.3c-3.4,10.6,3.8,11.2,10.8,11.4
			c3.8,1.7,7.4,3,11.2,4.6c0.4-0.6,0.8-1.3,1.3-1.9C152.9,102.5,151.7,100.4,149.5,98.3z"/>
		<path class="st2" d="M50.2,93.6c-3.6,5.1-7.4,10.4-11,15.4c-1.7,0.8-3.4,1.7-5.1,2.5c0,3,0,5.7,0,8.7c1.7-3.6,3.4-7.4,5.1-11
			c2.3,4,4.9,7.8,7.2,11.6c1.5-0.8,3.6-2.1,5.7-3.4c0.4-7.4,0.8-14.8,1.3-22.2C52.6,94.5,51.5,94,50.2,93.6z"/>
		<path class="st2" d="M118.9,85.4c0,2.5,0.6,5.9,0.6,9.7c3-2.7,5.7-6.8,7.2-8.2c0.6-4,1.5-8,2.1-12.7c2.7-1.1,6.1-2.1,9.3-3.4
			c0.4-1.9,0.8-4.2,1.5-7.2c-10.6,4.6-19.9,8.9-28.9,13.1c-0.8-1.9-1.9-3.8-2.7-5.9c-7.4,8-14.6,16.3-22,24.3
			c-0.2,0.6-0.2,1.7,0,2.3c-1.1,2.1-4.9,7.8-5.7,8.5c0,0-9.7,5.1-13.1,5.9c-2.7,2.1-5.5,4-8.2,6.1c-1.9,7-3.6,13.9-5.5,21.1
			c5.1,0.4,9.9,0.8,17.1,1.3c-2.5-5.7-4-9.1-5.3-12c4.2-1.3,27.3-13.1,38.2-10.8c7.8,1.7,17.3-3.8,26-6.1
			c-10.4-4.9-18.8-16.3-32.8-9.3c0,0-1.3-2.7-2.1-4.4c5.3-4.6,10.4-9.1,15.6-13.5C113.6,84.3,115.3,85.4,118.9,85.4z"/>
	</g>
</g>
</svg>
