<svg xmlns="http://www.w3.org/2000/svg" viewBox="0 0 1920 1010"><path d="M1565 187.5l355 351.2V10.6zM1920 0v-32L1488.8-7zM386.7 203.3L0 601v343.8l937.1-467.1zm1163-31l306.7-152.9-469-7.6z" opacity=".7" fill="#dad8c7"/><path d="M431.2-7L0-32V0zM0 567.4v4.3l367.5-377.9L0 10.6z" opacity=".6" fill="#d2d0c1"/><path opacity=".8" fill="#eae9da" d="M63.6 19.4L1920 944.8V567.4L1344.9-1.5z"/><path d="M1565 187.5l355 351.2V10.6zM1920 0v-32L1488.8-7zM386.7 203.3L0 601v343.8l937.1-467.1zm1163-31l306.7-152.9-469-7.6z" opacity=".7" fill="none" stroke="#c3c1a8" stroke-width=".5" stroke-miterlimit="10"/><path d="M431.2-7L0-32V0zM0 567.4v4.3l367.5-377.9L0 10.6z" opacity=".6" fill="none" stroke="#c3c1a8" stroke-width=".5" stroke-miterlimit="10"/><path opacity=".8" fill="none" stroke="#c3c1a8" stroke-width=".5" stroke-miterlimit="10" d="M63.6 19.4L1920 944.8V567.4L1344.9-1.5z"/></svg>