<?xml version="1.0" encoding="utf-8"?>
<!-- Generator: Adobe Illustrator 25.0.0, SVG Export Plug-In . SVG Version: 6.00 Build 0)  -->
<svg version="1.1" id="Layer_1" xmlns="http://www.w3.org/2000/svg" xmlns:xlink="http://www.w3.org/1999/xlink" x="0px" y="0px"
	 viewBox="0 0 1920 1010" style="enable-background:new 0 0 1920 1010;" xml:space="preserve">
<style type="text/css">
	.st0{opacity:0.7;fill:#DAD8C7;}
	.st1{opacity:0.6;fill:#D2D0C1;}
	.st2{opacity:0.8;fill:#EAE9DA;}
	.st3{opacity:0.7;fill:none;stroke:#C3C1A8;stroke-width:0.5;stroke-miterlimit:10;}
	.st4{opacity:0.6;fill:none;stroke:#C3C1A8;stroke-width:0.5;stroke-miterlimit:10;}
	.st5{opacity:0.8;fill:none;stroke:#C3C1A8;stroke-width:0.5;stroke-miterlimit:10;}
</style>
<polygon class="st0" points="1565,187.5 1920,538.7 1920,350.6 1920,10.6 "/>
<polygon class="st0" points="1920,0 1920,-32 1488.8,-7 "/>
<polygon class="st0" points="386.7,203.3 0,601 0,944.8 937.1,477.7 "/>
<polygon class="st0" points="1549.7,172.3 1856.4,19.4 1387.4,11.8 "/>
<polygon class="st1" points="431.2,-7 0,-32 0,-19.9 0,0 "/>
<polygon class="st1" points="0,567.4 0,571.7 367.5,193.8 0,10.6 "/>
<polygon class="st2" points="63.6,19.4 1920,944.8 1920,571.7 1920,567.4 1344.9,-1.5 "/>
<g>
	<polygon class="st3" points="1565,187.5 1920,538.7 1920,350.6 1920,10.6 	"/>
	<polygon class="st3" points="1920,0 1920,-32 1488.8,-7 	"/>
	<polygon class="st3" points="386.7,203.3 0,601 0,944.8 937.1,477.7 	"/>
	<polygon class="st3" points="1549.7,172.3 1856.4,19.4 1387.4,11.8 	"/>
	<polygon class="st4" points="431.2,-7 0,-32 0,-19.9 0,0 	"/>
	<polygon class="st4" points="0,567.4 0,571.7 367.5,193.8 0,10.6 	"/>
	<polygon class="st5" points="63.6,19.4 1920,944.8 1920,571.7 1920,567.4 1344.9,-1.5 	"/>
</g>
</svg>
