<svg version="1.1" id="Layer_1" xmlns="http://www.w3.org/2000/svg" x="0" y="0" viewBox="0 0 1920 1010" xml:space="preserve"><style>.st0{fill:#c3c1a8}.st1{fill:#dad8c7}.st3{fill:#eae9da}</style><g id="Layer_1_1_"><path class="st0" d="M1920 1001.2L0 630.7V0h1920v1001.2z"/><path class="st1" d="M0 1010V348.4l609 626.3L0 1010z"/><path class="st1" d="M1345 979.1l575-568.9V0L0 957.1l1345 22z"/><path d="M1920 1010V348.4l-609 626.3 609 35.3z" fill="#d2d0c1"/><path class="st3" d="M575 979.1L0 410.2V0l1920 957.1-1345 22z"/></g><g opacity=".8"><path class="st3" d="M942.9 504.3L0 34.2v-17l977.1 487.1h-34.2z"/><path class="st0" d="M910.1 504.3L0 50.8V34.2l942.9 470.1h-32.8z"/><path class="st1" d="M977.1 504.3L0 17.2V0l1012 504.3h-34.9z"/></g><g opacity=".9"><path class="st1" d="M942.9 503.3L1920 16.2V-.3L910.1 503.3h32.8z"/><path class="st3" d="M977.1 503.3L1920 33.2v-17L942.9 503.3h34.2z"/><path class="st0" d="M1012 503.3l908-453.5V33.2L977.1 503.3h34.9z"/></g></svg>