<?xml version="1.0" encoding="utf-8"?>
<!-- Generator: Adobe Illustrator 25.0.0, SVG Export Plug-In . SVG Version: 6.00 Build 0)  -->
<svg version="1.1" id="Layer_1" xmlns="http://www.w3.org/2000/svg" xmlns:xlink="http://www.w3.org/1999/xlink" x="0px" y="0px"
	 viewBox="0 0 1920 1010" style="enable-background:new 0 0 1920 1010;" xml:space="preserve">
<style type="text/css">
	.st0{fill:#C3C1A8;}
	.st1{fill:#DAD8C7;}
	.st2{fill:#D2D0C1;}
	.st3{fill:#EAE9DA;}
	.st4{opacity:0.8;}
	.st5{opacity:0.9;}
</style>
<g id="Layer_1_1_">
	<path class="st0" d="M1920,1001.2L0,630.7V0h1920V1001.2z"/>
	<path class="st1" d="M0,1010V348.4l609,626.3L0,1010z"/>
	<path class="st1" d="M1345,979.1l575-568.9V0L0,957.1L1345,979.1z"/>
	<path class="st2" d="M1920,1010V348.4l-609,626.3L1920,1010L1920,1010z"/>
	<path class="st3" d="M575,979.1L0,410.2V0l1920,957.1L575,979.1z"/>
</g>
<g class="st4">
	<path class="st3" d="M942.9,504.3L0,34.2v-17l977.1,487.1L942.9,504.3z"/>
	<path class="st0" d="M910.1,504.3L0,50.8V34.2l942.9,470.1L910.1,504.3z"/>
	<path class="st1" d="M977.1,504.3L0,17.2V0l1012,504.3H977.1z"/>
</g>
<g class="st5">
	<path class="st1" d="M942.9,503.3L1920,16.2V-0.3L910.1,503.3H942.9z"/>
	<path class="st3" d="M977.1,503.3L1920,33.2v-17L942.9,503.3H977.1z"/>
	<path class="st0" d="M1012,503.3l908-453.5V33.2L977.1,503.3H1012z"/>
</g>
</svg>
